<?xml version="1.0" encoding="utf-8"?>
<svg viewBox="41.365 73.423 783.737 263.333" width="783.737" height="263.333" xmlns="http://www.w3.org/2000/svg">
  <g id="g10" transform="matrix(1.333333, 0, 0, -1.333333, -127.301674, 615.12439)">
    <g id="g12" transform="scale(0.1)">
      <path d="m 1265,4062.76 v -1975 h 5878.03 v 1975 H 1265" style="fill:#ffffff;fill-opacity:1;fill-rule:nonzero;stroke:none" id="path14"/>
      <path d="m 5348.58,3068.52 c 0,-36 30,-65.25 65.25,-65.25 35.25,0 65.25,29.25 65.25,65.25 0,35.25 -30,65.25 -65.25,65.25 -35.25,0 -65.25,-30 -65.25,-65.25" style="fill:#dd4720;fill-opacity:1;fill-rule:nonzero;stroke:none" id="path16"/>
      <path d="m 4968.18,3071.02 c 0,-39 29.25,-60.75 60.75,-60.75 h 190.5 c 38.25,0 60.75,22.5 60.75,56.25 0,35.25 -22.5,56.25 -60.75,56.25 h -129.75 v 99.75 h 114.75 c 38.25,0 60.75,21.75 60.75,56.25 0,34.5 -22.5,56.25 -60.75,56.25 h -114.75 v 96.75 h 125.25 c 38.25,0 60.75,21 60.75,56.25 0,33.75 -22.5,56.25 -60.75,56.25 h -186 c -31.5,0 -60.75,-21.75 -60.75,-60.75 v -412.5" style="fill:#7b7979;fill-opacity:1;fill-rule:nonzero;stroke:none" id="path18"/>
      <path d="m 4756,3068.52 c 0,-36 30,-65.25 65.25,-65.25 35.25,0 65.25,29.25 65.25,65.25 0,35.25 -30,65.25 -65.25,65.25 -35.25,0 -65.25,-30 -65.25,-65.25" style="fill:#dd4720;fill-opacity:1;fill-rule:nonzero;stroke:none" id="path20"/>
      <path d="m 4313.14,3086.02 c 0,-60 108,-87.75 179.25,-87.75 113.25,0 204,55.5 204,178.5 0,101.25 -63.75,135 -129.75,156.75 -84,27.75 -114,31.5 -114,62.25 0,26.25 22.5,43.5 55.5,43.5 51.75,0 64.5,-20.25 103.5,-20.25 32.25,0 54,24 54,57 0,46.5 -54,80.25 -151.5,80.25 -101.25,0 -192,-54.75 -192,-171 0,-96.75 65.25,-123.75 128.25,-144 69,-22.5 115.5,-30.75 115.5,-71.25 0,-26.25 -17.25,-50.25 -64.5,-50.25 -62.25,0 -101.25,30.75 -131.25,30.75 -36.75,0 -57,-31.5 -57,-64.5" style="fill:#7b7979;fill-opacity:1;fill-rule:nonzero;stroke:none" id="path22"/>
      <path d="m 4114.76,3068.52 c 0,-36 30,-65.25 65.25,-65.25 35.25,0 65.25,29.25 65.25,65.25 0,35.25 -30,65.25 -65.25,65.25 -35.25,0 -65.25,-30 -65.25,-65.25" style="fill:#dd4720;fill-opacity:1;fill-rule:nonzero;stroke:none" id="path24"/>
      <path d="m 3813.05,3556.27 c -158.25,0 -262.5,-109.5 -262.5,-279 0,-169.5 104.25,-279 262.5,-279 158.25,0 262.5,109.5 262.5,279 0,169.5 -104.25,279 -262.5,279 z m 0,-112.5 c 93.75,0 132,-81.75 132,-166.5 0,-84.75 -38.25,-166.5 -132,-166.5 -93.75,0 -132,81.75 -132,166.5 0,84.75 38.25,166.5 132,166.5" style="fill:#7b7979;fill-opacity:1;fill-rule:nonzero;stroke:none" id="path26"/>
      <path d="m 3382.47,3068.52 c 0,-36 30,-65.25 65.25,-65.25 35.25,0 65.25,29.25 65.25,65.25 0,35.25 -30,65.25 -65.25,65.25 -35.25,0 -65.25,-30 -65.25,-65.25" style="fill:#dd4720;fill-opacity:1;fill-rule:nonzero;stroke:none" id="path28"/>
      <path d="m 2919.2,3070.27 c 0,-42.75 25.5,-64.5 60.75,-64.5 35.25,0 60.75,21.75 60.75,64.5 v 153.75 h 1.5 l 149.25,-188.25 c 15,-18.75 26.25,-30 57.75,-30 46.5,0 62.25,39 62.25,56.25 0,20.25 -9,34.5 -25.5,52.5 l -105.75,114 c 76.5,14.25 124.5,71.25 124.5,150 0,99.75 -70.5,165.75 -178.5,165.75 h -146.25 c -31.5,0 -60.75,-21.75 -60.75,-60.75 z m 121.5,361.5 h 80.25 c 34.5,0 62.25,-21.75 62.25,-57.75 0,-33.75 -22.5,-60 -62.25,-60 h -80.25 v 117.75" style="fill:#7b7979;fill-opacity:1;fill-rule:nonzero;stroke:none" id="path30"/>
      <path d="m 1710.45,2577.55 c 0,-14.82 8.84,-22.36 21.06,-22.36 12.22,0 21.06,7.54 21.06,22.36 v 53.3 h 0.52 l 51.74,-65.26 c 5.2,-6.5 9.1,-10.4 20.02,-10.4 16.12,0 21.58,13.52 21.58,19.5 0,7.02 -3.12,11.96 -8.84,18.2 l -36.66,39.52 c 26.52,4.94 43.16,24.7 43.16,52 0,34.58 -24.44,57.46 -61.88,57.46 h -50.7 c -10.92,0 -21.06,-7.54 -21.06,-21.06 z m 42.12,125.32 h 27.82 c 11.96,0 21.58,-7.54 21.58,-20.02 0,-11.7 -7.8,-20.8 -21.58,-20.8 h -27.82 z m 223.33,-90.22 c 13,0 19.76,3.38 19.76,17.68 0,35.36 -25.74,68.9 -65.78,68.9 -41.6,0 -70.98,-34.32 -70.98,-73.32 0,-40.82 27.3,-73.32 70.98,-73.32 30.68,0 63.7,13 63.7,32.76 0,10.4 -7.8,17.42 -16.9,17.42 -9.36,0 -21.58,-12.74 -41.6,-12.74 -26,0 -32.5,14.04 -32.5,22.62 z m -73.32,27.82 c 0,9.1 10.4,24.44 26.26,24.44 15.86,0 26.26,-15.34 26.26,-24.44 z m 108.45,-14.56 c 0,-40.82 27.3,-73.32 68.38,-73.32 16.12,0 48.1,7.8 48.1,28.08 0,8.58 -7.28,17.94 -16.64,17.94 -5.98,0 -14.04,-7.02 -31.46,-7.02 -17.94,0 -27.82,15.6 -27.82,34.32 0,18.72 9.62,34.32 30.16,34.32 15.86,0 18.72,-6.76 29.12,-6.76 9.36,0 16.64,8.06 16.64,18.98 0,21.58 -29.9,26.78 -48.1,26.78 -41.08,0 -68.38,-32.5 -68.38,-73.32 z m 135.8,-49.66 c 0,-11.7 8.32,-21.06 20.28,-21.06 11.96,0 20.28,9.36 20.28,21.06 v 45.76 h 0.52 l 40.56,-53.04 c 8.58,-10.92 12.74,-13.78 22.1,-13.78 14.04,0 20.02,10.92 20.02,18.72 0,5.98 -5.46,12.74 -9.62,17.94 l -34.06,43.16 21.84,21.58 c 9.62,9.36 14.3,14.04 14.3,21.32 0,9.88 -7.8,18.72 -19.76,18.72 -9.88,0 -15.86,-7.02 -22.88,-14.04 l -33.02,-33.02 v 86.32 c 0,11.7 -8.32,21.06 -20.28,21.06 -11.96,0 -20.28,-9.36 -20.28,-21.06 z m 198.3,122.98 c -41.08,0 -68.38,-32.5 -68.38,-73.32 0,-40.82 27.3,-73.32 68.38,-73.32 41.08,0 68.38,32.5 68.38,73.32 0,40.82 -27.3,73.32 -68.38,73.32 z m 0,-39 c 17.94,0 27.82,-15.6 27.82,-34.32 0,-18.72 -9.88,-34.32 -27.82,-34.32 -17.94,0 -27.82,15.6 -27.82,34.32 0,18.72 9.88,34.32 27.82,34.32 z m 89.6,-83.98 c 0,-11.7 8.32,-21.06 20.28,-21.06 11.96,0 20.28,9.36 20.28,21.06 v 64.22 c 0,14.04 8.32,24.44 22.36,24.44 14.04,0 22.36,-10.4 22.36,-24.44 v -64.22 c 0,-11.7 8.32,-21.06 20.28,-21.06 11.96,0 20.28,9.36 20.28,21.06 v 75.14 c 0,33.28 -22.36,47.84 -50.44,47.84 -17.42,0 -28.34,-5.46 -34.84,-15.6 -2.6,5.98 -9.36,13 -20.28,13 -11.96,0 -20.28,-9.36 -20.28,-21.06 z m 152.2,0 c 0,-11.7 8.32,-21.06 20.28,-21.06 11.96,0 20.28,9.36 20.28,21.06 v 99.32 c 0,11.7 -8.32,21.06 -20.28,21.06 -11.96,0 -20.28,-9.36 -20.28,-21.06 z m -3.9,156.52 c 0,-13.52 10.92,-24.18 24.18,-24.18 13.26,0 24.18,10.66 24.18,24.18 0,13.52 -10.92,24.18 -24.18,24.18 -13.26,0 -24.18,-10.66 -24.18,-24.18 z m 70.92,-156.52 c 0,-11.7 8.32,-21.06 20.28,-21.06 11.96,0 20.28,9.36 20.28,21.06 v 64.22 c 0,14.04 8.32,24.44 22.36,24.44 14.04,0 22.36,-10.4 22.36,-24.44 v -64.22 c 0,-11.7 8.32,-21.06 20.28,-21.06 11.96,0 20.28,9.36 20.28,21.06 v 75.14 c 0,33.28 -22.36,47.84 -50.44,47.84 -17.42,0 -28.34,-5.46 -34.84,-15.6 -2.6,5.98 -9.36,13 -20.28,13 -11.96,0 -20.28,-9.36 -20.28,-21.06 z m 283.82,99.32 c 0,11.7 -8.32,21.06 -20.28,21.06 -9.88,0 -16.12,-6.76 -18.98,-13 -9.1,11.18 -19.5,15.6 -34.84,15.6 -35.36,0 -62.66,-32.5 -62.66,-73.32 0,-36.66 19.5,-70.72 58.76,-70.72 13.52,0 28.08,3.12 36.92,15.6 h 0.52 c 0,-22.62 -8.58,-35.88 -33.8,-35.88 -23.66,0 -31.2,11.96 -42.9,11.96 -8.06,0 -16.9,-8.58 -16.9,-17.68 0,-22.1 39.52,-30.16 60.58,-30.16 39.78,0 73.58,19.5 73.58,71.24 z m -40.56,-49.66 c 0,-19.76 -9.88,-34.84 -27.82,-34.84 -17.94,0 -27.82,15.08 -27.82,34.84 0,18.72 9.88,34.32 27.82,34.32 17.94,0 27.82,-15.6 27.82,-34.32 z m 233.48,120.12 c -54.86,0 -91,-37.96 -91,-96.72 0,-58.76 36.14,-96.72 91,-96.72 54.86,0 91,37.96 91,96.72 0,58.76 -36.14,96.72 -91,96.72 z m 0,-39 c 32.5,0 45.76,-28.34 45.76,-57.72 0,-29.38 -13.26,-57.72 -45.76,-57.72 -32.5,0 -45.76,28.34 -45.76,57.72 0,29.38 13.26,57.72 45.76,57.72 z m 127.78,-130.78 c 0,-11.7 8.32,-21.06 20.28,-21.06 11.96,0 20.28,9.36 20.28,21.06 v 81.38 h 11.18 c 13,0 21.32,5.72 21.32,18.72 0,13 -8.32,18.72 -21.32,18.72 h -11.18 v 11.18 c 0,10.4 3.12,13.26 9.36,13.26 12.74,0 19.24,5.98 19.24,18.72 0,15.34 -14.56,18.72 -27.04,18.72 -24.96,0 -42.12,-18.98 -42.12,-43.68 v -18.2 h -4.68 c -13,0 -21.32,-5.72 -21.32,-18.72 0,-13 8.32,-18.72 21.32,-18.72 h 4.68 z m 156,6.76 c 0,-20.8 37.44,-30.42 62.14,-30.42 39.26,0 70.72,19.24 70.72,61.88 0,35.1 -22.1,46.8 -44.98,54.34 -29.12,9.62 -39.52,10.92 -39.52,21.58 0,9.1 7.8,15.08 19.24,15.08 17.94,0 22.36,-7.02 35.88,-7.02 11.18,0 18.72,8.32 18.72,19.76 0,16.12 -18.72,27.82 -52.52,27.82 -35.1,0 -66.56,-18.98 -66.56,-59.28 0,-33.54 22.62,-42.9 44.46,-49.92 23.92,-7.8 40.04,-10.66 40.04,-24.7 0,-9.1 -5.98,-17.42 -22.36,-17.42 -21.58,0 -35.1,10.66 -45.5,10.66 -12.74,0 -19.76,-10.92 -19.76,-22.36 z m 280.3,92.56 c 0,11.7 -8.32,21.06 -20.28,21.06 -11.96,0 -20.28,-9.36 -20.28,-21.06 v -63.18 c 0,-15.34 -11.7,-22.36 -22.36,-22.36 -10.66,0 -22.36,7.02 -22.36,22.36 v 63.18 c 0,11.7 -8.32,21.06 -20.28,21.06 -11.96,0 -20.28,-9.36 -20.28,-21.06 v -68.9 c 0,-37.44 29.12,-54.08 62.92,-54.08 33.8,0 62.92,16.64 62.92,54.08 z m 18.98,-94.9 c 0,-17.94 28.6,-28.08 54.08,-28.08 27.82,0 52,16.9 52,45.5 0,44.46 -63.44,40.82 -63.44,56.68 0,5.98 5.2,8.58 10.66,8.58 12.48,0 24.44,-10.14 32.5,-10.14 9.62,0 16.9,7.02 16.9,17.16 0,21.06 -30.42,28.86 -46.8,28.86 -32.5,0 -52.26,-22.88 -52.26,-46.02 0,-21.84 11.18,-29.64 31.98,-38.22 22.62,-9.36 31.46,-10.14 31.46,-18.46 0,-4.16 -3.12,-8.06 -11.44,-8.06 -17.42,0 -26.26,11.7 -39,11.7 -9.1,0 -16.64,-8.06 -16.64,-19.5 z m 139.36,-4.42 c 0,-11.7 8.32,-21.06 20.28,-21.06 11.96,0 20.28,9.36 20.28,21.06 v 81.38 h 11.18 c 13,0 21.32,5.72 21.32,18.72 0,13 -8.32,18.72 -21.32,18.72 h -11.18 v 26.52 c 0,11.7 -8.32,21.06 -20.28,21.06 -11.96,0 -20.28,-9.36 -20.28,-21.06 v -26.52 h -4.68 c -13,0 -21.32,-5.72 -21.32,-18.72 0,-13 8.32,-18.72 21.32,-18.72 h 4.68 z m 214.55,99.32 c 0,11.7 -8.32,21.06 -20.28,21.06 -9.88,0 -16.12,-6.76 -18.98,-13 -9.1,11.18 -19.5,15.6 -34.84,15.6 -35.36,0 -62.66,-32.5 -62.66,-73.32 0,-40.82 27.3,-73.32 62.66,-73.32 15.34,0 25.74,4.42 34.84,15.6 2.86,-6.24 9.1,-13 18.98,-13 11.96,0 20.28,9.36 20.28,21.06 z m -68.38,-15.34 c 17.94,0 27.82,-15.6 27.82,-34.32 0,-18.72 -9.88,-34.32 -27.82,-34.32 -17.94,0 -27.82,15.6 -27.82,34.32 0,18.72 9.88,34.32 27.82,34.32 z m 94.72,-83.98 c 0,-11.7 8.32,-21.06 20.28,-21.06 11.96,0 20.28,9.36 20.28,21.06 v 99.32 c 0,11.7 -8.32,21.06 -20.28,21.06 -11.96,0 -20.28,-9.36 -20.28,-21.06 z m -3.9,156.52 c 0,-13.52 10.92,-24.18 24.18,-24.18 13.26,0 24.18,10.66 24.18,24.18 0,13.52 -10.92,24.18 -24.18,24.18 -13.26,0 -24.18,-10.66 -24.18,-24.18 z m 70.92,-156.52 c 0,-11.7 8.32,-21.06 20.28,-21.06 11.96,0 20.28,9.36 20.28,21.06 v 64.22 c 0,14.04 8.32,24.44 22.36,24.44 14.04,0 22.36,-10.4 22.36,-24.44 v -64.22 c 0,-11.7 8.32,-21.06 20.28,-21.06 11.96,0 20.28,9.36 20.28,21.06 v 75.14 c 0,33.28 -22.36,47.84 -50.44,47.84 -17.42,0 -28.34,-5.46 -34.84,-15.6 -2.6,5.98 -9.36,13 -20.28,13 -11.96,0 -20.28,-9.36 -20.28,-21.06 z m 283.35,99.32 c 0,11.7 -8.32,21.06 -20.28,21.06 -9.88,0 -16.12,-6.76 -18.98,-13 -9.1,11.18 -19.5,15.6 -34.84,15.6 -35.36,0 -62.66,-32.5 -62.66,-73.32 0,-40.82 27.3,-73.32 62.66,-73.32 15.34,0 25.74,4.42 34.84,15.6 2.86,-6.24 9.1,-13 18.98,-13 11.96,0 20.28,9.36 20.28,21.06 z m -68.38,-15.34 c 17.94,0 27.82,-15.6 27.82,-34.32 0,-18.72 -9.88,-34.32 -27.82,-34.32 -17.94,0 -27.82,15.6 -27.82,34.32 0,18.72 9.88,34.32 27.82,34.32 z m 95.21,-83.98 c 0,-11.7 8.32,-21.06 20.28,-21.06 9.88,0 16.12,6.76 18.98,13 9.1,-11.18 19.5,-15.6 34.84,-15.6 35.36,0 62.66,32.5 62.66,73.32 0,40.82 -27.3,73.32 -62.66,73.32 -17.42,0 -26.26,-5.46 -33.54,-11.44 v 48.1 c 0,11.7 -8.32,21.06 -20.28,21.06 -11.96,0 -20.28,-9.36 -20.28,-21.06 z m 68.38,83.98 c 17.94,0 27.82,-15.6 27.82,-34.32 0,-18.72 -9.88,-34.32 -27.82,-34.32 -17.94,0 -27.82,15.6 -27.82,34.32 0,18.72 9.88,34.32 27.82,34.32 z m 89.2,-83.98 c 0,-11.7 8.32,-21.06 20.28,-21.06 11.96,0 20.28,9.36 20.28,21.06 v 159.64 c 0,11.7 -8.32,21.06 -20.28,21.06 -11.96,0 -20.28,-9.36 -20.28,-21.06 z m 178.13,36.4 c 13,0 19.76,3.38 19.76,17.68 0,35.36 -25.74,68.9 -65.78,68.9 -41.6,0 -70.98,-34.32 -70.98,-73.32 0,-40.82 27.3,-73.32 70.98,-73.32 30.68,0 63.7,13 63.7,32.76 0,10.4 -7.8,17.42 -16.9,17.42 -9.36,0 -21.58,-12.74 -41.6,-12.74 -26,0 -32.5,14.04 -32.5,22.62 z m -73.32,27.82 c 0,9.1 10.4,24.44 26.26,24.44 15.86,0 26.26,-15.34 26.26,-24.44 z m 195,-62.66 c 0,-13.52 10.14,-21.06 21.06,-21.06 h 66.04 c 13.26,0 21.05,7.8 21.05,19.5 0,12.22 -7.79,19.5 -21.05,19.5 h -44.98 v 34.58 h 39.78 c 13.26,0 21.06,7.54 21.06,19.5 0,11.96 -7.8,19.5 -21.06,19.5 h -39.78 v 33.54 h 43.42 c 13.26,0 21.06,7.28 21.06,19.5 0,11.7 -7.8,19.5 -21.06,19.5 h -64.48 c -10.92,0 -21.06,-7.54 -21.06,-21.06 z m 128.67,-1.56 c 0,-11.7 8.32,-21.06 20.28,-21.06 11.96,0 20.28,9.36 20.28,21.06 v 64.22 c 0,14.04 8.32,24.44 22.36,24.44 14.04,0 22.36,-10.4 22.36,-24.44 v -64.22 c 0,-11.7 8.32,-21.06 20.28,-21.06 11.96,0 20.28,9.36 20.28,21.06 v 75.14 c 0,33.28 -22.36,47.84 -50.44,47.84 -17.42,0 -28.34,-5.46 -34.84,-15.6 -2.6,5.98 -9.36,13 -20.28,13 -11.96,0 -20.28,-9.36 -20.28,-21.06 z m 263.59,36.4 c 13,0 19.76,3.38 19.76,17.68 0,35.36 -25.74,68.9 -65.78,68.9 -41.6,0 -70.98,-34.32 -70.98,-73.32 0,-40.82 27.3,-73.32 70.98,-73.32 30.68,0 63.7,13 63.7,32.76 0,10.4 -7.8,17.42 -16.9,17.42 -9.36,0 -21.58,-12.74 -41.6,-12.74 -26,0 -32.5,14.04 -32.5,22.62 z m -73.32,27.82 c 0,9.1 10.4,24.44 26.26,24.44 15.86,0 26.26,-15.34 26.26,-24.44 z m 114.73,-64.22 c 0,-11.7 8.32,-21.06 20.28,-21.06 11.96,0 20.28,9.36 20.28,21.06 v 49.4 c 0,20.8 5.72,25.48 23.4,30.68 14.82,4.42 25.48,7.8 25.48,21.84 0,12.74 -10.4,21.06 -20.8,21.06 -11.44,0 -21.32,-7.54 -28.08,-15.6 -2.6,5.98 -9.36,13 -20.28,13 -11.96,0 -20.28,-9.36 -20.28,-21.06 z m 229.74,99.32 c 0,11.7 -8.32,21.06 -20.28,21.06 -9.88,0 -16.12,-6.76 -18.98,-13 -9.1,11.18 -19.5,15.6 -34.84,15.6 -35.36,0 -62.66,-32.5 -62.66,-73.32 0,-36.66 19.5,-70.72 58.76,-70.72 13.52,0 28.08,3.12 36.92,15.6 h 0.52 c 0,-22.62 -8.58,-35.88 -33.8,-35.88 -23.66,0 -31.2,11.96 -42.9,11.96 -8.06,0 -16.9,-8.58 -16.9,-17.68 0,-22.1 39.52,-30.16 60.58,-30.16 39.78,0 73.58,19.5 73.58,71.24 z m -40.56,-49.66 c 0,-19.76 -9.88,-34.84 -27.82,-34.84 -17.94,0 -27.82,15.08 -27.82,34.84 0,18.72 9.88,34.32 27.82,34.32 17.94,0 27.82,-15.6 27.82,-34.32 z m 85.3,-86.32 c -4.68,-10.66 -6.76,-15.34 -6.76,-22.36 0,-6.76 5.46,-18.2 20.02,-18.2 14.04,0 17.42,8.58 22.1,19.24 l 60.06,140.14 c 2.08,4.68 4.94,11.7 4.94,17.68 0,12.48 -8.32,20.54 -20.8,20.54 -11.18,0 -16.9,-9.62 -22.1,-22.1 l -22.62,-55.12 -23.92,61.88 c -3.9,10.14 -10.92,15.34 -20.8,15.34 -10.14,0 -19.76,-7.02 -19.76,-18.98 0,-4.68 3.9,-14.3 8.58,-25.22 l 34.58,-82.42 z m 109.36,41.08 c 0,-17.94 28.6,-28.08 54.08,-28.08 27.82,0 52,16.9 52,45.5 0,44.46 -63.44,40.82 -63.44,56.68 0,5.98 5.2,8.58 10.66,8.58 12.48,0 24.44,-10.14 32.5,-10.14 9.62,0 16.9,7.02 16.9,17.16 0,21.06 -30.42,28.86 -46.8,28.86 -32.5,0 -52.26,-22.88 -52.26,-46.02 0,-21.84 11.18,-29.64 31.98,-38.22 22.62,-9.36 31.46,-10.14 31.46,-18.46 0,-4.16 -3.12,-8.06 -11.44,-8.06 -17.42,0 -26.26,11.7 -39,11.7 -9.1,0 -16.64,-8.06 -16.64,-19.5 z m 145.91,-41.08 c -4.68,-10.66 -6.76,-15.34 -6.76,-22.36 0,-6.76 5.46,-18.2 20.02,-18.2 14.04,0 17.42,8.58 22.1,19.24 l 60.06,140.14 c 2.08,4.68 4.94,11.7 4.94,17.68 0,12.48 -8.32,20.54 -20.8,20.54 -11.18,0 -16.9,-9.62 -22.1,-22.1 l -22.62,-55.12 -23.92,61.88 c -3.9,10.14 -10.92,15.34 -20.8,15.34 -10.14,0 -19.76,-7.02 -19.76,-18.98 0,-4.68 3.9,-14.3 8.58,-25.22 l 34.58,-82.42 z m 109.35,41.08 c 0,-17.94 28.6,-28.08 54.08,-28.08 27.82,0 52,16.9 52,45.5 0,44.46 -63.44,40.82 -63.44,56.68 0,5.98 5.2,8.58 10.66,8.58 12.48,0 24.44,-10.14 32.5,-10.14 9.62,0 16.9,7.02 16.9,17.16 0,21.06 -30.42,28.86 -46.8,28.86 -32.5,0 -52.26,-22.88 -52.26,-46.02 0,-21.84 11.18,-29.64 31.98,-38.22 22.62,-9.36 31.46,-10.14 31.46,-18.46 0,-4.16 -3.12,-8.06 -11.44,-8.06 -17.42,0 -26.26,11.7 -39,11.7 -9.1,0 -16.64,-8.06 -16.64,-19.5 z m 139.36,-4.42 c 0,-11.7 8.32,-21.06 20.28,-21.06 11.96,0 20.28,9.36 20.28,21.06 v 81.38 h 11.18 c 13,0 21.32,5.72 21.32,18.72 0,13 -8.32,18.72 -21.32,18.72 h -11.18 v 26.52 c 0,11.7 -8.32,21.06 -20.28,21.06 -11.96,0 -20.28,-9.36 -20.28,-21.06 v -26.52 h -4.68 c -13,0 -21.32,-5.72 -21.32,-18.72 0,-13 8.32,-18.72 21.32,-18.72 h 4.68 z m 194.12,36.4 c 13,0 19.76,3.38 19.76,17.68 0,35.36 -25.74,68.9 -65.78,68.9 -41.6,0 -70.98,-34.32 -70.98,-73.32 0,-40.82 27.3,-73.32 70.98,-73.32 30.68,0 63.7,13 63.7,32.76 0,10.4 -7.8,17.42 -16.9,17.42 -9.36,0 -21.58,-12.74 -41.6,-12.74 -26,0 -32.5,14.04 -32.5,22.62 z m -73.32,27.82 c 0,9.1 10.4,24.44 26.26,24.44 15.86,0 26.26,-15.34 26.26,-24.44 z m 114.73,-64.22 c 0,-11.7 8.32,-21.06 20.28,-21.06 11.96,0 20.28,9.36 20.28,21.06 v 64.22 c 0,12.74 7.02,24.44 20.28,24.44 13.26,0 20.28,-11.7 20.28,-24.44 v -64.22 c 0,-11.7 8.32,-21.06 20.28,-21.06 11.96,0 20.28,9.36 20.28,21.06 v 64.22 c 0,12.74 7.02,24.44 20.28,24.44 13.26,0 20.28,-11.7 20.28,-24.44 v -64.22 c 0,-11.7 8.32,-21.06 20.28,-21.06 11.96,0 20.28,9.36 20.28,21.06 v 75.14 c 0,33.28 -22.36,47.84 -50.44,47.84 -17.42,0 -29.64,-9.36 -39.26,-16.64 -9.88,12.48 -26,16.64 -37.7,16.64 -14.56,0 -28.34,-5.46 -34.84,-15.6 -2.6,5.98 -9.36,13 -20.28,13 -11.96,0 -20.28,-9.36 -20.28,-21.06 z m 223.06,4.42 c 0,-17.94 28.6,-28.08 54.08,-28.08 27.82,0 52,16.9 52,45.5 0,44.46 -63.44,40.82 -63.44,56.68 0,5.98 5.2,8.58 10.66,8.58 12.48,0 24.44,-10.14 32.5,-10.14 9.62,0 16.9,7.02 16.9,17.16 0,21.06 -30.42,28.86 -46.8,28.86 -32.5,0 -52.26,-22.88 -52.26,-46.02 0,-21.84 11.18,-29.64 31.98,-38.22 22.62,-9.36 31.46,-10.14 31.46,-18.46 0,-4.16 -3.12,-8.06 -11.44,-8.06 -17.42,0 -26.26,11.7 -39,11.7 -9.1,0 -16.64,-8.06 -16.64,-19.5" style="fill:#7b7979;fill-opacity:1;fill-rule:nonzero;stroke:none" id="path32"/>
      <path d="m 5566.97,3458.96 22.8,-36.72 c 2.4,-3.84 4.8,-5.28 9.6,-5.28 4.08,0 8.88,1.44 8.88,4.08 0,1.68 -1.44,4.56 -2.4,6 l -21.36,32.64 c 13.68,1.68 24.72,8.88 24.72,27.6 0,21.6 -12.24,28.56 -36.24,28.56 h -31.68 c -3.84,0 -5.52,-1.44 -5.52,-5.04 v -86.16 c 0,-4.8 2.64,-7.68 7.92,-7.68 5.28,0 7.92,2.88 7.92,7.68 v 34.32 z m -15.36,14.4 v 28.08 h 19.68 c 10.32,0 22.08,-0.96 22.08,-12.96 0,-14.16 -11.28,-15.12 -23.52,-15.12 z m 19.92,-92.88 c 48,0 86.88,38.88 86.88,86.88 0,48 -38.88,86.88 -86.88,86.88 -48,0 -86.88,-38.88 -86.88,-86.88 0,-48 38.88,-86.88 86.88,-86.88 z m 0,18.24 c -36.48,0 -67.2,30.72 -67.2,68.64 0,37.92 30.72,68.64 67.2,68.64 36.48,0 67.2,-30.72 67.2,-68.64 0,-37.92 -30.72,-68.64 -67.2,-68.64" style="fill:#7b7979;fill-opacity:1;fill-rule:nonzero;stroke:none" id="path34"/>
    </g>
  </g>
</svg>