<?xml version="1.0" encoding="utf-8"?>
<svg viewBox="261.925 140.955 365.228 74.4" width="365.228" height="74.4" xmlns="http://www.w3.org/2000/svg">
  <path d="m 5348.58,3068.52 c 0,-36 30,-65.25 65.25,-65.25 35.25,0 65.25,29.25 65.25,65.25 0,35.25 -30,65.25 -65.25,65.25 -35.25,0 -65.25,-30 -65.25,-65.25" style="fill:#dd4720;fill-opacity:1;fill-rule:nonzero;stroke:none" id="path16" transform="matrix(0.133333, 0, 0, -0.133333, -127.301674, 615.12439)"/>
  <path d="m 4968.18,3071.02 c 0,-39 29.25,-60.75 60.75,-60.75 h 190.5 c 38.25,0 60.75,22.5 60.75,56.25 0,35.25 -22.5,56.25 -60.75,56.25 h -129.75 v 99.75 h 114.75 c 38.25,0 60.75,21.75 60.75,56.25 0,34.5 -22.5,56.25 -60.75,56.25 h -114.75 v 96.75 h 125.25 c 38.25,0 60.75,21 60.75,56.25 0,33.75 -22.5,56.25 -60.75,56.25 h -186 c -31.5,0 -60.75,-21.75 -60.75,-60.75 v -412.5" style="fill:#7b7979;fill-opacity:1;fill-rule:nonzero;stroke:none" id="path18" transform="matrix(0.133333, 0, 0, -0.133333, -127.301674, 615.12439)"/>
  <path d="m 4756,3068.52 c 0,-36 30,-65.25 65.25,-65.25 35.25,0 65.25,29.25 65.25,65.25 0,35.25 -30,65.25 -65.25,65.25 -35.25,0 -65.25,-30 -65.25,-65.25" style="fill:#dd4720;fill-opacity:1;fill-rule:nonzero;stroke:none" id="path20" transform="matrix(0.133333, 0, 0, -0.133333, -127.301674, 615.12439)"/>
  <path d="m 4313.14,3086.02 c 0,-60 108,-87.75 179.25,-87.75 113.25,0 204,55.5 204,178.5 0,101.25 -63.75,135 -129.75,156.75 -84,27.75 -114,31.5 -114,62.25 0,26.25 22.5,43.5 55.5,43.5 51.75,0 64.5,-20.25 103.5,-20.25 32.25,0 54,24 54,57 0,46.5 -54,80.25 -151.5,80.25 -101.25,0 -192,-54.75 -192,-171 0,-96.75 65.25,-123.75 128.25,-144 69,-22.5 115.5,-30.75 115.5,-71.25 0,-26.25 -17.25,-50.25 -64.5,-50.25 -62.25,0 -101.25,30.75 -131.25,30.75 -36.75,0 -57,-31.5 -57,-64.5" style="fill:#7b7979;fill-opacity:1;fill-rule:nonzero;stroke:none" id="path22" transform="matrix(0.133333, 0, 0, -0.133333, -127.301674, 615.12439)"/>
  <path d="m 4114.76,3068.52 c 0,-36 30,-65.25 65.25,-65.25 35.25,0 65.25,29.25 65.25,65.25 0,35.25 -30,65.25 -65.25,65.25 -35.25,0 -65.25,-30 -65.25,-65.25" style="fill:#dd4720;fill-opacity:1;fill-rule:nonzero;stroke:none" id="path24" transform="matrix(0.133333, 0, 0, -0.133333, -127.301674, 615.12439)"/>
  <path d="m 3813.05,3556.27 c -158.25,0 -262.5,-109.5 -262.5,-279 0,-169.5 104.25,-279 262.5,-279 158.25,0 262.5,109.5 262.5,279 0,169.5 -104.25,279 -262.5,279 z m 0,-112.5 c 93.75,0 132,-81.75 132,-166.5 0,-84.75 -38.25,-166.5 -132,-166.5 -93.75,0 -132,81.75 -132,166.5 0,84.75 38.25,166.5 132,166.5" style="fill:#7b7979;fill-opacity:1;fill-rule:nonzero;stroke:none" id="path26" transform="matrix(0.133333, 0, 0, -0.133333, -127.301674, 615.12439)"/>
  <path d="m 3382.47,3068.52 c 0,-36 30,-65.25 65.25,-65.25 35.25,0 65.25,29.25 65.25,65.25 0,35.25 -30,65.25 -65.25,65.25 -35.25,0 -65.25,-30 -65.25,-65.25" style="fill:#dd4720;fill-opacity:1;fill-rule:nonzero;stroke:none" id="path28" transform="matrix(0.133333, 0, 0, -0.133333, -127.301674, 615.12439)"/>
  <path d="m 2919.2,3070.27 c 0,-42.75 25.5,-64.5 60.75,-64.5 35.25,0 60.75,21.75 60.75,64.5 v 153.75 h 1.5 l 149.25,-188.25 c 15,-18.75 26.25,-30 57.75,-30 46.5,0 62.25,39 62.25,56.25 0,20.25 -9,34.5 -25.5,52.5 l -105.75,114 c 76.5,14.25 124.5,71.25 124.5,150 0,99.75 -70.5,165.75 -178.5,165.75 h -146.25 c -31.5,0 -60.75,-21.75 -60.75,-60.75 z m 121.5,361.5 h 80.25 c 34.5,0 62.25,-21.75 62.25,-57.75 0,-33.75 -22.5,-60 -62.25,-60 h -80.25 v 117.75" style="fill:#7b7979;fill-opacity:1;fill-rule:nonzero;stroke:none" id="path30" transform="matrix(0.133333, 0, 0, -0.133333, -127.301674, 615.12439)"/>
  <path d="m 5566.97,3458.96 22.8,-36.72 c 2.4,-3.84 4.8,-5.28 9.6,-5.28 4.08,0 8.88,1.44 8.88,4.08 0,1.68 -1.44,4.56 -2.4,6 l -21.36,32.64 c 13.68,1.68 24.72,8.88 24.72,27.6 0,21.6 -12.24,28.56 -36.24,28.56 h -31.68 c -3.84,0 -5.52,-1.44 -5.52,-5.04 v -86.16 c 0,-4.8 2.64,-7.68 7.92,-7.68 5.28,0 7.92,2.88 7.92,7.68 v 34.32 z m -15.36,14.4 v 28.08 h 19.68 c 10.32,0 22.08,-0.96 22.08,-12.96 0,-14.16 -11.28,-15.12 -23.52,-15.12 z m 19.92,-92.88 c 48,0 86.88,38.88 86.88,86.88 0,48 -38.88,86.88 -86.88,86.88 -48,0 -86.88,-38.88 -86.88,-86.88 0,-48 38.88,-86.88 86.88,-86.88 z m 0,18.24 c -36.48,0 -67.2,30.72 -67.2,68.64 0,37.92 30.72,68.64 67.2,68.64 36.48,0 67.2,-30.72 67.2,-68.64 0,-37.92 -30.72,-68.64 -67.2,-68.64" style="fill:#7b7979;fill-opacity:1;fill-rule:nonzero;stroke:none" id="path34" transform="matrix(0.133333, 0, 0, -0.133333, -127.301674, 615.12439)"/>
</svg>