<svg xmlns="http://www.w3.org/2000/svg" width="24" height="23" viewBox="0 0 24 24">
  <g transform="translate(0 -0.5)">
    <path class="icon-path"
      d="M13.5,17.5h0a1,1,0,0,0-1,1h0V21h0a.5.5,0,0,1-.5.5H2.5A.5.5,0,0,1,2,21H2V3H2a.5.5,0,0,1,.5-.5H12a.5.5,0,0,1,.5.5V5.5h0a1,1,0,0,0,2,0v-3h0a2,2,0,0,0-2-2H2a2,2,0,0,0-2,2H0v19H0a2,2,0,0,0,2,2H12.5a2,2,0,0,0,2-2v-3h0a1,1,0,0,0-1-1Z" />
    <path class="icon-path"
      d="M23.555,11.669l-6-4h0A1,1,0,0,0,16,8.5V11H7a1.5,1.5,0,0,0,0,3h9v2.5h0a1.014,1.014,0,0,0,1,1h0a1,1,0,0,0,.555-.168l6-4h0a1,1,0,0,0,0-1.664Z" />
  </g>
</svg>
