<svg xmlns="http://www.w3.org/2000/svg" width="224.08" height="81.154" viewBox="0 0 224.08 81.154">
  <g id="Gruppe_6859" data-name="Gruppe 6859" transform="translate(-295.968 -16.247)">
    <path id="Pfad_7" data-name="Pfad 7" d="M814.705,176.958a2.533,2.533,0,0,0-2.547-2.645,2.635,2.635,0,0,0-2.384,1.632,5.081,5.081,0,0,0-4.375-1.959c-4.441,0-7.87,4.082-7.87,9.208,0,4.6,2.449,8.882,7.38,8.882a5.364,5.364,0,0,0,4.637-1.959h.065c0,2.841-1.078,4.506-4.245,4.506-2.972,0-3.919-1.5-5.388-1.5a2.351,2.351,0,0,0-2.122,2.221c0,2.775,4.963,3.788,7.608,3.788,5,0,9.241-2.449,9.241-8.948V176.958Zm-5.094,6.237c0,2.482-1.241,4.376-3.494,4.376s-3.494-1.894-3.494-4.376c0-2.351,1.241-4.31,3.494-4.31s3.494,1.96,3.494,4.31Zm8.879,6.237a2.549,2.549,0,1,0,5.095,0v-8.066c0-1.6.882-3.07,2.547-3.07s2.547,1.47,2.547,3.07v8.066a2.549,2.549,0,1,0,5.094,0v-8.066c0-1.6.882-3.07,2.547-3.07s2.547,1.47,2.547,3.07v8.066a2.549,2.549,0,1,0,5.094,0v-9.437c0-4.18-2.808-6.008-6.336-6.008a7.994,7.994,0,0,0-4.93,2.09,6.117,6.117,0,0,0-4.734-2.09,5.14,5.14,0,0,0-4.376,1.959,2.746,2.746,0,0,0-2.547-1.632,2.533,2.533,0,0,0-2.547,2.645v12.474Zm29.261,0a2.533,2.533,0,0,0,2.547,2.645,2.635,2.635,0,0,0,2.385-1.633,5.079,5.079,0,0,0,4.374,1.96c4.441,0,7.87-4.081,7.87-9.209s-3.429-9.208-7.87-9.208a5.954,5.954,0,0,0-4.212,1.437v-6.041a2.549,2.549,0,1,0-5.094,0v20.05Zm8.588-10.548c2.253,0,3.495,1.96,3.495,4.31s-1.242,4.31-3.495,4.31-3.494-1.959-3.494-4.31,1.242-4.31,3.494-4.31Zm11.6,10.548a2.549,2.549,0,1,0,5.094,0v-8.066a2.82,2.82,0,1,1,5.618,0v8.066a2.549,2.549,0,1,0,5.094,0v-9.437c0-4.18-2.808-6.008-6.336-6.008a7.669,7.669,0,0,0-4.309,1.273h-.067v-5.878a2.549,2.549,0,1,0-5.094,0v20.05Z" transform="translate(-363.701 -109.126)" fill="#5d5d61"/>
    <path id="Pfad_8" data-name="Pfad 8" d="M680.887,66.436a25.094,25.094,0,1,0-25.095-25.094,25.094,25.094,0,0,0,25.095,25.094Z" transform="translate(-260.922)" fill="#d94d15"/>
    <path id="Pfad_9" data-name="Pfad 9" d="M601.865,167.2a27.349,27.349,0,1,0-27.348-27.349A27.348,27.348,0,0,0,601.865,167.2Z" transform="translate(-201.987 -69.798)" fill="#d94d15"/>
    <path id="Pfad_10" data-name="Pfad 10" d="M615.154,191.98l8.457-11.266c1.5-1.992,2.482-3.331,2.482-4.441,0-.914-.424-2.645-3.233-2.645H611.5c-1.829,0-2.809.98-2.809,2.351s.98,2.351,2.809,2.351h7.8l-9.992,13.323a3.639,3.639,0,0,0-.98,2.318c0,1.731.882,2.907,3.723,2.907h11.723c1.829,0,2.808-.98,2.808-2.449s-.98-2.449-2.808-2.449Zm18.28,2.286a2.65,2.65,0,1,0,5.29,0V178.526H641.7c1.763,0,2.743-.98,2.743-2.449,0-1.535-.98-2.449-2.743-2.449H630.462c-1.764,0-2.743.914-2.743,2.449,0,1.469.979,2.449,2.743,2.449h2.972v15.739Z" transform="translate(-226.505 -114.123)" fill="#fff"/>
    <path id="Pfad_11" data-name="Pfad 11" d="M295.968,189.432a2.549,2.549,0,1,0,5.094,0v-5.747h.065l5.094,6.662c1.078,1.372,1.6,1.731,2.776,1.731a2.391,2.391,0,0,0,2.514-2.351,4.384,4.384,0,0,0-1.208-2.253l-4.278-5.42,2.743-2.71c1.208-1.176,1.8-1.763,1.8-2.678a2.373,2.373,0,0,0-2.482-2.351c-1.241,0-1.992.881-2.874,1.763l-4.147,4.147V169.382a2.549,2.549,0,1,0-5.094,0v20.05Zm17.114,7.053a2.549,2.549,0,1,0,5.094,0v-5.519a5.949,5.949,0,0,0,4.213,1.437c4.441,0,7.869-4.081,7.869-9.209s-3.429-9.208-7.869-9.208a5.083,5.083,0,0,0-4.376,1.959,2.634,2.634,0,0,0-2.384-1.632,2.533,2.533,0,0,0-2.547,2.645v19.528Zm8.588-8.98c-2.253,0-3.494-1.959-3.494-4.31s1.241-4.31,3.494-4.31,3.494,1.96,3.494,4.31-1.241,4.31-3.494,4.31Zm10.579,8.98a2.549,2.549,0,1,0,5.095,0v-5.519a5.948,5.948,0,0,0,4.212,1.437c4.441,0,7.87-4.081,7.87-9.209s-3.429-9.208-7.87-9.208a5.082,5.082,0,0,0-4.375,1.959,2.634,2.634,0,0,0-2.384-1.632,2.533,2.533,0,0,0-2.547,2.645v19.528Zm8.588-8.98c-2.253,0-3.494-1.959-3.494-4.31s1.24-4.31,3.494-4.31,3.494,1.96,3.494,4.31-1.241,4.31-3.494,4.31Zm10.625,1.927a2.549,2.549,0,1,0,5.094,0v-5.747h.065l5.094,6.662c1.078,1.372,1.6,1.731,2.776,1.731a2.391,2.391,0,0,0,2.514-2.351,4.386,4.386,0,0,0-1.208-2.253l-4.278-5.42,2.743-2.71c1.208-1.176,1.8-1.763,1.8-2.678a2.373,2.373,0,0,0-2.482-2.351c-1.241,0-1.992.881-2.874,1.763l-4.147,4.147V169.382a2.549,2.549,0,1,0-5.094,0v20.05Z" transform="translate(0 -109.126)" fill="#5d5d61"/>
    <path id="Pfad_12" data-name="Pfad 12" d="M738.743,58.712h-3.272a1.047,1.047,0,0,0-.529.205l-.941.868-.8.447h.894l.528.528a.446.446,0,0,0,.4.188h.679l-1.3,4.771s-.218.443.243.443h4.721c.2,0,.265-.406.265-.406l-.885-7.044Z" transform="translate(-317.052 -30.793)" fill="#fff"/>
    <path id="Pfad_13" data-name="Pfad 13" d="M691.415,64.348,692,65.654a.344.344,0,0,0,.329.211h6.043v-1.7h-6.761c-.232,0-.2.185-.2.185Z" transform="translate(-286.753 -34.746)" fill="#fff"/>
    <path id="Pfad_14" data-name="Pfad 14" d="M687.755,73.979c.126.187.71.968.889,1.194a.452.452,0,0,0,.391.2h6.7V73.811h-7.828s-.28-.018-.153.169Z" transform="translate(-284.076 -41.741)" fill="#fff"/>
    <path id="Pfad_15" data-name="Pfad 15" d="M683.129,83.109c.213.184,1.8,1.643,2.068,1.847a.606.606,0,0,0,.494.141l6.67-1.291v-.869h-9.036s-.409-.011-.2.173Z" transform="translate(-280.701 -48.358)" fill="#fff"/>
    <path id="Pfad_16" data-name="Pfad 16" d="M692.4,89.756l.433.541-8.76,3.933a.415.415,0,0,1-.5-.113c-.179-.2-1.194-1.366-1.632-1.867-.123-.142.1-.294.1-.294l10.366-2.2Z" transform="translate(-279.85 -53.304)" fill="#fff"/>
    <path id="Pfad_17" data-name="Pfad 17" d="M694.219,92.333l-11.456,5.9s-.368.156-.136.337,1.566,1.174,1.846,1.351a.6.6,0,0,0,.577.009l10.615-7.6Z" transform="translate(-280.326 -55.173)" fill="#fff"/>
    <path id="Pfad_18" data-name="Pfad 18" d="M688.448,104.664c.375.051,2.779.518,2.779.518s.235.121.625-.2,8.877-9.537,8.877-9.537l.039-1.033-12.307,9.859s-.388.346-.013.4Z" transform="translate(-284.484 -56.678)" fill="#fff"/>
    <path id="Pfad_19" data-name="Pfad 19" d="M715.873,107.3l9.408,10.067s.193.333,0,.333h-3.295a.651.651,0,0,1-.642-.337l-2.019-3.038-1.968-.168-2.558-2.686-.472.246,3.059,9.447s.314.884-.3.884H707.1c-.671,0-.421-.7-.421-.7l3.118-9.63-.472-.246-2.558,2.686-1.968.168-2.059,3.1a.5.5,0,0,1-.456.277h-3.394c-.342,0,.019-.4.019-.4l9.352-10.006h.009a3.8,3.8,0,0,0,2.708,3.486l-1.22,4.838h1.122l.481-4.731a3.82,3.82,0,0,0,.709.07,3.779,3.779,0,0,0,.69-.068l.481,4.729h1.122l-1.218-4.833a3.8,3.8,0,0,0,2.724-3.482Z" transform="translate(-292.071 -66.02)" fill="#fff"/>
    <path id="Pfad_20" data-name="Pfad 20" d="M742.365,92.92v-4.7a.4.4,0,0,0-.3-.4h-5.294s-.35-.025-.35.291v4.8h.012a2.961,2.961,0,0,0,5.919,0Z" transform="translate(-319.391 -51.903)" fill="#fff"/>
    <path id="Pfad_21" data-name="Pfad 21" d="M720.992,64.282h-.522v4.8h.02v0a2.376,2.376,0,0,0,2.342,2.374v0h1.394s.016-.266.016-.452-.219-.236-.219-.236h-1.192v.016a1.706,1.706,0,0,1-1.672-1.705v0h0V64.552a.323.323,0,0,0-.167-.27Z" transform="translate(-307.823 -34.832)" fill="#fff"/>
    <path id="Pfad_22" data-name="Pfad 22" d="M784.4,64.348l-.587,1.306a.344.344,0,0,1-.329.211h-6.043v-1.7h6.761c.232,0,.2.185.2.185Z" transform="translate(-349.138 -34.746)" fill="#fff"/>
    <path id="Pfad_23" data-name="Pfad 23" d="M785.284,73.979c-.126.187-.71.968-.889,1.194a.451.451,0,0,1-.391.2h-6.7V73.811h7.828s.279-.018.153.169Z" transform="translate(-349.035 -41.741)" fill="#fff"/>
    <path id="Pfad_24" data-name="Pfad 24" d="M786.535,83.109c-.213.184-1.8,1.643-2.068,1.847a.606.606,0,0,1-.494.141l-6.67-1.291v-.869h9.036s.409-.011.2.173Z" transform="translate(-349.035 -48.358)" fill="#fff"/>
    <path id="Pfad_25" data-name="Pfad 25" d="M772.939,89.756l-.433.541,8.76,3.933a.415.415,0,0,0,.5-.113c.179-.2,1.195-1.366,1.633-1.867.123-.142-.1-.294-.1-.294l-10.366-2.2Z" transform="translate(-345.556 -53.304)" fill="#fff"/>
    <path id="Pfad_26" data-name="Pfad 26" d="M765.362,92.333l11.456,5.9s.368.156.136.337-1.566,1.174-1.846,1.351a.6.6,0,0,1-.577.009l-10.616-7.6Z" transform="translate(-339.327 -55.173)" fill="#fff"/>
    <path id="Pfad_27" data-name="Pfad 27" d="M772.8,104.664c-.375.051-2.779.518-2.779.518s-.234.121-.624-.2-8.877-9.537-8.877-9.537l-.039-1.033,12.307,9.859s.388.346.013.4Z" transform="translate(-336.835 -56.678)" fill="#fff"/>
    <path id="Pfad_28" data-name="Pfad 28" d="M763.239,64.282h.522v4.8h-.02v0a2.376,2.376,0,0,1-2.342,2.374v0h-1.393s-.017-.266-.017-.452.219-.236.219-.236H761.4v.016a1.707,1.707,0,0,0,1.673-1.705v0h0V64.552a.323.323,0,0,1,.167-.27Z" transform="translate(-336.48 -34.832)" fill="#fff"/>
    <path id="Pfad_29" data-name="Pfad 29" d="M742.6,54.714h1.377V54.1l-.374.334h-.669l-.315-.334-.02.61Z" transform="translate(-323.872 -27.452)" fill="#fff"/>
    <path id="Pfad_30" data-name="Pfad 30" d="M748.99,54.714h-1.378V54.1l.374.334h.669l.315-.334.02.61Z" transform="translate(-327.505 -27.452)" fill="#fff"/>
    <path id="Pfad_31" data-name="Pfad 31" d="M712.25,134.681h.889v.834h-1l.111-.834Z" transform="translate(-301.781 -85.881)" fill="#fff"/>
    <path id="Pfad_32" data-name="Pfad 32" d="M776.957,133.343h1.056l-.111,1h-.945v-1Z" transform="translate(-348.784 -84.911)" fill="#fff"/>
  </g>
</svg>
