<svg xmlns="http://www.w3.org/2000/svg" viewBox="0 0 1275.47 690"><defs><style>.cls-1{fill:#a2b819;}.cls-2{fill:#fff;}.cls-3{fill:none;stroke:#fff;stroke-linecap:round;stroke-linejoin:round;stroke-width:6px;}</style></defs><g id="Ebene_1" data-name="Ebene 1"><rect class="cls-1" width="1275.47" height="690"/></g><g id="Ebene_2" data-name="Ebene 2"><path class="cls-2" d="M203.62,131.7h0l-1.54,16.92a1.54,1.54,0,0,0,1.54,1.54h0a1.54,1.54,0,0,0,1.54-1.54Z"/><path class="cls-2" d="M203.62,269.75a184.81,184.81,0,0,1-40-4.85,9.69,9.69,0,0,0-1.39-.22,9.49,9.49,0,0,1-8.39-9.43V122.76a9.49,9.49,0,0,1,8.39-9.43c.55-.07,1-.13,1.39-.22a178.76,178.76,0,0,1,79.89,0,13,13,0,0,0,1.39.21h0a9.49,9.49,0,0,1,8.39,9.43V255.25a9.49,9.49,0,0,1-8.39,9.43,9.69,9.69,0,0,0-1.39.22A184.9,184.9,0,0,1,203.62,269.75Zm0-155.4A176.64,176.64,0,0,0,165,118.72a18.28,18.28,0,0,1-2.06.33,3.73,3.73,0,0,0-3.29,3.71V255.25A3.73,3.73,0,0,0,163,259a16.6,16.6,0,0,1,2.06.34,178.65,178.65,0,0,0,38.61,4.7,178.85,178.85,0,0,0,38.61-4.7,16.6,16.6,0,0,1,2.06-.34,3.72,3.72,0,0,0,3.29-3.7V122.76a3.72,3.72,0,0,0-3.29-3.71,19,19,0,0,1-2.06-.33A176.52,176.52,0,0,0,203.62,114.35Zm0,128.3a19.28,19.28,0,0,1-19.25-19.25c0-9.51,15-36.48,16.74-39.53l2.43-4.31,2.55,4.24c1.72,2.86,16.77,28.26,16.77,39.6C222.86,234.91,215.13,242.65,203.62,242.65Zm.07-51.5c-6,11.22-13.55,27-13.55,32.25a13.49,13.49,0,0,0,13.48,13.48c3.16,0,13.48-1,13.48-13.48C217.1,216.44,208.91,200.43,203.69,191.15Zm-.07-29.89a18,18,0,1,1,18-18A18,18,0,0,1,203.62,161.26Zm0-30.21a12.22,12.22,0,1,0,12.22,12.22A12.24,12.24,0,0,0,203.62,131.05Z"/><path class="cls-2" d="M199,231.2,203.9,218l4.66,13.29c2.74-1.44,4.57-4.24,4.57-8.38,0-6.32-9.51-22.16-9.51-22.16h0s-9.51,16.91-9.51,22.16A9.52,9.52,0,0,0,199,231.2Z"/><path class="cls-2" d="M203.62,282.09c-11.81,0-22.56-5.76-27.39-14.69l-2.75-5.09,5.72.87a164.33,164.33,0,0,0,24.42,2,164.21,164.21,0,0,0,24.41-2l5.72-.87L231,267.4C226.18,276.33,215.43,282.09,203.62,282.09Zm-18.2-12.27a28.68,28.68,0,0,0,36.39,0,151,151,0,0,1-36.39,0Z"/><path class="cls-2" d="M1106.94,260.71h-52.75a3.52,3.52,0,1,1,0-7h49.22V182.09l-49.22-57.59L1005,182.09v71.58h29.11a3.52,3.52,0,0,1,0,7h-32.63a3.53,3.53,0,0,1-3.52-3.52v-76.4a3.53,3.53,0,0,1,.84-2.29l52.75-61.71a3.53,3.53,0,0,1,5.36,0l52.75,61.71a3.53,3.53,0,0,1,.84,2.29v76.4A3.53,3.53,0,0,1,1106.94,260.71Z"/><path class="cls-2" d="M1067.86,233.84a3.52,3.52,0,0,1-1.54-6.69c.06,0,7.25-3.64,8.2-9.43.58-3.49-1.25-7.37-5.44-11.56-6.25-6.25-9.07-12.59-8.36-18.83,1-8.74,8.66-13.63,9-13.83a3.52,3.52,0,0,1,3.76,6c-.08,0-5.17,3.38-5.74,8.72-.43,4,1.7,8.36,6.34,13,5.9,5.9,8.39,11.87,7.41,17.73-1.58,9.38-11.65,14.37-12.08,14.58A3.49,3.49,0,0,1,1067.86,233.84Z"/><path class="cls-2" d="M1051.19,233.84a3.52,3.52,0,0,1-1.54-6.69c.06,0,7.25-3.64,8.2-9.43.57-3.49-1.26-7.37-5.44-11.56-6.26-6.25-9.07-12.59-8.36-18.83,1-8.74,8.66-13.63,9-13.83a3.52,3.52,0,1,1,3.75,6c-.1.07-5.16,3.4-5.73,8.72-.43,4,1.7,8.36,6.34,13,5.9,5.9,8.39,11.87,7.4,17.73-1.57,9.38-11.64,14.37-12.07,14.58A3.49,3.49,0,0,1,1051.19,233.84Z"/><path class="cls-2" d="M1034.52,233.84a3.52,3.52,0,0,1-1.55-6.69c.07,0,7.25-3.64,8.21-9.43.57-3.49-1.26-7.37-5.44-11.56-6.26-6.25-9.07-12.59-8.36-18.83,1-8.74,8.65-13.63,9-13.83a3.52,3.52,0,1,1,3.75,6c-.08,0-5.16,3.38-5.74,8.72-.43,4,1.71,8.36,6.35,13,5.9,5.9,8.39,11.87,7.4,17.73-1.58,9.38-11.64,14.37-12.07,14.58A3.49,3.49,0,0,1,1034.52,233.84Z"/><path class="cls-2" d="M1054.19,282.46a3.51,3.51,0,0,1-3.52-3.52V247.13a3.52,3.52,0,0,1,7,0v31.81A3.51,3.51,0,0,1,1054.19,282.46Z"/><path class="cls-2" d="M1128.29,282.74h-90a3.53,3.53,0,0,1,0-7.05h90a3.53,3.53,0,0,1,0,7.05Z"/><path class="cls-2" d="M228.71,568.06a3.52,3.52,0,0,1-1.27-6.81c1.92-.75,6-3.13,6.4-5.65.24-1.65-1.24-3.86-4.19-6.2-5.49-4.38-8-8.95-7.54-13.59.71-6.68,7.4-10.21,8.16-10.58a3.52,3.52,0,0,1,3.16,6.29c-1.12.58-4.07,2.6-4.31,5.05-.21,2,1.54,4.63,4.92,7.32,5.15,4.1,7.43,8.41,6.76,12.78-1.1,7.2-9.83,10.77-10.82,11.15A3.57,3.57,0,0,1,228.71,568.06Z"/><path class="cls-2" d="M209.26,568.06a3.52,3.52,0,0,1-1.28-6.81c1.92-.75,6-3.13,6.4-5.65.25-1.65-1.24-3.86-4.19-6.2-5.49-4.38-8-8.95-7.53-13.59.7-6.68,7.39-10.21,8.16-10.58a3.52,3.52,0,0,1,3.16,6.29c-1.12.58-4.07,2.6-4.32,5.05-.2,2,1.55,4.63,4.92,7.32,5.16,4.1,7.43,8.41,6.76,12.78-1.1,7.2-9.82,10.77-10.81,11.15A3.57,3.57,0,0,1,209.26,568.06Z"/><path class="cls-2" d="M189.8,568.06a3.52,3.52,0,0,1-1.27-6.81c1.92-.75,6-3.13,6.4-5.65.24-1.65-1.24-3.86-4.19-6.2-5.49-4.38-8-8.95-7.54-13.59.71-6.68,7.4-10.21,8.16-10.58a3.52,3.52,0,0,1,3.16,6.29c-1.12.58-4.07,2.6-4.31,5.05-.2,2,1.54,4.63,4.92,7.32,5.15,4.1,7.43,8.41,6.76,12.78-1.1,7.2-9.83,10.77-10.82,11.15A3.57,3.57,0,0,1,189.8,568.06Z"/><path class="cls-2" d="M250.47,518.62H173.59a3.52,3.52,0,0,1-3.52-3.53V459.42a3.55,3.55,0,0,1,.84-2.29l38.44-45a3.53,3.53,0,0,1,5.36,0l38.43,45a3.51,3.51,0,0,1,.85,2.29v55.67A3.53,3.53,0,0,1,250.47,518.62Zm-73.36-7.05h69.83V460.72L212,419.87l-34.92,40.85Z"/><path class="cls-2" d="M274.65,518.62H149.4a3.53,3.53,0,0,1,0-7.05H274.65a3.53,3.53,0,1,1,0,7.05Z"/><path class="cls-2" d="M417.3,167.4a15.23,15.23,0,1,1,10.77-26h0a15.23,15.23,0,0,1-10.77,26Zm0-25.34a10.11,10.11,0,1,0,7.15,3A10.09,10.09,0,0,0,417.3,142.06Z"/><path class="cls-2" d="M417.3,131a2.57,2.57,0,0,1-2.57-2.56V115.72a2.57,2.57,0,0,1,5.13,0V128.4A2.56,2.56,0,0,1,417.3,131Z"/><path class="cls-2" d="M417.3,191.18a2.57,2.57,0,0,1-2.57-2.56V175.94a2.57,2.57,0,0,1,5.13,0v12.68A2.56,2.56,0,0,1,417.3,191.18Z"/><path class="cls-2" d="M400.5,137.93a2.54,2.54,0,0,1-1.81-.75l-9-9a2.56,2.56,0,1,1,3.62-3.62l9,9a2.56,2.56,0,0,1-1.81,4.37Z"/><path class="cls-2" d="M443.06,180.5a2.56,2.56,0,0,1-1.81-.75l-9-9a2.56,2.56,0,0,1,3.62-3.62l9,9a2.57,2.57,0,0,1,0,3.63A2.54,2.54,0,0,1,443.06,180.5Z"/><path class="cls-2" d="M393.53,154.73H380.85a2.56,2.56,0,0,1,0-5.12h12.68a2.56,2.56,0,1,1,0,5.12Z"/><path class="cls-2" d="M453.74,154.73H441.07a2.56,2.56,0,1,1,0-5.12h12.67a2.56,2.56,0,1,1,0,5.12Z"/><path class="cls-2" d="M391.53,180.5a2.54,2.54,0,0,1-1.81-.75,2.57,2.57,0,0,1,0-3.63l9-9a2.56,2.56,0,0,1,3.62,3.62l-9,9A2.56,2.56,0,0,1,391.53,180.5Z"/><path class="cls-2" d="M434.09,137.93a2.56,2.56,0,0,1-1.81-4.37l9-9a2.56,2.56,0,0,1,3.62,3.62l-9,9A2.54,2.54,0,0,1,434.09,137.93Z"/><path class="cls-2" d="M389.16,232.56a2.57,2.57,0,0,1-1.82-.75l-10.16-10.16a2.56,2.56,0,0,1,3.63-3.62l8.35,8.35L397.5,218a2.56,2.56,0,0,1,3.63,3.62L391,231.81A2.56,2.56,0,0,1,389.16,232.56Z"/><path class="cls-2" d="M389.16,232.55a2.56,2.56,0,0,1-2.57-2.56V189.87a2.57,2.57,0,0,1,5.13,0V230A2.56,2.56,0,0,1,389.16,232.55Z"/><path class="cls-2" d="M417.3,232.56a2.56,2.56,0,0,1-1.81-.75l-10.16-10.16A2.56,2.56,0,0,1,409,218l8.35,8.35,8.35-8.35a2.56,2.56,0,0,1,3.63,3.62l-10.17,10.16A2.54,2.54,0,0,1,417.3,232.56Z"/><path class="cls-2" d="M417.3,232.55a2.56,2.56,0,0,1-2.56-2.56V189.87a2.56,2.56,0,0,1,5.12,0V230A2.55,2.55,0,0,1,417.3,232.55Z"/><path class="cls-2" d="M445.51,232.56a2.54,2.54,0,0,1-1.81-.75l-10.16-10.16a2.56,2.56,0,0,1,3.62-3.62l8.35,8.35,8.35-8.35a2.56,2.56,0,0,1,3.62,3.62l-10.16,10.16A2.56,2.56,0,0,1,445.51,232.56Z"/><path class="cls-2" d="M445.51,232.55A2.55,2.55,0,0,1,443,230V189.87a2.56,2.56,0,0,1,5.12,0V230A2.56,2.56,0,0,1,445.51,232.55Z"/><path class="cls-2" d="M486.62,272.47H351.12a2.57,2.57,0,0,1-2.57-2.57v-4.39a2.57,2.57,0,1,1,5.13,0v1.83H484.06v-1.61a2.56,2.56,0,0,1,5.12,0v4.17A2.56,2.56,0,0,1,486.62,272.47Z"/><path class="cls-2" d="M351.12,252.05a2.57,2.57,0,0,1-2.57-2.56v-5.82a2.57,2.57,0,0,1,2.57-2.56h135.5a2.56,2.56,0,0,1,2.56,2.56V249a2.56,2.56,0,0,1-5.12,0v-2.76H353.68v3.25A2.56,2.56,0,0,1,351.12,252.05Z"/><path class="cls-2" d="M494.23,281.77H343.63a2.55,2.55,0,0,1-2.56-2.56V257.26a2.56,2.56,0,0,1,2.56-2.56h14a2.56,2.56,0,0,1,0,5.12H346.19v16.83h148a2.56,2.56,0,0,1,0,5.12Z"/><path class="cls-2" d="M494.23,259.82h-14a2.56,2.56,0,0,1,0-5.12h14a2.56,2.56,0,0,1,0,5.12Z"/><path class="cls-2" d="M363.3,264.57a7.66,7.66,0,1,1,7.65-7.66A7.67,7.67,0,0,1,363.3,264.57Zm0-10.19a2.53,2.53,0,1,0,2.53,2.53A2.53,2.53,0,0,0,363.3,254.38Z"/><path class="cls-2" d="M381.63,264.57a7.66,7.66,0,1,1,7.65-7.66A7.66,7.66,0,0,1,381.63,264.57Zm0-10.19a2.53,2.53,0,1,0,2.53,2.53A2.54,2.54,0,0,0,381.63,254.38Z"/><path class="cls-2" d="M400,264.57a7.66,7.66,0,1,1,7.65-7.66A7.67,7.67,0,0,1,400,264.57Zm0-10.19a2.53,2.53,0,1,0,2.53,2.53A2.53,2.53,0,0,0,400,254.38Z"/><path class="cls-2" d="M418.3,264.57a7.66,7.66,0,1,1,7.65-7.66A7.66,7.66,0,0,1,418.3,264.57Zm0-10.19a2.53,2.53,0,1,0,2.53,2.53A2.54,2.54,0,0,0,418.3,254.38Z"/><path class="cls-2" d="M436.64,264.57a7.66,7.66,0,1,1,7.65-7.66A7.67,7.67,0,0,1,436.64,264.57Zm0-10.19a2.53,2.53,0,1,0,2.53,2.53A2.53,2.53,0,0,0,436.64,254.38Z"/><path class="cls-2" d="M455,264.57a7.66,7.66,0,1,1,7.65-7.66A7.66,7.66,0,0,1,455,264.57Zm0-10.19a2.53,2.53,0,1,0,2.53,2.53A2.54,2.54,0,0,0,455,254.38Z"/><path class="cls-2" d="M473.31,264.57a7.66,7.66,0,1,1,7.65-7.66A7.67,7.67,0,0,1,473.31,264.57Zm0-10.19a2.53,2.53,0,1,0,2.53,2.53A2.53,2.53,0,0,0,473.31,254.38Z"/><path class="cls-3" d="M583,277.07c-3,0-4.88-1-4.23-2.25q11.07-21.45,22.13-42.9a5.11,5.11,0,0,1,4.24-2.26H663.4a5.09,5.09,0,0,1,4.23,2.26l22.14,42.9c.64,1.24-1.26,2.25-4.24,2.25Z"/><path class="cls-3" d="M617.83,231.59l-11.1,43.55"/><path class="cls-3" d="M634.24,231.59v43.55"/><path class="cls-3" d="M650.65,231.59l11.1,43.55"/><path class="cls-3" d="M669.52,241.65H599"/><path class="cls-3" d="M675.07,253.37H593.41"/><path class="cls-3" d="M680.63,265.08H587.86"/><path class="cls-2" d="M634.52,164.46a13.93,13.93,0,1,1,9.86-4.08A13.9,13.9,0,0,1,634.52,164.46Zm0-22.75a8.81,8.81,0,1,0,6.24,2.58A8.8,8.8,0,0,0,634.52,141.71Z"/><path class="cls-2" d="M634.52,131.74a2.56,2.56,0,0,1-2.56-2.56V117.8a2.56,2.56,0,1,1,5.12,0v11.38A2.56,2.56,0,0,1,634.52,131.74Z"/><path class="cls-2" d="M634.52,185.81a2.56,2.56,0,0,1-2.56-2.56V171.86a2.56,2.56,0,0,1,5.12,0v11.39A2.56,2.56,0,0,1,634.52,185.81Z"/><path class="cls-2" d="M619.44,138a2.54,2.54,0,0,1-1.81-.75l-8.06-8.05a2.57,2.57,0,1,1,3.63-3.63l8,8.06a2.56,2.56,0,0,1-1.81,4.37Z"/><path class="cls-2" d="M657.66,176.22a2.57,2.57,0,0,1-1.82-.75l-8.05-8.06a2.56,2.56,0,1,1,3.62-3.62l8.06,8.05a2.57,2.57,0,0,1-1.81,4.38Z"/><path class="cls-2" d="M613.18,153.08H601.8a2.56,2.56,0,1,1,0-5.12h11.38a2.56,2.56,0,1,1,0,5.12Z"/><path class="cls-2" d="M667.25,153.08H655.86a2.56,2.56,0,0,1,0-5.12h11.39a2.56,2.56,0,0,1,0,5.12Z"/><path class="cls-2" d="M611.39,176.22a2.57,2.57,0,0,1-1.82-4.38l8.06-8.05a2.56,2.56,0,1,1,3.62,3.62l-8,8.06A2.56,2.56,0,0,1,611.39,176.22Z"/><path class="cls-2" d="M649.6,138a2.56,2.56,0,0,1-1.81-4.37l8.05-8.06a2.57,2.57,0,0,1,3.63,3.63l-8.06,8.05A2.54,2.54,0,0,1,649.6,138Z"/><path class="cls-2" d="M609.26,220a2.58,2.58,0,0,1-1.82-.76l-9.12-9.12a2.56,2.56,0,0,1,3.62-3.62l7.32,7.31,7.31-7.31a2.56,2.56,0,1,1,3.62,3.62l-9.12,9.12A2.57,2.57,0,0,1,609.26,220Z"/><path class="cls-2" d="M609.26,220a2.57,2.57,0,0,1-2.57-2.56v-36a2.57,2.57,0,0,1,5.13,0v36A2.56,2.56,0,0,1,609.26,220Z"/><path class="cls-2" d="M634.53,220a2.55,2.55,0,0,1-1.81-.76l-9.13-9.12a2.56,2.56,0,1,1,3.63-3.62l7.31,7.31,7.31-7.31a2.56,2.56,0,1,1,3.62,3.62l-9.12,9.12A2.57,2.57,0,0,1,634.53,220Z"/><path class="cls-2" d="M634.53,220a2.56,2.56,0,0,1-2.56-2.56v-36a2.56,2.56,0,0,1,5.12,0v36A2.56,2.56,0,0,1,634.53,220Z"/><path class="cls-2" d="M659.85,220a2.57,2.57,0,0,1-1.81-.76l-9.12-9.12a2.56,2.56,0,0,1,3.62-3.62l7.31,7.31,7.31-7.31a2.56,2.56,0,0,1,3.63,3.62l-9.13,9.12A2.55,2.55,0,0,1,659.85,220Z"/><path class="cls-2" d="M659.85,220a2.56,2.56,0,0,1-2.56-2.56v-36a2.56,2.56,0,1,1,5.12,0v36A2.56,2.56,0,0,1,659.85,220Z"/><path class="cls-2" d="M849.12,224.52a29.74,29.74,0,0,1-29.71-29.71c0-14.95,23.91-57.88,26.64-62.72a3.51,3.51,0,0,1,3.06-1.8c2,0,2.62,1,4.17,3.65.66,1.13,1.72,3,3,5.23,2.25,4,5.66,10.22,9.08,17,8.93,17.84,13.46,30.83,13.46,38.6,0,9.22-3,16.9-8.8,22.21C864.7,221.93,857.47,224.52,849.12,224.52Zm.09-83.55c-2.53,4.68-6.34,11.89-10.1,19.63-11,22.63-12.66,31.15-12.66,34.21a22.69,22.69,0,0,0,22.66,22.66h0c11,0,22.66-5.95,22.66-22.66C871.78,183,857.54,155.57,849.21,141Z"/><path class="cls-2" d="M841.79,207.28l7.77-21.2L857,207.35c4.39-2.3,7.32-6.78,7.32-13.41,0-10.12-15.22-35.46-15.22-35.46h0s-15.23,27.05-15.23,35.46A15.23,15.23,0,0,0,841.79,207.28Z"/><path class="cls-2" d="M831.5,253.51a3.53,3.53,0,0,1-2.49-1l-17.14-17.14a3.52,3.52,0,0,1,5-5L834,247.49a3.53,3.53,0,0,1-2.49,6Z"/><path class="cls-2" d="M846.62,272h-.3l-32.25-2.68a3.53,3.53,0,0,1,.59-7L846.91,265a3.52,3.52,0,0,1-.29,7Z"/><path class="cls-2" d="M856.69,264.59a3.52,3.52,0,0,1-.46-7l25.54-3.36a3.52,3.52,0,1,1,.92,7l-25.54,3.36A3.55,3.55,0,0,1,856.69,264.59Z"/><path class="cls-2" d="M878.69,278a3.56,3.56,0,0,1-1.19-.21l-16.73-6.05a3.52,3.52,0,1,1,2.4-6.62l16.72,6.05a3.52,3.52,0,0,1-1.2,6.83Z"/><path class="cls-2" d="M909.77,270.64H886.26a3.52,3.52,0,1,1,0-7h23.51a3.52,3.52,0,1,1,0,7Z"/><path class="cls-2" d="M904.4,257.88a3.91,3.91,0,0,1-.82-.1l-28.22-6.72a3.52,3.52,0,1,1,1.63-6.85l28.23,6.71a3.53,3.53,0,0,1-.82,7Z"/><path class="cls-2" d="M837.21,261.91a3.52,3.52,0,0,1-1.22-6.83l25.53-9.41a3.52,3.52,0,1,1,2.44,6.61l-25.53,9.41A3.5,3.5,0,0,1,837.21,261.91Z"/><path class="cls-2" d="M821.76,259.22a4,4,0,0,1-.6-.05l-19.49-3.36a3.52,3.52,0,1,1,1.2-6.94l19.48,3.35a3.53,3.53,0,0,1-.59,7Z"/><path class="cls-2" d="M821.76,278H799.58a3.52,3.52,0,0,1,0-7h22.18a3.52,3.52,0,0,1,0,7Z"/><path class="cls-2" d="M862.74,282.74h-.17l-26.88-1.34a3.52,3.52,0,0,1,.35-7l26.88,1.34a3.53,3.53,0,0,1-.18,7.05Z"/><path class="cls-2" d="M889.36,282.55a3.52,3.52,0,0,1-.36-7l26.17-2.69a3.52,3.52,0,1,1,.72,7l-26.17,2.69Z"/><path class="cls-2" d="M840.56,244.94a3.52,3.52,0,0,1-.61-7l25.53-4.54a3.52,3.52,0,0,1,1.24,6.94l-25.54,4.54A4.21,4.21,0,0,1,840.56,244.94Z"/><path class="cls-2" d="M783.58,276.69a3.52,3.52,0,0,1-1.79-6.56l16-9.41a3.53,3.53,0,0,1,3.57,6.08l-16,9.4A3.52,3.52,0,0,1,783.58,276.69Z"/><path class="cls-2" d="M478.44,568.06H363.2a3.52,3.52,0,0,1-3.52-3.52V481.08a3.55,3.55,0,0,1,.84-2.29l57.62-67.4a3.52,3.52,0,0,1,5.36,0l57.61,67.4a3.51,3.51,0,0,1,.85,2.29v83.46A3.53,3.53,0,0,1,478.44,568.06Zm-111.72-7H474.91V482.38L420.82,419.1l-54.1,63.28Z"/><path class="cls-2" d="M496.49,568.06H345.14a3.52,3.52,0,0,1,0-7H496.49a3.52,3.52,0,1,1,0,7Z"/><path class="cls-2" d="M433,543.74H408.65a4.53,4.53,0,0,1-4.59-4.46V526a2.57,2.57,0,0,1,2.57-2.56H435a2.56,2.56,0,0,1,2.56,2.56v13.29A4.53,4.53,0,0,1,433,543.74Zm-23.79-5.12h23.26V528.56H409.19Z"/><path class="cls-2" d="M435,528.56H406.63a2.57,2.57,0,0,1-2.57-2.57V510.81a2.57,2.57,0,0,1,2.57-2.56H435a2.56,2.56,0,0,1,2.56,2.56V526A2.56,2.56,0,0,1,435,528.56Zm-25.82-5.13h23.26V513.37H409.19Z"/><path class="cls-2" d="M435,513.37H406.63a2.57,2.57,0,0,1-2.57-2.56V495.63a2.57,2.57,0,0,1,2.57-2.57H435a2.56,2.56,0,0,1,2.56,2.57v15.18A2.56,2.56,0,0,1,435,513.37Zm-25.82-5.12h23.26V498.19H409.19Z"/><path class="cls-2" d="M435,498.19H406.63a2.57,2.57,0,0,1-2.57-2.56V482.34a4.53,4.53,0,0,1,4.59-4.46H433a4.53,4.53,0,0,1,4.59,4.46v13.29A2.56,2.56,0,0,1,435,498.19Zm-25.82-5.13h23.26V483H409.19ZM433,483h0Z"/><path class="cls-2" d="M439.07,551.33h-36.5A6.5,6.5,0,0,1,396,545V476.65a6.5,6.5,0,0,1,6.62-6.36h5.55v-5a6.5,6.5,0,0,1,6.62-6.36H426.9a6.5,6.5,0,0,1,6.62,6.36v5h5.55a6.5,6.5,0,0,1,6.61,6.36V545A6.5,6.5,0,0,1,439.07,551.33Zm-36.5-75.92a1.39,1.39,0,0,0-1.49,1.24V545a1.38,1.38,0,0,0,1.49,1.24h36.5a1.38,1.38,0,0,0,1.49-1.24V476.65a1.39,1.39,0,0,0-1.49-1.24H431a2.57,2.57,0,0,1-2.57-2.56v-7.59A1.39,1.39,0,0,0,426.9,464H414.74a1.39,1.39,0,0,0-1.5,1.24v7.59a2.56,2.56,0,0,1-2.56,2.56Z"/><path class="cls-2" d="M699.62,568.06H641a3.52,3.52,0,0,1,0-7h55.06V481L641,416.58,586,481v9.59a3.53,3.53,0,0,1-7.05,0v-10.9a3.48,3.48,0,0,1,.85-2.28l58.58-68.53a3.51,3.51,0,0,1,5.35,0l58.58,68.53a3.48,3.48,0,0,1,.85,2.28v84.86A3.53,3.53,0,0,1,699.62,568.06Z"/><path class="cls-2" d="M715.57,568.06H555.43a3.52,3.52,0,1,1,0-7H715.57a3.52,3.52,0,1,1,0,7Z"/><path class="cls-2" d="M607.38,543.66a6.31,6.31,0,1,1,4.46-1.85A6.3,6.3,0,0,1,607.38,543.66Zm0-8.13a1.83,1.83,0,0,0-1.29,3.11,1.82,1.82,0,1,0,2.58-2.57A1.81,1.81,0,0,0,607.38,535.53Z"/><path class="cls-2" d="M625.67,539.61h0a2.25,2.25,0,0,1-2.25-2.25A15.93,15.93,0,0,0,614.51,523a2.24,2.24,0,0,1,2-4,20.41,20.41,0,0,1,11.41,18.4A2.25,2.25,0,0,1,625.67,539.61Z"/><path class="cls-2" d="M589.09,539.61a2.25,2.25,0,0,1-2.24-2.24A20.41,20.41,0,0,1,598.26,519a2.24,2.24,0,0,1,2,4,16,16,0,0,0-8.91,14.37,2.25,2.25,0,0,1-2.24,2.25Z"/><path class="cls-2" d="M607.38,557.91a20.51,20.51,0,0,1-10.82-3.11,2.24,2.24,0,0,1,2.36-3.81,15.94,15.94,0,0,0,16.92,0,2.24,2.24,0,0,1,2.36,3.81A20.51,20.51,0,0,1,607.38,557.91Z"/><path class="cls-2" d="M609.68,536.24h-.18a2.25,2.25,0,0,1-1.82-1.22l-.06.06a2.25,2.25,0,0,1-3.17.08l-5.08-4.83a2.27,2.27,0,0,1-.56-2.39l5.87-16.19a4.55,4.55,0,0,1,8.82,1.9l-1.59,20.52A2.24,2.24,0,0,1,609.68,536.24Zm-6.15-8.15,4,3.82,0,0L609,513.31a.08.08,0,0,0,0-.07.07.07,0,0,0-.08,0Z"/><path class="cls-2" d="M585.74,552.56a4.46,4.46,0,0,1-2.58-.81,4.52,4.52,0,0,1-1.89-2.93,4.57,4.57,0,0,1,2.53-4.92L602.37,535a2.24,2.24,0,0,1,2.84,3.25h.07a2.24,2.24,0,0,1,1.66,2.71l-1.64,6.81a2.23,2.23,0,0,1-1.79,1.68l-17,3A4.43,4.43,0,0,1,585.74,552.56Zm16.85-12.68L585.73,548a.07.07,0,0,0,0,.08s0,.05.07.05l15.52-2.75,1.3-5.39Z"/><path class="cls-2" d="M627.42,555.31a4.53,4.53,0,0,1-2.58-.81l-17-11.63a2.25,2.25,0,0,1-.59-3.12,2.22,2.22,0,0,1,2-1,.31.31,0,0,0,0-.08,2.24,2.24,0,0,1,1.52-2.78l6.72-2a2.25,2.25,0,0,1,2.35.71l11.08,13.19a4.55,4.55,0,0,1-3.48,7.48ZM612,540.24l15.42,10.57a.08.08,0,0,0,.09,0,.09.09,0,0,0,0-.1l-10.14-12.06L612,540.22Z"/><path class="cls-2" d="M647,568.06H569.09a3.53,3.53,0,0,1-3.52-3.52V503.46a3.52,3.52,0,0,1,3.52-3.52H647a3.52,3.52,0,0,1,3.53,3.52v61.08A3.53,3.53,0,0,1,647,568.06Zm-74.36-7h70.84V507H572.62Z"/><path class="cls-2" d="M890.41,517.4H850.18a3.53,3.53,0,0,1,0-7h36.7V456.92L850.18,414l-36.7,42.94v7a3.52,3.52,0,1,1-7,0v-8.31a3.53,3.53,0,0,1,.84-2.28l40.22-47.06a3.53,3.53,0,0,1,5.36,0l40.22,47.06a3.48,3.48,0,0,1,.85,2.28v58.27A3.53,3.53,0,0,1,890.41,517.4Z"/><path class="cls-2" d="M915.72,517.4H784.65a3.53,3.53,0,1,1,0-7H915.72a3.53,3.53,0,0,1,0,7Z"/><path class="cls-2" d="M827.87,568a42.5,42.5,0,0,1-13.2-2.06,36.8,36.8,0,0,1-14-8.06,3.53,3.53,0,0,1,5-4.93c.64.65,16.36,16,43.27,2.59,31.36-15.57,51.25-.26,52.08.39a3.52,3.52,0,0,1-4.37,5.53c-.76-.59-17.45-13.08-44.58.39C842.88,566.49,834.69,568,827.87,568Z"/><path class="cls-2" d="M827.87,547.68a42.5,42.5,0,0,1-13.2-2.06,36.8,36.8,0,0,1-14-8.06,3.52,3.52,0,0,1,5-4.92c.64.64,16.36,15.94,43.27,2.58,31.36-15.57,51.25-.26,52.08.4a3.52,3.52,0,0,1-4.37,5.52c-.76-.59-17.45-13.07-44.58.39C842.88,546.13,834.69,547.68,827.87,547.68Z"/><path class="cls-2" d="M848.21,517.4H797.82a3.53,3.53,0,0,1-3.52-3.52V474.36a3.53,3.53,0,0,1,3.52-3.52h50.39a3.52,3.52,0,0,1,3.52,3.52v39.52A3.52,3.52,0,0,1,848.21,517.4Zm-46.86-7h43.34V477.89H801.35Z"/><path class="cls-2" d="M867.84,501.5H851.07a3.53,3.53,0,0,1,0-7.05h16.77a3.53,3.53,0,0,1,0,7.05Z"/><path class="cls-2" d="M867.84,546.29a3.52,3.52,0,0,1-3.52-3.53V498a3.52,3.52,0,0,1,7,0v44.79A3.53,3.53,0,0,1,867.84,546.29Z"/><path class="cls-2" d="M1105.09,523.55h-40.23a3.53,3.53,0,0,1,0-7h36.71V463.06l-36.71-42.93-36.7,42.93v7a3.52,3.52,0,1,1-7,0v-8.31a3.55,3.55,0,0,1,.84-2.29l40.23-47.05a3.52,3.52,0,0,1,5.35,0l40.23,47.05a3.55,3.55,0,0,1,.84,2.29V520A3.53,3.53,0,0,1,1105.09,523.55Z"/><path class="cls-2" d="M1130.4,523.55H999.33a3.53,3.53,0,0,1,0-7H1130.4a3.53,3.53,0,0,1,0,7Z"/><path class="cls-2" d="M1062.89,523.55h-50.38A3.53,3.53,0,0,1,1009,520V480.51a3.53,3.53,0,0,1,3.53-3.52h50.38a3.53,3.53,0,0,1,3.53,3.52V520A3.53,3.53,0,0,1,1062.89,523.55Zm-46.86-7h43.34V484H1016Z"/><path class="cls-2" d="M1082.52,507.64h-16.77a3.52,3.52,0,0,1,0-7h16.77a3.52,3.52,0,0,1,0,7Z"/><path class="cls-2" d="M1082.52,552.43a3.52,3.52,0,0,1-3.52-3.52V504.12a3.52,3.52,0,1,1,7,0v44.79A3.51,3.51,0,0,1,1082.52,552.43Z"/><path class="cls-2" d="M1005.4,547.24a6.16,6.16,0,1,1,6.16-6.16A6.17,6.17,0,0,1,1005.4,547.24Zm0-7.19a1,1,0,1,0,1,1A1,1,0,0,0,1005.4,540.05Z"/><path class="cls-2" d="M1025.25,547.24a6.16,6.16,0,1,1,6.16-6.16A6.16,6.16,0,0,1,1025.25,547.24Zm0-7.19a1,1,0,1,0,1,1A1,1,0,0,0,1025.25,540.05Z"/><path class="cls-2" d="M1045.11,547.24a6.16,6.16,0,1,1,6.16-6.16A6.16,6.16,0,0,1,1045.11,547.24Zm0-7.19a1,1,0,1,0,1,1A1,1,0,0,0,1045.11,540.05Z"/><path class="cls-2" d="M1065,547.24a6.16,6.16,0,1,1,6.16-6.16A6.16,6.16,0,0,1,1065,547.24Zm0-7.19a1,1,0,1,0,1,1A1,1,0,0,0,1065,540.05Z"/><path class="cls-2" d="M1084.82,547.24a6.16,6.16,0,1,1,6.16-6.16A6.16,6.16,0,0,1,1084.82,547.24Zm0-7.19a1,1,0,1,0,1,1A1,1,0,0,0,1084.82,540.05Z"/><path class="cls-2" d="M1104.67,547.24a6.16,6.16,0,1,1,6.16-6.16A6.16,6.16,0,0,1,1104.67,547.24Zm0-7.19a1,1,0,1,0,1,1A1,1,0,0,0,1104.67,540.05Z"/><path class="cls-2" d="M1124.53,547.24a6.16,6.16,0,1,1,6.16-6.16A6.16,6.16,0,0,1,1124.53,547.24Zm0-7.19a1,1,0,1,0,1,1A1,1,0,0,0,1124.53,540.05Z"/><path class="cls-2" d="M1015.64,567.1a6.16,6.16,0,1,1,6.16-6.16A6.17,6.17,0,0,1,1015.64,567.1Zm0-7.2a1,1,0,1,0,1,1A1,1,0,0,0,1015.64,559.9Z"/><path class="cls-2" d="M1035.5,567.1a6.16,6.16,0,1,1,6.16-6.16A6.16,6.16,0,0,1,1035.5,567.1Zm0-7.2a1,1,0,1,0,1,1A1,1,0,0,0,1035.5,559.9Z"/><path class="cls-2" d="M1055.35,567.1a6.16,6.16,0,1,1,6.16-6.16A6.17,6.17,0,0,1,1055.35,567.1Zm0-7.2a1,1,0,1,0,1,1A1,1,0,0,0,1055.35,559.9Z"/><path class="cls-2" d="M1075.21,567.1a6.16,6.16,0,1,1,6.16-6.16A6.16,6.16,0,0,1,1075.21,567.1Zm0-7.2a1,1,0,1,0,1,1A1,1,0,0,0,1075.21,559.9Z"/><path class="cls-2" d="M1095.06,567.1a6.16,6.16,0,1,1,6.17-6.16A6.17,6.17,0,0,1,1095.06,567.1Zm0-7.2a1,1,0,1,0,1,1A1,1,0,0,0,1095.06,559.9Z"/><path class="cls-2" d="M1114.92,567.1a6.16,6.16,0,1,1,6.16-6.16A6.16,6.16,0,0,1,1114.92,567.1Zm0-7.2a1,1,0,1,0,1,1A1,1,0,0,0,1114.92,559.9Z"/></g></svg>