<svg xmlns="http://www.w3.org/2000/svg" viewBox="0 0 320 275"><defs><style>.cls-1{fill:#a2b819;}.cls-2{fill:#fff;}.cls-3{fill:none;stroke:#fff;stroke-linecap:round;stroke-linejoin:round;stroke-width:2px;}</style></defs><g id="Ebene_1" data-name="Ebene 1"><rect class="cls-1" y="0.13" width="320" height="275"/></g><g id="Ebene_2" data-name="Ebene 2"><path class="cls-2" d="M39.72,31.32h0l-.55,6.09a.55.55,0,0,0,.55.55h0a.56.56,0,0,0,.56-.55Z"/><path class="cls-2" d="M39.72,81a66.43,66.43,0,0,1-14.36-1.74,3.08,3.08,0,0,0-.5-.08,3.42,3.42,0,0,1-3-3.4V28.1a3.42,3.42,0,0,1,3-3.39,3.27,3.27,0,0,0,.5-.08,64.5,64.5,0,0,1,28.73,0,2.91,2.91,0,0,0,.5.08h0a3.42,3.42,0,0,1,3,3.39V75.75a3.42,3.42,0,0,1-3,3.4,2.91,2.91,0,0,0-.5.08A66.45,66.45,0,0,1,39.72,81Zm0-55.89a63.44,63.44,0,0,0-13.88,1.57,7.27,7.27,0,0,1-.75.12,1.34,1.34,0,0,0-1.18,1.33V75.75a1.34,1.34,0,0,0,1.19,1.34,6.25,6.25,0,0,1,.74.12A64,64,0,0,0,39.72,78.9a64,64,0,0,0,13.89-1.69,5.94,5.94,0,0,1,.74-.12,1.34,1.34,0,0,0,1.19-1.34V28.1a1.34,1.34,0,0,0-1.19-1.33c-.23,0-.48-.06-.74-.12A63.56,63.56,0,0,0,39.72,25.08Zm0,46.14A6.93,6.93,0,0,1,32.8,64.3c0-3.42,5.4-13.12,6-14.21l.87-1.56.92,1.53c.62,1,6,10.16,6,14.24A6.55,6.55,0,0,1,39.72,71.22Zm0-18.52c-2.17,4-4.87,9.7-4.87,11.6a4.85,4.85,0,0,0,4.84,4.85,4.5,4.5,0,0,0,4.85-4.85C44.57,61.8,41.63,56,39.75,52.7Zm0-10.75a6.47,6.47,0,1,1,6.47-6.47A6.47,6.47,0,0,1,39.72,42Zm0-10.86a4.4,4.4,0,1,0,4.4,4.39A4.4,4.4,0,0,0,39.72,31.09Z"/><path class="cls-2" d="M38.08,67.1l1.74-4.76,1.68,4.78a3.17,3.17,0,0,0,1.64-3c0-2.28-3.42-8-3.42-8h0s-3.42,6.08-3.42,8A3.41,3.41,0,0,0,38.08,67.1Z"/><path class="cls-2" d="M39.72,85.41c-4.24,0-8.11-2.07-9.85-5.28l-1-1.83,2.05.31a59.29,59.29,0,0,0,8.78.71,59.31,59.31,0,0,0,8.79-.71l2.05-.31-1,1.83C47.84,83.34,44,85.41,39.72,85.41ZM33.18,81a10.32,10.32,0,0,0,13.09,0,55.11,55.11,0,0,1-13.09,0Z"/><path class="cls-2" d="M290.05,165.92h-19a1.27,1.27,0,0,1,0-2.53h17.71V137.64l-17.71-20.71-17.7,20.71v25.75h10.47a1.27,1.27,0,1,1,0,2.53H252.1a1.26,1.26,0,0,1-1.26-1.26V137.18a1.25,1.25,0,0,1,.3-.83l19-22.19a1.28,1.28,0,0,1,1.93,0l19,22.19a1.25,1.25,0,0,1,.3.83v27.48A1.26,1.26,0,0,1,290.05,165.92Z"/><path class="cls-2" d="M276,156.26a1.27,1.27,0,0,1-.55-2.41s2.6-1.31,2.95-3.39c.2-1.25-.45-2.65-2-4.16-2.25-2.25-3.26-4.53-3-6.77a7.47,7.47,0,0,1,3.23-5A1.27,1.27,0,0,1,278,136.7a4.92,4.92,0,0,0-2.06,3.13c-.16,1.44.61,3,2.28,4.68,2.12,2.12,3,4.27,2.66,6.38-.56,3.37-4.18,5.17-4.34,5.24A1.2,1.2,0,0,1,276,156.26Z"/><path class="cls-2" d="M270,156.26a1.26,1.26,0,0,1-1.14-.72,1.27,1.27,0,0,1,.59-1.69s2.61-1.31,2.95-3.39c.21-1.25-.45-2.65-2-4.16-2.25-2.25-3.26-4.53-3-6.77a7.4,7.4,0,0,1,3.23-5A1.27,1.27,0,0,1,272,136.7a4.84,4.84,0,0,0-2.07,3.13c-.15,1.44.62,3,2.29,4.68,2.12,2.12,3,4.27,2.66,6.38-.57,3.37-4.19,5.17-4.34,5.24A1.24,1.24,0,0,1,270,156.26Z"/><path class="cls-2" d="M264,156.26a1.27,1.27,0,0,1-.56-2.41s2.61-1.31,3-3.39c.2-1.25-.46-2.65-2-4.16-2.25-2.25-3.26-4.53-3-6.77a7.43,7.43,0,0,1,3.23-5A1.27,1.27,0,0,1,266,136.7a4.88,4.88,0,0,0-2.06,3.13c-.16,1.44.61,3,2.28,4.68,2.12,2.12,3,4.27,2.66,6.38-.56,3.37-4.18,5.17-4.34,5.24A1.23,1.23,0,0,1,264,156.26Z"/><path class="cls-2" d="M271.07,173.75a1.27,1.27,0,0,1-1.26-1.27V161a1.27,1.27,0,1,1,2.53,0v11.44A1.27,1.27,0,0,1,271.07,173.75Z"/><path class="cls-2" d="M297.72,173.84H265.35a1.27,1.27,0,0,1,0-2.53h32.37a1.27,1.27,0,1,1,0,2.53Z"/><path class="cls-2" d="M48.75,172.15a1.25,1.25,0,0,1-1.18-.81,1.27,1.27,0,0,1,.72-1.64c.69-.27,2.17-1.12,2.3-2,.09-.59-.44-1.38-1.5-2.23-2-1.57-2.89-3.22-2.71-4.88.25-2.41,2.66-3.68,2.93-3.81A1.27,1.27,0,0,1,50.45,159c-.41.21-1.47.94-1.56,1.82-.07.73.56,1.66,1.77,2.63,1.86,1.48,2.68,3,2.44,4.6-.4,2.59-3.54,3.87-3.89,4A1.24,1.24,0,0,1,48.75,172.15Z"/><path class="cls-2" d="M41.75,172.15a1.25,1.25,0,0,1-1.18-.81,1.27,1.27,0,0,1,.72-1.64c.69-.27,2.17-1.12,2.3-2,.09-.59-.44-1.38-1.5-2.23-2-1.57-2.89-3.22-2.71-4.88.25-2.41,2.66-3.68,2.93-3.81A1.27,1.27,0,0,1,43.45,159c-.4.21-1.46.94-1.55,1.82-.08.73.55,1.66,1.77,2.63,1.85,1.48,2.67,3,2.43,4.6-.4,2.59-3.54,3.87-3.89,4A1.24,1.24,0,0,1,41.75,172.15Z"/><path class="cls-2" d="M34.75,172.15a1.27,1.27,0,0,1-.45-2.45c.69-.27,2.16-1.12,2.3-2,.09-.59-.45-1.38-1.51-2.23-2-1.57-2.88-3.22-2.71-4.88.25-2.41,2.66-3.68,2.94-3.81A1.26,1.26,0,0,1,36.45,159c-.4.21-1.46.94-1.55,1.82-.07.73.56,1.66,1.77,2.63,1.85,1.48,2.67,3,2.43,4.6-.39,2.59-3.53,3.87-3.89,4A1.21,1.21,0,0,1,34.75,172.15Z"/><path class="cls-2" d="M56.57,154.37H28.92a1.26,1.26,0,0,1-1.26-1.27v-20a1.24,1.24,0,0,1,.3-.82l13.83-16.18a1.27,1.27,0,0,1,1.92,0l13.83,16.18a1.29,1.29,0,0,1,.3.82v20A1.27,1.27,0,0,1,56.57,154.37Zm-26.38-2.53H55.31V133.55L42.75,118.86,30.19,133.55Z"/><path class="cls-2" d="M65.27,154.37h-45a1.27,1.27,0,0,1,0-2.53H65.27a1.27,1.27,0,1,1,0,2.53Z"/><path class="cls-2" d="M116.57,44.16a5.48,5.48,0,1,1,3.88-9.35h0a5.48,5.48,0,0,1-3.88,9.35Zm0-9.11A3.64,3.64,0,0,0,114,41.26a3.64,3.64,0,0,0,5.15-5.15A3.62,3.62,0,0,0,116.57,35.05Z"/><path class="cls-2" d="M116.57,31.05a.92.92,0,0,1-.92-.92V25.57a.93.93,0,0,1,1.85,0v4.56A.93.93,0,0,1,116.57,31.05Z"/><path class="cls-2" d="M116.57,52.71a.92.92,0,0,1-.92-.92V47.23a.93.93,0,0,1,1.85,0v4.56A.93.93,0,0,1,116.57,52.71Z"/><path class="cls-2" d="M110.53,33.56a.92.92,0,0,1-.65-.27l-3.22-3.22a.93.93,0,0,1,0-1.31.92.92,0,0,1,1.3,0L111.18,32a.92.92,0,0,1,0,1.3A.91.91,0,0,1,110.53,33.56Z"/><path class="cls-2" d="M125.84,48.87a.92.92,0,0,1-.65-.27L122,45.38a.93.93,0,0,1,1.31-1.31l3.22,3.23a.92.92,0,0,1,0,1.3A.91.91,0,0,1,125.84,48.87Z"/><path class="cls-2" d="M108,39.6h-4.56a.92.92,0,1,1,0-1.84H108a.92.92,0,0,1,0,1.84Z"/><path class="cls-2" d="M129.68,39.6h-4.56a.92.92,0,0,1,0-1.84h4.56a.92.92,0,1,1,0,1.84Z"/><path class="cls-2" d="M107.31,48.87a.91.91,0,0,1-.65-.27.92.92,0,0,1,0-1.3l3.22-3.23a.92.92,0,0,1,1.3,0,.93.93,0,0,1,0,1.31L108,48.6A.92.92,0,0,1,107.31,48.87Z"/><path class="cls-2" d="M122.62,33.56a.93.93,0,0,1-.66-.27.92.92,0,0,1,0-1.3l3.23-3.23a.92.92,0,0,1,1.3,0,.93.93,0,0,1,0,1.31l-3.22,3.22A.92.92,0,0,1,122.62,33.56Z"/><path class="cls-2" d="M106.45,67.6a.92.92,0,0,1-.65-.27l-3.65-3.66a.92.92,0,0,1,1.3-1.3l3,3,3-3a.92.92,0,1,1,1.3,1.3l-3.65,3.66A.93.93,0,0,1,106.45,67.6Z"/><path class="cls-2" d="M106.45,67.59a.92.92,0,0,1-.92-.92V52.24a.93.93,0,0,1,1.85,0V66.67A.93.93,0,0,1,106.45,67.59Z"/><path class="cls-2" d="M116.58,67.6a.91.91,0,0,1-.65-.27l-3.66-3.66a.92.92,0,1,1,1.3-1.3l3,3,3-3a.92.92,0,0,1,1.3,1.3l-3.65,3.66A.92.92,0,0,1,116.58,67.6Z"/><path class="cls-2" d="M116.58,67.59a.92.92,0,0,1-.92-.92V52.24a.92.92,0,1,1,1.84,0V66.67A.92.92,0,0,1,116.58,67.59Z"/><path class="cls-2" d="M126.72,67.6a.92.92,0,0,1-.65-.27l-3.65-3.66a.92.92,0,1,1,1.3-1.3l3,3,3-3a.93.93,0,0,1,1.31,0,.92.92,0,0,1,0,1.3l-3.66,3.66A.91.91,0,0,1,126.72,67.6Z"/><path class="cls-2" d="M126.72,67.59a.92.92,0,0,1-.92-.92V52.24a.92.92,0,0,1,1.84,0V66.67A.92.92,0,0,1,126.72,67.59Z"/><path class="cls-2" d="M141.51,82H92.77a.92.92,0,0,1-.92-.92V79.44a.92.92,0,1,1,1.84,0v.67h46.9v-.58a.92.92,0,1,1,1.84,0V81A.92.92,0,0,1,141.51,82Z"/><path class="cls-2" d="M92.77,74.61a.93.93,0,0,1-.92-.93V71.59a.92.92,0,0,1,.92-.92h48.74a.92.92,0,0,1,.92.92v1.92a.92.92,0,1,1-1.84,0v-1H93.69v1.17A.93.93,0,0,1,92.77,74.61Z"/><path class="cls-2" d="M144.24,85.3H90.08a.93.93,0,0,1-.92-.93V76.48a.92.92,0,0,1,.92-.92h5a.92.92,0,0,1,0,1.84H91v6h53.24a.93.93,0,1,1,0,1.85Z"/><path class="cls-2" d="M144.24,77.4h-5a.92.92,0,1,1,0-1.84h5a.92.92,0,1,1,0,1.84Z"/><path class="cls-2" d="M97.15,79.11a2.76,2.76,0,1,1,2.76-2.76A2.76,2.76,0,0,1,97.15,79.11Zm0-3.67a.91.91,0,1,0,.91.91A.91.91,0,0,0,97.15,75.44Z"/><path class="cls-2" d="M103.75,79.11a2.76,2.76,0,1,1,2.75-2.76A2.77,2.77,0,0,1,103.75,79.11Zm0-3.67a.91.91,0,1,0,.91.91A.91.91,0,0,0,103.75,75.44Z"/><path class="cls-2" d="M110.34,79.11a2.76,2.76,0,1,1,2.75-2.76A2.76,2.76,0,0,1,110.34,79.11Zm0-3.67a.91.91,0,1,0,.91.91A.91.91,0,0,0,110.34,75.44Z"/><path class="cls-2" d="M116.94,79.11a2.76,2.76,0,1,1,2.75-2.76A2.77,2.77,0,0,1,116.94,79.11Zm0-3.67a.91.91,0,1,0,.91.91A.91.91,0,0,0,116.94,75.44Z"/><path class="cls-2" d="M123.53,79.11a2.76,2.76,0,1,1,2.75-2.76A2.76,2.76,0,0,1,123.53,79.11Zm0-3.67a.91.91,0,1,0,.91.91A.91.91,0,0,0,123.53,75.44Z"/><path class="cls-2" d="M130.12,79.11a2.76,2.76,0,1,1,2.76-2.76A2.76,2.76,0,0,1,130.12,79.11Zm0-3.67a.91.91,0,0,0,0,1.82.91.91,0,0,0,0-1.82Z"/><path class="cls-2" d="M136.72,79.11a2.76,2.76,0,1,1,2.75-2.76A2.76,2.76,0,0,1,136.72,79.11Zm0-3.67a.91.91,0,1,0,.91.91A.91.91,0,0,0,136.72,75.44Z"/><path class="cls-3" d="M176,83.66c-1.08,0-1.77-.37-1.53-.82l8-15.52a1.87,1.87,0,0,1,1.54-.82h21a1.86,1.86,0,0,1,1.53.82l8.06,15.52c.23.45-.46.82-1.54.82Z"/><path class="cls-3" d="M188.68,67.2,184.63,83"/><path class="cls-3" d="M194.6,67.2V83"/><path class="cls-3" d="M200.53,67.2c1.61,6.3,2.42,9.45,4,15.76"/><path class="cls-3" d="M207.36,70.84H181.85"/><path class="cls-3" d="M209.38,75.08H179.83"/><path class="cls-3" d="M211.4,79.32H177.8"/><path class="cls-2" d="M194.7,43.1a5,5,0,1,1,3.55-1.46A5,5,0,0,1,194.7,43.1Zm0-8.18a3.18,3.18,0,1,0,2.24.93A3.16,3.16,0,0,0,194.7,34.92Z"/><path class="cls-2" d="M194.7,31.33a.92.92,0,0,1-.92-.92V26.32a.92.92,0,1,1,1.84,0v4.09A.92.92,0,0,1,194.7,31.33Z"/><path class="cls-2" d="M194.7,50.78a.92.92,0,0,1-.92-.92V45.77a.92.92,0,1,1,1.84,0v4.09A.92.92,0,0,1,194.7,50.78Z"/><path class="cls-2" d="M189.28,33.59a.91.91,0,0,1-.65-.27l-2.9-2.9a.92.92,0,0,1,1.3-1.3l2.9,2.89a.93.93,0,0,1-.65,1.58Z"/><path class="cls-2" d="M203,47.33a.92.92,0,0,1-.65-.27l-2.9-2.89a.93.93,0,0,1,1.31-1.31l2.89,2.9a.92.92,0,0,1,0,1.3A.91.91,0,0,1,203,47.33Z"/><path class="cls-2" d="M187,39h-4.1a.92.92,0,1,1,0-1.84H187A.92.92,0,1,1,187,39Z"/><path class="cls-2" d="M206.47,39h-4.09a.92.92,0,0,1,0-1.84h4.09a.92.92,0,1,1,0,1.84Z"/><path class="cls-2" d="M186.38,47.33a.91.91,0,0,1-.65-.27.92.92,0,0,1,0-1.3l2.9-2.9a.92.92,0,0,1,1.3,0,.93.93,0,0,1,0,1.31L187,47.06A.91.91,0,0,1,186.38,47.33Z"/><path class="cls-2" d="M200.13,33.59a.93.93,0,0,1-.66-1.58l2.9-2.89a.92.92,0,0,1,1.3,1.3l-2.89,2.9A.92.92,0,0,1,200.13,33.59Z"/><path class="cls-2" d="M185.61,63.08a.92.92,0,0,1-.65-.27l-3.28-3.28a.93.93,0,0,1,0-1.31.92.92,0,0,1,1.3,0l2.63,2.63,2.63-2.63a.93.93,0,0,1,1.31,1.31l-3.28,3.28A.93.93,0,0,1,185.61,63.08Z"/><path class="cls-2" d="M185.61,63.07a.92.92,0,0,1-.92-.92V49.2a.93.93,0,1,1,1.85,0V62.15A.93.93,0,0,1,185.61,63.07Z"/><path class="cls-2" d="M194.7,63.08a.92.92,0,0,1-.65-.27l-3.28-3.28a.93.93,0,0,1,0-1.31.92.92,0,0,1,1.3,0l2.63,2.63,2.63-2.63a.93.93,0,1,1,1.31,1.31l-3.28,3.28A.93.93,0,0,1,194.7,63.08Z"/><path class="cls-2" d="M194.7,63.07a.92.92,0,0,1-.92-.92V49.2a.93.93,0,1,1,1.85,0V62.15A.93.93,0,0,1,194.7,63.07Z"/><path class="cls-2" d="M203.81,63.08a.92.92,0,0,1-.65-.27l-3.28-3.28a.93.93,0,0,1,0-1.31.92.92,0,0,1,1.3,0l2.63,2.63,2.63-2.63a.92.92,0,0,1,1.3,0,.93.93,0,0,1,0,1.31l-3.28,3.28A.91.91,0,0,1,203.81,63.08Z"/><path class="cls-2" d="M203.81,63.07a.92.92,0,0,1-.92-.92V49.2a.92.92,0,1,1,1.84,0V62.15A.92.92,0,0,1,203.81,63.07Z"/><path class="cls-2" d="M271.88,64.7A10.69,10.69,0,0,1,261.2,54c0-5.38,8.6-20.82,9.58-22.56a1.25,1.25,0,0,1,1.1-.65c.73,0,.94.36,1.5,1.32.24.4.62,1.06,1.08,1.88.81,1.44,2,3.67,3.26,6.12,3.22,6.42,4.85,11.09,4.85,13.89a10.53,10.53,0,0,1-3.17,8A10.85,10.85,0,0,1,271.88,64.7Zm0-30.05c-.91,1.69-2.28,4.28-3.64,7.06-4,8.14-4.55,11.21-4.55,12.31a8.16,8.16,0,0,0,8.15,8.15h0C275.82,62.17,280,60,280,54,280,49.77,274.91,39.91,271.92,34.65Z"/><path class="cls-2" d="M269.25,58.5,272,50.88l2.68,7.65a5.1,5.1,0,0,0,2.64-4.83c0-3.63-5.48-12.75-5.48-12.75h0s-5.47,9.73-5.47,12.75A5.48,5.48,0,0,0,269.25,58.5Z"/><path class="cls-2" d="M265.55,75.13a1.26,1.26,0,0,1-.9-.37l-6.16-6.16a1.27,1.27,0,1,1,1.79-1.8L266.44,73a1.27,1.27,0,0,1-.89,2.16Z"/><path class="cls-2" d="M271,81.77h-.1l-11.6-1a1.26,1.26,0,1,1,.21-2.52l11.6,1a1.26,1.26,0,0,1-.11,2.52Z"/><path class="cls-2" d="M274.61,79.12a1.27,1.27,0,0,1-.17-2.53l9.19-1.2a1.26,1.26,0,0,1,1.42,1.09A1.27,1.27,0,0,1,284,77.9l-9.19,1.21Z"/><path class="cls-2" d="M282.52,84a1.09,1.09,0,0,1-.43-.08l-6-2.17a1.27,1.27,0,1,1,.87-2.38l6,2.17a1.27,1.27,0,0,1-.43,2.46Z"/><path class="cls-2" d="M293.7,81.29h-8.46a1.27,1.27,0,1,1,0-2.53h8.46a1.27,1.27,0,1,1,0,2.53Z"/><path class="cls-2" d="M291.77,76.7a1.53,1.53,0,0,1-.3,0l-10.15-2.42a1.27,1.27,0,0,1,.59-2.47l10.15,2.42a1.27,1.27,0,0,1-.29,2.5Z"/><path class="cls-2" d="M267.6,78.15a1.27,1.27,0,0,1-.44-2.46l9.18-3.38a1.27,1.27,0,1,1,.88,2.38L268,78.07A1.14,1.14,0,0,1,267.6,78.15Z"/><path class="cls-2" d="M262,77.18a.75.75,0,0,1-.21,0l-7-1.2a1.28,1.28,0,0,1-1-1.47,1.27,1.27,0,0,1,1.47-1l7,1.21a1.26,1.26,0,0,1-.22,2.51Z"/><path class="cls-2" d="M262,84h-8a1.27,1.27,0,1,1,0-2.53h8A1.27,1.27,0,1,1,262,84Z"/><path class="cls-2" d="M276.78,85.64h-.06l-9.67-.48a1.27,1.27,0,1,1,.13-2.53l9.67.48a1.27,1.27,0,0,1-.07,2.53Z"/><path class="cls-2" d="M286.36,85.57a1.26,1.26,0,0,1-.13-2.52l9.41-1a1.27,1.27,0,0,1,.26,2.52l-9.41,1Z"/><path class="cls-2" d="M268.81,72.05a1.27,1.27,0,0,1-.22-2.52l9.18-1.63a1.27,1.27,0,0,1,.44,2.5L269,72Z"/><path class="cls-2" d="M248.31,83.47a1.27,1.27,0,0,1-1.09-.63,1.25,1.25,0,0,1,.45-1.73l5.75-3.39a1.27,1.27,0,1,1,1.29,2.19L249,83.29A1.24,1.24,0,0,1,248.31,83.47Z"/><path class="cls-2" d="M138.56,172.15H97.12a1.26,1.26,0,0,1-1.27-1.26v-30a1.25,1.25,0,0,1,.31-.82l20.72-24.25a1.27,1.27,0,0,1,1.92,0l20.73,24.25a1.29,1.29,0,0,1,.3.82v30A1.26,1.26,0,0,1,138.56,172.15Zm-40.17-2.53H137.3V141.34l-19.46-22.76L98.39,141.34Z"/><path class="cls-2" d="M145.06,172.15H90.62a1.27,1.27,0,0,1,0-2.53h54.44a1.27,1.27,0,1,1,0,2.53Z"/><path class="cls-2" d="M122.22,163.41h-8.75a1.63,1.63,0,0,1-1.65-1.61V157a.92.92,0,0,1,.92-.92H123a.93.93,0,0,1,.92.92v4.78A1.63,1.63,0,0,1,122.22,163.41Zm-8.56-1.85H122V158h-8.36Z"/><path class="cls-2" d="M123,158H112.74a.93.93,0,0,1-.92-.93v-5.46a.92.92,0,0,1,.92-.92H123a.92.92,0,0,1,.92.92V157A.93.93,0,0,1,123,158Zm-9.29-1.85H122v-3.62h-8.36Z"/><path class="cls-2" d="M123,152.48H112.74a.92.92,0,0,1-.92-.92V146.1a.92.92,0,0,1,.92-.92H123a.92.92,0,0,1,.92.92v5.46A.92.92,0,0,1,123,152.48Zm-9.29-1.84H122V147h-8.36Z"/><path class="cls-2" d="M123,147H112.74a.92.92,0,0,1-.92-.92v-4.78a1.63,1.63,0,0,1,1.65-1.6h8.75a1.63,1.63,0,0,1,1.65,1.6v4.78A.92.92,0,0,1,123,147Zm-9.29-1.84H122v-3.62h-8.36Zm8.56-3.62Z"/><path class="cls-2" d="M124.4,166.14H111.28a2.34,2.34,0,0,1-2.38-2.29V139.28a2.34,2.34,0,0,1,2.38-2.29h2v-1.81a2.34,2.34,0,0,1,2.38-2.29H120a2.34,2.34,0,0,1,2.38,2.29V137h2a2.33,2.33,0,0,1,2.38,2.29v24.57A2.34,2.34,0,0,1,124.4,166.14Zm-13.12-27.31a.5.5,0,0,0-.54.45v24.57a.49.49,0,0,0,.54.44H124.4a.49.49,0,0,0,.54-.44V139.28a.5.5,0,0,0-.54-.45h-2.91a.92.92,0,0,1-.92-.92v-2.73a.49.49,0,0,0-.54-.44h-4.38a.49.49,0,0,0-.53.44v2.73a.92.92,0,0,1-.92.92Z"/><path class="cls-2" d="M218.11,172.15H197a1.27,1.27,0,0,1,0-2.53h19.81V140.84L197,117.67l-19.8,23.17v3.45a1.27,1.27,0,0,1-2.53,0v-3.92a1.27,1.27,0,0,1,.3-.82l21.07-24.65a1.27,1.27,0,0,1,1-.45,1.29,1.29,0,0,1,1,.45l21.07,24.65a1.27,1.27,0,0,1,.3.82v30.52A1.26,1.26,0,0,1,218.11,172.15Z"/><path class="cls-2" d="M223.85,172.15H166.26a1.27,1.27,0,1,1,0-2.53h57.59a1.27,1.27,0,1,1,0,2.53Z"/><path class="cls-2" d="M184.94,163.38a2.23,2.23,0,0,1-1.6-.67,2.26,2.26,0,1,1,3.2,0A2.23,2.23,0,0,1,184.94,163.38Zm0-2.92a.62.62,0,0,0-.46.19.65.65,0,1,0,.92,0A.62.62,0,0,0,184.94,160.46Z"/><path class="cls-2" d="M191.52,161.92h0a.81.81,0,0,1-.81-.81,5.74,5.74,0,0,0-3.21-5.17.8.8,0,0,1,.72-1.44,7.33,7.33,0,0,1,4.1,6.61A.8.8,0,0,1,191.52,161.92Z"/><path class="cls-2" d="M178.36,161.92a.8.8,0,0,1-.8-.81,7.33,7.33,0,0,1,4.1-6.61.8.8,0,1,1,.72,1.44,5.74,5.74,0,0,0-3.21,5.17.81.81,0,0,1-.81.81Z"/><path class="cls-2" d="M184.94,168.5a7.39,7.39,0,0,1-3.89-1.11.81.81,0,0,1,.85-1.38,5.7,5.7,0,0,0,6.08,0,.81.81,0,0,1,.85,1.38A7.39,7.39,0,0,1,184.94,168.5Z"/><path class="cls-2" d="M185.77,160.71h-.07a.79.79,0,0,1-.65-.44l0,0a.81.81,0,0,1-1.14,0l-1.83-1.74a.81.81,0,0,1-.2-.86L184,151.9a1.65,1.65,0,0,1,2.1-1,1.66,1.66,0,0,1,1.07,1.66l-.57,7.39A.81.81,0,0,1,185.77,160.71Zm-2.22-2.93,1.45,1.37v0l.52-6.71s0,0,0,0a0,0,0,0,0,0,0Z"/><path class="cls-2" d="M177.16,166.58a1.63,1.63,0,0,1-.93-.29,1.65,1.65,0,0,1-.68-1.06,1.62,1.62,0,0,1,.91-1.76l6.68-3.2a.8.8,0,0,1,1.07.38.8.8,0,0,1-.05.79h0a.81.81,0,0,1,.59,1l-.59,2.45a.79.79,0,0,1-.64.6l-6.1,1.08Zm6.06-4.56-6.07,2.9a0,0,0,0,0,0,0s0,0,0,0l5.58-1,.46-1.94Z"/><path class="cls-2" d="M192.15,167.57a1.65,1.65,0,0,1-.93-.29l-6.11-4.19a.81.81,0,0,1,.5-1.47v0a.81.81,0,0,1,.54-1l2.42-.71a.8.8,0,0,1,.84.25l4,4.75a1.6,1.6,0,0,1,.38,1.19,1.62,1.62,0,0,1-.58,1.11A1.59,1.59,0,0,1,192.15,167.57Zm-5.56-5.42,5.54,3.8s0,0,0,0a.06.06,0,0,0,0,0l-3.65-4.33-1.91.56Z"/><path class="cls-2" d="M199.18,172.15h-28a1.26,1.26,0,0,1-1.27-1.26v-22a1.27,1.27,0,0,1,1.27-1.27h28a1.27,1.27,0,0,1,1.27,1.27v22A1.26,1.26,0,0,1,199.18,172.15Zm-26.74-2.53h25.48V150.19H172.44Z"/><path class="cls-2" d="M132.05,236H117.59a1.27,1.27,0,1,1,0-2.54h13.2V214.26l-13.2-15.44-13.2,15.44v2.52a1.27,1.27,0,0,1-2.54,0v-3a1.25,1.25,0,0,1,.31-.82l14.46-16.92a1.31,1.31,0,0,1,1-.45,1.27,1.27,0,0,1,1,.45L133,213a1.29,1.29,0,0,1,.3.82v21A1.27,1.27,0,0,1,132.05,236Z"/><path class="cls-2" d="M141.16,236H94a1.27,1.27,0,1,1,0-2.54h47.14a1.27,1.27,0,1,1,0,2.54Z"/><path class="cls-2" d="M109.56,254.23a15.32,15.32,0,0,1-4.75-.74,13.25,13.25,0,0,1-5-2.9,1.27,1.27,0,0,1,1.81-1.77c.23.23,5.88,5.73,15.56.93,11.28-5.6,18.43-.1,18.73.14a1.27,1.27,0,0,1-1.57,2c-.28-.21-6.28-4.71-16,.14A19.66,19.66,0,0,1,109.56,254.23Z"/><path class="cls-2" d="M109.56,246.91a15,15,0,0,1-4.75-.75,13.16,13.16,0,0,1-5-2.89,1.27,1.27,0,0,1,1.81-1.77c.23.23,5.88,5.73,15.56.93,11.28-5.6,18.43-.1,18.73.14a1.27,1.27,0,0,1-1.57,2c-.28-.22-6.28-4.71-16,.14A19.66,19.66,0,0,1,109.56,246.91Z"/><path class="cls-2" d="M116.88,236H98.76a1.27,1.27,0,0,1-1.27-1.27V220.54a1.27,1.27,0,0,1,1.27-1.27h18.12a1.27,1.27,0,0,1,1.27,1.27v14.21A1.27,1.27,0,0,1,116.88,236ZM100,233.48h15.59V221.8H100Z"/><path class="cls-2" d="M123.94,230.3h-6a1.27,1.27,0,1,1,0-2.54h6a1.27,1.27,0,0,1,0,2.54Z"/><path class="cls-2" d="M123.94,246.41a1.27,1.27,0,0,1-1.27-1.27V229a1.27,1.27,0,1,1,2.53,0v16.11A1.26,1.26,0,0,1,123.94,246.41Z"/><path class="cls-2" d="M209.27,238.23H194.8a1.27,1.27,0,0,1,0-2.54H208V216.47L194.8,201l-13.2,15.44V219a1.27,1.27,0,1,1-2.53,0v-3a1.25,1.25,0,0,1,.3-.83l14.47-16.92a1.27,1.27,0,0,1,1.92,0l14.47,16.92a1.25,1.25,0,0,1,.3.83v21A1.26,1.26,0,0,1,209.27,238.23Z"/><path class="cls-2" d="M218.37,238.23H171.23a1.27,1.27,0,0,1,0-2.54h47.14a1.27,1.27,0,0,1,0,2.54Z"/><path class="cls-2" d="M194.09,238.23H176A1.27,1.27,0,0,1,174.7,237V222.75a1.27,1.27,0,0,1,1.27-1.27h18.12a1.27,1.27,0,0,1,1.27,1.27V237A1.27,1.27,0,0,1,194.09,238.23Zm-16.85-2.54h15.58V224H177.24Z"/><path class="cls-2" d="M201.15,232.51h-6a1.27,1.27,0,0,1,0-2.54h6a1.27,1.27,0,0,1,0,2.54Z"/><path class="cls-2" d="M201.15,248.62a1.27,1.27,0,0,1-1.27-1.27V231.24a1.27,1.27,0,1,1,2.54,0v16.11A1.27,1.27,0,0,1,201.15,248.62Z"/><path class="cls-2" d="M173.41,246.75a2.22,2.22,0,1,1,2.22-2.22A2.21,2.21,0,0,1,173.41,246.75Zm0-2.59a.38.38,0,0,0,0,.75.38.38,0,0,0,0-.75Z"/><path class="cls-2" d="M180.55,246.75a2.22,2.22,0,1,1,2.22-2.22A2.21,2.21,0,0,1,180.55,246.75Zm0-2.59a.38.38,0,0,0,0,.75.38.38,0,1,0,0-.75Z"/><path class="cls-2" d="M187.69,246.75a2.22,2.22,0,1,1,2.22-2.22A2.21,2.21,0,0,1,187.69,246.75Zm0-2.59a.38.38,0,0,0,0,.75.38.38,0,1,0,0-.75Z"/><path class="cls-2" d="M194.83,246.75a2.22,2.22,0,1,1,2.22-2.22A2.21,2.21,0,0,1,194.83,246.75Zm0-2.59a.38.38,0,0,0,0,.75.38.38,0,1,0,0-.75Z"/><path class="cls-2" d="M202,246.75a2.22,2.22,0,1,1,2.21-2.22A2.21,2.21,0,0,1,202,246.75Zm0-2.59a.38.38,0,1,0,.37.37A.38.38,0,0,0,202,244.16Z"/><path class="cls-2" d="M209.12,246.75a2.22,2.22,0,1,1,2.21-2.22A2.21,2.21,0,0,1,209.12,246.75Zm0-2.59a.38.38,0,1,0,.37.37A.38.38,0,0,0,209.12,244.16Z"/><path class="cls-2" d="M216.26,246.75a2.22,2.22,0,1,1,2.21-2.22A2.22,2.22,0,0,1,216.26,246.75Zm0-2.59a.38.38,0,1,0,.37.37A.38.38,0,0,0,216.26,244.16Z"/><path class="cls-2" d="M177.1,253.89a2.22,2.22,0,1,1,2.21-2.21A2.22,2.22,0,0,1,177.1,253.89Zm0-2.59a.38.38,0,1,0,0,.75.38.38,0,0,0,0-.75Z"/><path class="cls-2" d="M184.24,253.89a2.22,2.22,0,1,1,2.21-2.21A2.22,2.22,0,0,1,184.24,253.89Zm0-2.59a.38.38,0,1,0,0,.75.38.38,0,0,0,0-.75Z"/><path class="cls-2" d="M191.38,253.89a2.22,2.22,0,1,1,2.21-2.21A2.22,2.22,0,0,1,191.38,253.89Zm0-2.59a.38.38,0,0,0,0,.75.38.38,0,0,0,0-.75Z"/><path class="cls-2" d="M198.52,253.89a2.22,2.22,0,1,1,2.22-2.21A2.22,2.22,0,0,1,198.52,253.89Zm0-2.59a.38.38,0,1,0,.37.38A.37.37,0,0,0,198.52,251.3Z"/><path class="cls-2" d="M205.66,253.89a2.22,2.22,0,1,1,2.22-2.21A2.21,2.21,0,0,1,205.66,253.89Zm0-2.59a.38.38,0,0,0,0,.75.38.38,0,0,0,0-.75Z"/><path class="cls-2" d="M212.8,253.89a2.22,2.22,0,1,1,2.22-2.21A2.21,2.21,0,0,1,212.8,253.89Zm0-2.59a.38.38,0,1,0,.38.38A.38.38,0,0,0,212.8,251.3Z"/></g></svg>