<svg xmlns="http://www.w3.org/2000/svg" viewBox="0 0 600 300"><defs><style>.cls-1{fill:#a2b819;}.cls-2{fill:#fff;}.cls-3{fill:none;stroke:#fff;stroke-linecap:round;stroke-linejoin:round;stroke-width:3px;}</style></defs><g id="Ebene_1" data-name="Ebene 1"><rect class="cls-1" width="600" height="300"/></g><g id="Ebene_2" data-name="Ebene 2"><path class="cls-2" d="M73.38,55.21h0l-.79,8.69a.79.79,0,0,0,.79.79h0a.79.79,0,0,0,.79-.79Z"/><path class="cls-2" d="M73.38,126.12a94.44,94.44,0,0,1-20.52-2.5,5.09,5.09,0,0,0-.71-.11,4.88,4.88,0,0,1-4.31-4.84V50.62a4.87,4.87,0,0,1,4.31-4.84,5.35,5.35,0,0,0,.71-.11,91.48,91.48,0,0,1,41,0,5.62,5.62,0,0,0,.71.11h0a4.88,4.88,0,0,1,4.31,4.84v68.05a4.88,4.88,0,0,1-4.31,4.84,5,5,0,0,0-.72.11A94.41,94.41,0,0,1,73.38,126.12Zm0-79.82a90.55,90.55,0,0,0-19.84,2.25c-.36.08-.72.13-1,.17a1.91,1.91,0,0,0-1.69,1.9v68.05a1.91,1.91,0,0,0,1.69,1.9,8,8,0,0,1,1.06.17,91.47,91.47,0,0,0,19.83,2.41,91.34,91.34,0,0,0,19.82-2.41,8,8,0,0,1,1.06-.17,1.91,1.91,0,0,0,1.69-1.9V50.62a1.91,1.91,0,0,0-1.69-1.9c-.33,0-.69-.09-1.05-.17A90.52,90.52,0,0,0,73.38,46.3Zm0,65.89a9.9,9.9,0,0,1-9.89-9.88c0-4.89,7.72-18.74,8.6-20.3l1.24-2.22L74.64,82c.89,1.47,8.62,14.51,8.62,20.34S79.29,112.19,73.38,112.19Zm0-26.44c-3.09,5.76-7,13.85-7,16.56a6.93,6.93,0,0,0,6.93,6.92c1.62,0,6.92-.49,6.92-6.92C80.3,98.73,76.1,90.51,73.41,85.75Zm0-15.35a9.24,9.24,0,1,1,9.23-9.24A9.25,9.25,0,0,1,73.38,70.4Zm0-15.52a6.28,6.28,0,1,0,6.27,6.28A6.29,6.29,0,0,0,73.38,54.88Z"/><path class="cls-2" d="M71,106.31l2.49-6.8,2.39,6.82a4.53,4.53,0,0,0,2.35-4.3c0-3.25-4.88-11.38-4.88-11.38h0S68.49,99.33,68.49,102A4.88,4.88,0,0,0,71,106.31Z"/><path class="cls-2" d="M73.38,132.45c-6.07,0-11.59-3-14.07-7.54l-1.41-2.62,2.94.45a84.78,84.78,0,0,0,12.54,1,84.89,84.89,0,0,0,12.54-1l2.93-.45-1.41,2.62C85,129.49,79.44,132.45,73.38,132.45ZM64,126.15a14.74,14.74,0,0,0,18.69,0,76.89,76.89,0,0,1-18.69,0Z"/><path class="cls-2" d="M537.29,121.47H510.2a1.81,1.81,0,1,1,0-3.62h25.28V81.09L510.2,51.52,484.92,81.09v36.76h14.95a1.81,1.81,0,0,1,0,3.62H483.11a1.81,1.81,0,0,1-1.81-1.81V80.42a1.81,1.81,0,0,1,.44-1.17l27.09-31.69a1.79,1.79,0,0,1,1.37-.63,1.83,1.83,0,0,1,1.38.63l27.09,31.69a1.8,1.8,0,0,1,.43,1.17v39.24A1.81,1.81,0,0,1,537.29,121.47Z"/><path class="cls-2" d="M517.22,107.67a1.81,1.81,0,0,1-.79-3.44s3.72-1.87,4.21-4.84c.3-1.79-.64-3.78-2.79-5.93-3.21-3.22-4.66-6.47-4.29-9.67.51-4.49,4.44-7,4.61-7.11a1.81,1.81,0,0,1,1.93,3.06,6.94,6.94,0,0,0-3,4.48c-.22,2,.87,4.29,3.26,6.68,3,3,4.31,6.09,3.8,9.1-.81,4.82-6,7.38-6.2,7.49A1.82,1.82,0,0,1,517.22,107.67Z"/><path class="cls-2" d="M508.66,107.67a1.81,1.81,0,0,1-.79-3.44s3.72-1.87,4.21-4.84c.3-1.79-.64-3.78-2.79-5.93-3.21-3.22-4.66-6.47-4.29-9.67.5-4.49,4.44-7,4.61-7.11a1.81,1.81,0,0,1,1.92,3.06s-2.65,1.75-2.94,4.48c-.22,2,.87,4.29,3.26,6.68,3,3,4.31,6.09,3.8,9.1-.81,4.82-6,7.38-6.2,7.49A1.89,1.89,0,0,1,508.66,107.67Z"/><path class="cls-2" d="M500.1,107.67a1.81,1.81,0,0,1-.79-3.44s3.72-1.87,4.21-4.84c.29-1.79-.64-3.78-2.79-5.93-3.22-3.22-4.66-6.47-4.3-9.67.51-4.49,4.45-7,4.62-7.11A1.81,1.81,0,0,1,503,79.74,6.94,6.94,0,0,0,500,84.22c-.23,2,.87,4.29,3.25,6.68,3,3,4.31,6.09,3.81,9.1-.81,4.82-6,7.38-6.2,7.49A1.89,1.89,0,0,1,500.1,107.67Z"/><path class="cls-2" d="M510.2,132.64a1.81,1.81,0,0,1-1.81-1.81V114.5a1.81,1.81,0,0,1,3.62,0v16.33A1.81,1.81,0,0,1,510.2,132.64Z"/><path class="cls-2" d="M548.26,132.78H502a1.81,1.81,0,1,1,0-3.62h46.23a1.81,1.81,0,1,1,0,3.62Z"/><path class="cls-2" d="M86.26,256.32a1.81,1.81,0,0,1-.65-3.5c1-.39,3.09-1.61,3.28-2.9.13-.85-.63-2-2.15-3.19-2.82-2.25-4.12-4.59-3.87-7,.37-3.44,3.8-5.25,4.19-5.44a1.81,1.81,0,0,1,1.63,3.23c-.58.3-2.09,1.34-2.22,2.59-.1,1.05.79,2.38,2.53,3.76,2.65,2.11,3.81,4.32,3.47,6.57-.56,3.69-5,5.53-5.56,5.72A1.64,1.64,0,0,1,86.26,256.32Z"/><path class="cls-2" d="M76.27,256.32a1.81,1.81,0,0,1-.65-3.5c1-.39,3.09-1.61,3.28-2.9.13-.85-.63-2-2.15-3.19-2.82-2.25-4.12-4.59-3.87-7,.36-3.44,3.8-5.25,4.19-5.44a1.81,1.81,0,1,1,1.62,3.23c-.57.3-2.08,1.34-2.21,2.59-.1,1.05.79,2.38,2.53,3.76,2.65,2.11,3.81,4.32,3.47,6.57-.57,3.69-5,5.53-5.56,5.72A1.64,1.64,0,0,1,76.27,256.32Z"/><path class="cls-2" d="M66.28,256.32a1.81,1.81,0,0,1-.65-3.5c1-.39,3.09-1.61,3.28-2.9.13-.85-.63-2-2.15-3.19-2.82-2.25-4.12-4.59-3.87-7,.36-3.44,3.8-5.25,4.19-5.44a1.81,1.81,0,1,1,1.62,3.23c-.57.3-2.09,1.34-2.21,2.59-.11,1.05.79,2.38,2.53,3.76,2.64,2.11,3.81,4.32,3.47,6.57-.57,3.69-5,5.53-5.56,5.72A1.64,1.64,0,0,1,66.28,256.32Z"/><path class="cls-2" d="M97.44,230.92H58a1.81,1.81,0,0,1-1.8-1.81V200.52a1.82,1.82,0,0,1,.43-1.18l19.74-23.09a1.82,1.82,0,0,1,2.75,0l19.74,23.09a1.82,1.82,0,0,1,.43,1.18v28.59A1.81,1.81,0,0,1,97.44,230.92ZM59.76,227.3H95.63V201.19l-17.94-21-17.93,21Z"/><path class="cls-2" d="M109.86,230.92H45.53a1.81,1.81,0,0,1,0-3.62h64.33a1.81,1.81,0,1,1,0,3.62Z"/><path class="cls-2" d="M183.11,73.55a7.82,7.82,0,1,1,5.54-13.35h0a7.82,7.82,0,0,1-5.54,13.35Zm0-13a5.19,5.19,0,0,0-3.67,8.86,5.19,5.19,0,1,0,3.67-8.86Z"/><path class="cls-2" d="M183.11,54.84a1.32,1.32,0,0,1-1.31-1.32V47a1.32,1.32,0,1,1,2.63,0v6.51A1.32,1.32,0,0,1,183.11,54.84Z"/><path class="cls-2" d="M183.11,85.76a1.31,1.31,0,0,1-1.31-1.31V77.94a1.32,1.32,0,1,1,2.63,0v6.51A1.32,1.32,0,0,1,183.11,85.76Z"/><path class="cls-2" d="M174.49,58.42a1.29,1.29,0,0,1-.93-.39L169,53.42a1.32,1.32,0,0,1,1.86-1.86l4.61,4.61a1.32,1.32,0,0,1-.93,2.25Z"/><path class="cls-2" d="M196.35,80.28a1.29,1.29,0,0,1-.93-.39l-4.61-4.61a1.32,1.32,0,0,1,1.86-1.86L197.28,78a1.32,1.32,0,0,1-.93,2.25Z"/><path class="cls-2" d="M170.91,67H164.4a1.32,1.32,0,1,1,0-2.63h6.51a1.32,1.32,0,0,1,0,2.63Z"/><path class="cls-2" d="M201.83,67h-6.51a1.32,1.32,0,0,1,0-2.63h6.51a1.32,1.32,0,1,1,0,2.63Z"/><path class="cls-2" d="M169.88,80.28a1.3,1.3,0,0,1-.93-.39A1.32,1.32,0,0,1,169,78l4.61-4.61a1.32,1.32,0,1,1,1.86,1.86l-4.61,4.61A1.3,1.3,0,0,1,169.88,80.28Z"/><path class="cls-2" d="M191.74,58.42a1.3,1.3,0,0,1-.93-.39,1.32,1.32,0,0,1,0-1.86l4.61-4.61a1.32,1.32,0,0,1,1.86,1.86L192.67,58A1.3,1.3,0,0,1,191.74,58.42Z"/><path class="cls-2" d="M168.66,107a1.31,1.31,0,0,1-.93-.38l-5.22-5.22a1.32,1.32,0,1,1,1.86-1.86l4.29,4.29L173,99.55a1.32,1.32,0,1,1,1.86,1.86l-5.22,5.22A1.28,1.28,0,0,1,168.66,107Z"/><path class="cls-2" d="M168.66,107a1.31,1.31,0,0,1-1.31-1.31V85.09a1.32,1.32,0,1,1,2.63,0V105.7A1.32,1.32,0,0,1,168.66,107Z"/><path class="cls-2" d="M183.12,107a1.28,1.28,0,0,1-.93-.38L177,101.41a1.32,1.32,0,1,1,1.86-1.86l4.29,4.29,4.29-4.29a1.32,1.32,0,1,1,1.86,1.86l-5.22,5.22A1.31,1.31,0,0,1,183.12,107Z"/><path class="cls-2" d="M183.12,107a1.32,1.32,0,0,1-1.32-1.31V85.09a1.32,1.32,0,1,1,2.63,0V105.7A1.31,1.31,0,0,1,183.12,107Z"/><path class="cls-2" d="M197.6,107a1.31,1.31,0,0,1-.93-.38l-5.22-5.22a1.32,1.32,0,1,1,1.87-1.86l4.28,4.29,4.29-4.29a1.32,1.32,0,0,1,1.86,0,1.3,1.3,0,0,1,0,1.86l-5.22,5.22A1.28,1.28,0,0,1,197.6,107Z"/><path class="cls-2" d="M197.6,107a1.31,1.31,0,0,1-1.31-1.31V85.09a1.32,1.32,0,1,1,2.63,0V105.7A1.32,1.32,0,0,1,197.6,107Z"/><path class="cls-2" d="M218.72,127.51H149.13a1.32,1.32,0,0,1-1.32-1.32v-2.26a1.32,1.32,0,0,1,2.63,0v.95h67v-.83a1.32,1.32,0,1,1,2.63,0v2.14A1.32,1.32,0,0,1,218.72,127.51Z"/><path class="cls-2" d="M149.13,117a1.31,1.31,0,0,1-1.32-1.31v-3a1.32,1.32,0,0,1,1.32-1.31h69.59a1.31,1.31,0,0,1,1.31,1.31v2.74a1.32,1.32,0,0,1-2.63,0V114h-67v1.67A1.31,1.31,0,0,1,149.13,117Z"/><path class="cls-2" d="M222.62,132.29H145.28A1.31,1.31,0,0,1,144,131V119.7a1.31,1.31,0,0,1,1.31-1.32h7.19a1.32,1.32,0,0,1,0,2.64H146.6v8.64h76a1.32,1.32,0,1,1,0,2.63Z"/><path class="cls-2" d="M222.62,121h-7.18a1.32,1.32,0,0,1,0-2.64h7.18a1.32,1.32,0,0,1,0,2.64Z"/><path class="cls-2" d="M155.38,123.45a3.93,3.93,0,1,1,3.93-3.93A3.93,3.93,0,0,1,155.38,123.45Zm0-5.23a1.3,1.3,0,1,0,1.3,1.3A1.3,1.3,0,0,0,155.38,118.22Z"/><path class="cls-2" d="M164.8,123.45a3.93,3.93,0,1,1,3.93-3.93A3.93,3.93,0,0,1,164.8,123.45Zm0-5.23a1.3,1.3,0,1,0,1.3,1.3A1.3,1.3,0,0,0,164.8,118.22Z"/><path class="cls-2" d="M174.21,123.45a3.93,3.93,0,1,1,3.93-3.93A3.94,3.94,0,0,1,174.21,123.45Zm0-5.23a1.3,1.3,0,1,0,1.3,1.3A1.3,1.3,0,0,0,174.21,118.22Z"/><path class="cls-2" d="M183.63,123.45a3.93,3.93,0,1,1,3.93-3.93A3.93,3.93,0,0,1,183.63,123.45Zm0-5.23a1.3,1.3,0,1,0,1.3,1.3A1.3,1.3,0,0,0,183.63,118.22Z"/><path class="cls-2" d="M193.05,123.45a3.93,3.93,0,1,1,3.93-3.93A3.93,3.93,0,0,1,193.05,123.45Zm0-5.23a1.3,1.3,0,1,0,1.3,1.3A1.3,1.3,0,0,0,193.05,118.22Z"/><path class="cls-2" d="M202.46,123.45a3.93,3.93,0,1,1,3.93-3.93A3.94,3.94,0,0,1,202.46,123.45Zm0-5.23a1.3,1.3,0,1,0,1.3,1.3A1.3,1.3,0,0,0,202.46,118.22Z"/><path class="cls-2" d="M211.88,123.45a3.93,3.93,0,1,1,3.93-3.93A3.93,3.93,0,0,1,211.88,123.45Zm0-5.23a1.3,1.3,0,1,0,1.3,1.3A1.3,1.3,0,0,0,211.88,118.22Z"/><path class="cls-3" d="M268.12,129.9c-1.54,0-2.51-.52-2.18-1.16l11.42-22.08a2.63,2.63,0,0,1,2.18-1.16h30a2.63,2.63,0,0,1,2.18,1.16l11.42,22.08c.33.64-.64,1.16-2.18,1.16Z"/><path class="cls-3" d="M286.09,106.49c-2.29,9-3.43,13.45-5.73,22.42"/><path class="cls-3" d="M294.53,106.49v22.42"/><path class="cls-3" d="M303,106.49l5.73,22.42"/><path class="cls-3" d="M312.68,111.67h-36.3"/><path class="cls-3" d="M315.55,117.7h-42"/><path class="cls-3" d="M318.41,123.73H270.65"/><path class="cls-2" d="M294.67,72A7.14,7.14,0,1,1,299.74,70,7.16,7.16,0,0,1,294.67,72Zm0-11.68a4.51,4.51,0,1,0,3.21,1.32A4.51,4.51,0,0,0,294.67,60.36Z"/><path class="cls-2" d="M294.67,55.24a1.32,1.32,0,0,1-1.31-1.32V48.07a1.32,1.32,0,0,1,2.63,0v5.85A1.32,1.32,0,0,1,294.67,55.24Z"/><path class="cls-2" d="M294.67,83a1.31,1.31,0,0,1-1.31-1.31V75.84a1.32,1.32,0,0,1,2.63,0v5.85A1.32,1.32,0,0,1,294.67,83Z"/><path class="cls-2" d="M286.93,58.45a1.32,1.32,0,0,1-.93-.38l-4.14-4.14a1.32,1.32,0,0,1,1.86-1.86l4.14,4.14a1.32,1.32,0,0,1,0,1.86A1.35,1.35,0,0,1,286.93,58.45Z"/><path class="cls-2" d="M306.55,78.08a1.32,1.32,0,0,1-.93-.39l-4.13-4.13a1.32,1.32,0,1,1,1.86-1.86l4.14,4.13a1.32,1.32,0,0,1-.94,2.25Z"/><path class="cls-2" d="M283.71,66.2h-5.84a1.32,1.32,0,1,1,0-2.63h5.84a1.32,1.32,0,1,1,0,2.63Z"/><path class="cls-2" d="M311.48,66.2h-5.85a1.32,1.32,0,0,1,0-2.63h5.85a1.32,1.32,0,1,1,0,2.63Z"/><path class="cls-2" d="M282.79,78.08a1.32,1.32,0,0,1-.93-2.25L286,71.7a1.3,1.3,0,0,1,1.86,0,1.32,1.32,0,0,1,0,1.86l-4.14,4.13A1.29,1.29,0,0,1,282.79,78.08Z"/><path class="cls-2" d="M302.42,58.45a1.33,1.33,0,0,1-.93-.38,1.3,1.3,0,0,1,0-1.86l4.13-4.14a1.32,1.32,0,0,1,1.87,1.86l-4.14,4.14A1.33,1.33,0,0,1,302.42,58.45Z"/><path class="cls-2" d="M281.7,100.56a1.32,1.32,0,0,1-.93-.38l-4.69-4.69a1.32,1.32,0,0,1,1.86-1.86l3.76,3.75,3.75-3.75a1.32,1.32,0,0,1,1.86,0,1.3,1.3,0,0,1,0,1.86l-4.68,4.69A1.35,1.35,0,0,1,281.7,100.56Z"/><path class="cls-2" d="M281.7,100.56a1.32,1.32,0,0,1-1.32-1.32V80.74a1.32,1.32,0,1,1,2.63,0v18.5A1.32,1.32,0,0,1,281.7,100.56Z"/><path class="cls-2" d="M294.68,100.56a1.32,1.32,0,0,1-.93-.38l-4.69-4.69a1.32,1.32,0,0,1,1.86-1.86l3.76,3.75,3.75-3.75a1.32,1.32,0,0,1,1.86,0,1.3,1.3,0,0,1,0,1.86l-4.68,4.69A1.35,1.35,0,0,1,294.68,100.56Z"/><path class="cls-2" d="M294.68,100.56a1.32,1.32,0,0,1-1.32-1.32V80.74a1.32,1.32,0,1,1,2.63,0v18.5A1.32,1.32,0,0,1,294.68,100.56Z"/><path class="cls-2" d="M307.68,100.56a1.35,1.35,0,0,1-.93-.38l-4.68-4.69a1.3,1.3,0,0,1,0-1.86,1.32,1.32,0,0,1,1.86,0l3.75,3.75,3.76-3.75a1.32,1.32,0,0,1,1.86,1.86l-4.69,4.69A1.32,1.32,0,0,1,307.68,100.56Z"/><path class="cls-2" d="M307.68,100.56a1.32,1.32,0,0,1-1.31-1.32V80.74a1.32,1.32,0,1,1,2.63,0v18.5A1.32,1.32,0,0,1,307.68,100.56Z"/><path class="cls-2" d="M404.88,102.88a15.27,15.27,0,0,1-15.25-15.25c0-7.68,12.28-29.73,13.68-32.22a1.8,1.8,0,0,1,1.57-.92c1.05,0,1.34.51,2.14,1.88.34.58.88,1.51,1.54,2.68,1.16,2.06,2.91,5.25,4.66,8.75,4.59,9.17,6.92,15.84,6.92,19.83,0,4.73-1.56,8.68-4.52,11.4A15.49,15.49,0,0,1,404.88,102.88ZM404.93,60c-1.3,2.41-3.25,6.11-5.19,10.09-5.65,11.62-6.5,16-6.5,17.57a11.65,11.65,0,0,0,11.64,11.64h0c5.63,0,11.64-3.06,11.64-11.64C416.52,81.56,409.21,67.48,404.93,60Z"/><path class="cls-2" d="M401.12,94l4-10.88,3.83,10.92c2.25-1.18,3.76-3.48,3.76-6.89,0-5.2-7.82-18.21-7.82-18.21h0s-7.81,13.89-7.81,18.21A7.8,7.8,0,0,0,401.12,94Z"/><path class="cls-2" d="M395.83,117.77a1.75,1.75,0,0,1-1.27-.53l-8.8-8.8a1.81,1.81,0,1,1,2.55-2.56l8.8,8.8a1.8,1.8,0,0,1,0,2.56A1.76,1.76,0,0,1,395.83,117.77Z"/><path class="cls-2" d="M403.6,127.26h-.15l-16.57-1.39a1.81,1.81,0,1,1,.31-3.6l16.56,1.38a1.81,1.81,0,0,1-.15,3.61Z"/><path class="cls-2" d="M408.77,123.47a1.81,1.81,0,0,1-.23-3.61l13.11-1.72a1.81,1.81,0,1,1,.47,3.58L409,123.45Z"/><path class="cls-2" d="M420.07,130.37a1.87,1.87,0,0,1-.61-.11l-8.59-3.11a1.81,1.81,0,1,1,1.23-3.4l8.59,3.11a1.81,1.81,0,0,1-.62,3.51Z"/><path class="cls-2" d="M436,126.57H424a1.81,1.81,0,0,1,0-3.62H436a1.81,1.81,0,1,1,0,3.62Z"/><path class="cls-2" d="M433.28,120a2,2,0,0,1-.42,0l-14.5-3.45a1.82,1.82,0,0,1-1.34-2.18A1.8,1.8,0,0,1,419.2,113l14.49,3.45a1.81,1.81,0,0,1-.41,3.57Z"/><path class="cls-2" d="M398.77,122.09a1.82,1.82,0,0,1-1.7-1.19,1.8,1.8,0,0,1,1.07-2.32l13.11-4.83a1.81,1.81,0,1,1,1.26,3.39L399.39,122A1.67,1.67,0,0,1,398.77,122.09Z"/><path class="cls-2" d="M390.83,120.71l-.31,0-10-1.73a1.81,1.81,0,1,1,.61-3.56l10,1.72a1.81,1.81,0,0,1-.31,3.6Z"/><path class="cls-2" d="M390.83,130.37H379.44a1.81,1.81,0,0,1,0-3.62h11.39a1.81,1.81,0,0,1,0,3.62Z"/><path class="cls-2" d="M411.88,132.78h-.09l-13.8-.69a1.81,1.81,0,1,1,.18-3.61l13.8.69a1.81,1.81,0,0,1-.09,3.61Z"/><path class="cls-2" d="M425.55,132.68a1.8,1.8,0,0,1-.18-3.6l13.44-1.38a1.8,1.8,0,0,1,2,1.61,1.82,1.82,0,0,1-1.61,2l-13.44,1.38Z"/><path class="cls-2" d="M400.49,113.37a1.81,1.81,0,0,1-.31-3.59l13.11-2.33a1.81,1.81,0,0,1,.63,3.57l-13.11,2.32A1.73,1.73,0,0,1,400.49,113.37Z"/><path class="cls-2" d="M371.22,129.68a1.81,1.81,0,0,1-.91-3.37l8.22-4.83a1.81,1.81,0,0,1,1.83,3.12l-8.22,4.83A1.79,1.79,0,0,1,371.22,129.68Z"/><path class="cls-2" d="M214.51,256.32H155.33a1.81,1.81,0,0,1-1.81-1.81V211.65a1.81,1.81,0,0,1,.44-1.18l29.59-34.62a1.79,1.79,0,0,1,1.37-.63,1.83,1.83,0,0,1,1.38.63l29.59,34.62a1.8,1.8,0,0,1,.43,1.18v42.86A1.81,1.81,0,0,1,214.51,256.32Zm-57.37-3.62H212.7V212.31l-27.78-32.5-27.78,32.5Z"/><path class="cls-2" d="M223.79,256.32H146.06a1.81,1.81,0,0,1,0-3.62h77.73a1.81,1.81,0,0,1,0,3.62Z"/><path class="cls-2" d="M191.17,243.83H178.68a2.33,2.33,0,0,1-2.36-2.29v-6.83a1.31,1.31,0,0,1,1.31-1.31h14.58a1.32,1.32,0,0,1,1.32,1.31v6.83A2.33,2.33,0,0,1,191.17,243.83ZM179,241.19h12V236H179Z"/><path class="cls-2" d="M192.21,236H177.63a1.32,1.32,0,0,1-1.31-1.32v-7.8a1.31,1.31,0,0,1,1.31-1.31h14.58a1.32,1.32,0,0,1,1.32,1.31v7.8A1.32,1.32,0,0,1,192.21,236ZM179,233.4h12v-5.17H179Z"/><path class="cls-2" d="M192.21,228.23H177.63a1.32,1.32,0,0,1-1.31-1.32v-7.79a1.32,1.32,0,0,1,1.31-1.32h14.58a1.32,1.32,0,0,1,1.32,1.32v7.79A1.32,1.32,0,0,1,192.21,228.23ZM179,225.6h12v-5.17H179Z"/><path class="cls-2" d="M192.21,220.43H177.63a1.31,1.31,0,0,1-1.31-1.31v-6.83a2.33,2.33,0,0,1,2.36-2.29h12.49a2.33,2.33,0,0,1,2.36,2.29v6.83A1.32,1.32,0,0,1,192.21,220.43ZM179,217.8h12v-5.17H179Zm12.22-5.17Z"/><path class="cls-2" d="M194.29,247.73H175.55a3.35,3.35,0,0,1-3.4-3.27V209.37a3.35,3.35,0,0,1,3.4-3.27h2.85v-2.58a3.35,3.35,0,0,1,3.4-3.27h6.25a3.34,3.34,0,0,1,3.39,3.27v2.58h2.85a3.34,3.34,0,0,1,3.4,3.27v35.09A3.34,3.34,0,0,1,194.29,247.73Zm-18.74-39a.72.72,0,0,0-.77.64v35.09a.71.71,0,0,0,.77.63h18.74a.71.71,0,0,0,.77-.63V209.37a.71.71,0,0,0-.77-.64h-4.16a1.31,1.31,0,0,1-1.32-1.31v-3.9a.7.7,0,0,0-.76-.63H181.8a.71.71,0,0,0-.77.63v3.9a1.31,1.31,0,0,1-1.31,1.31Z"/><path class="cls-2" d="M328.1,256.32H298a1.81,1.81,0,0,1,0-3.62h28.27V211.6L298,178.52,269.74,211.6v4.93a1.81,1.81,0,0,1-3.62,0v-5.6a1.83,1.83,0,0,1,.44-1.18l30.08-35.19a1.83,1.83,0,0,1,1.38-.63,1.79,1.79,0,0,1,1.37.63l30.09,35.19a1.82,1.82,0,0,1,.43,1.18v43.58A1.81,1.81,0,0,1,328.1,256.32Z"/><path class="cls-2" d="M336.3,256.32H254.06a1.81,1.81,0,0,1,0-3.62H336.3a1.81,1.81,0,1,1,0,3.62Z"/><path class="cls-2" d="M280.73,243.78a3.23,3.23,0,1,1,2.29-.94A3.22,3.22,0,0,1,280.73,243.78Zm0-4.17a.94.94,0,0,0-.66,1.6,1,1,0,0,0,1.33,0,.94.94,0,0,0-.67-1.6Z"/><path class="cls-2" d="M290.13,241.7h0a1.15,1.15,0,0,1-1.16-1.15,8.17,8.17,0,0,0-4.57-7.38,1.15,1.15,0,0,1,1-2.06,10.48,10.48,0,0,1,5.86,9.44A1.15,1.15,0,0,1,290.13,241.7Z"/><path class="cls-2" d="M271.34,241.7a1.15,1.15,0,0,1-1.15-1.15,10.48,10.48,0,0,1,5.86-9.44,1.15,1.15,0,0,1,1,2.06,8.17,8.17,0,0,0-4.57,7.38,1.15,1.15,0,0,1-1.16,1.15Z"/><path class="cls-2" d="M280.74,251.1a10.53,10.53,0,0,1-5.56-1.59,1.15,1.15,0,0,1,1.21-2,8.2,8.2,0,0,0,8.69,0,1.15,1.15,0,0,1,1.21,2A10.52,10.52,0,0,1,280.74,251.1Z"/><path class="cls-2" d="M281.91,240h-.09a1.14,1.14,0,0,1-.93-.62l0,0a1.15,1.15,0,0,1-1.63,0l-2.61-2.48a1.17,1.17,0,0,1-.29-1.23l3-8.31a2.28,2.28,0,0,1,1.21-1.32,2.32,2.32,0,0,1,1.79-.08,2.36,2.36,0,0,1,1.53,2.37l-.82,10.54A1.16,1.16,0,0,1,281.91,240Zm-3.15-4.19,2.06,2,0,0,.74-9.57a.05.05,0,0,0,0,0l-.05,0Z"/><path class="cls-2" d="M269.62,248.36a2.33,2.33,0,0,1-2.29-1.93,2.33,2.33,0,0,1,1.29-2.52l9.54-4.56a1.15,1.15,0,0,1,1.46,1.67h0a1.15,1.15,0,0,1,.85,1.39l-.84,3.5a1.16,1.16,0,0,1-.92.87L270,248.32A2,2,0,0,1,269.62,248.36Zm8.66-6.52L269.62,246s0,0,0,0,0,0,0,0l8-1.41.67-2.77Z"/><path class="cls-2" d="M291,249.77a2.33,2.33,0,0,1-1.33-.42l-8.72-6a1.15,1.15,0,0,1-.29-1.6,1.13,1.13,0,0,1,1-.5v0a1.15,1.15,0,0,1,.77-1.43l3.46-1a1.13,1.13,0,0,1,1.2.36l5.7,6.77a2.35,2.35,0,0,1,.54,1.71,2.33,2.33,0,0,1-2.33,2.14ZM283.08,242l7.93,5.43h0a0,0,0,0,0,0-.05l-5.2-6.2-2.73.81Z"/><path class="cls-2" d="M301.07,256.32h-40a1.81,1.81,0,0,1-1.81-1.81V223.14a1.81,1.81,0,0,1,1.81-1.81h40a1.81,1.81,0,0,1,1.81,1.81v31.37A1.81,1.81,0,0,1,301.07,256.32Zm-38.19-3.62h36.38V225H262.88Z"/><path class="cls-2" d="M426.09,230.3H405.43a1.81,1.81,0,1,1,0-3.62h18.85V199.24l-18.85-22.05-18.85,22.05v3.59a1.81,1.81,0,1,1-3.62,0v-4.26a1.83,1.83,0,0,1,.44-1.18l20.66-24.16a1.77,1.77,0,0,1,1.37-.64,1.81,1.81,0,0,1,1.38.64l20.65,24.16a1.83,1.83,0,0,1,.44,1.18v29.92A1.81,1.81,0,0,1,426.09,230.3Z"/><path class="cls-2" d="M439.09,230.3H371.77a1.81,1.81,0,0,1,0-3.62h67.32a1.81,1.81,0,1,1,0,3.62Z"/><path class="cls-2" d="M394,256.31a22,22,0,0,1-6.78-1.06,18.9,18.9,0,0,1-7.17-4.14,1.82,1.82,0,0,1,0-2.56,1.8,1.8,0,0,1,2.56,0c.33.33,8.4,8.19,22.22,1.33,16.11-8,26.32-.14,26.75.2a1.81,1.81,0,0,1-2.24,2.84c-.4-.3-9-6.72-22.9.2A28,28,0,0,1,394,256.31Z"/><path class="cls-2" d="M394,245.85a21.72,21.72,0,0,1-6.78-1.06,18.9,18.9,0,0,1-7.17-4.14,1.81,1.81,0,0,1,2.59-2.53c.33.33,8.4,8.19,22.22,1.33,16.11-8,26.32-.13,26.75.2a1.82,1.82,0,0,1,.29,2.55,1.8,1.8,0,0,1-2.53.29c-.4-.3-9-6.71-22.9.2A27.82,27.82,0,0,1,394,245.85Z"/><path class="cls-2" d="M404.42,230.3H378.54a1.81,1.81,0,0,1-1.81-1.81V208.2a1.81,1.81,0,0,1,1.81-1.81h25.88a1.81,1.81,0,0,1,1.81,1.81v20.29A1.81,1.81,0,0,1,404.42,230.3Zm-24.07-3.62h22.26V210H380.35Z"/><path class="cls-2" d="M414.5,222.13h-8.61a1.81,1.81,0,0,1,0-3.62h8.61a1.81,1.81,0,0,1,0,3.62Z"/><path class="cls-2" d="M414.5,245.13a1.81,1.81,0,0,1-1.81-1.81v-23a1.81,1.81,0,1,1,3.62,0v23A1.81,1.81,0,0,1,414.5,245.13Z"/><path class="cls-2" d="M536.34,233.46H515.68a1.81,1.81,0,0,1,0-3.62h18.85V202.39l-18.85-22-18.84,22V206a1.81,1.81,0,0,1-3.62,0v-4.26a1.8,1.8,0,0,1,.43-1.18l20.66-24.17a1.82,1.82,0,0,1,2.75,0l20.66,24.17a1.8,1.8,0,0,1,.43,1.18v29.92A1.81,1.81,0,0,1,536.34,233.46Z"/><path class="cls-2" d="M549.34,233.46H482a1.81,1.81,0,1,1,0-3.62h67.31a1.81,1.81,0,0,1,0,3.62Z"/><path class="cls-2" d="M514.67,233.46H488.8a1.81,1.81,0,0,1-1.81-1.81v-20.3a1.81,1.81,0,0,1,1.81-1.8h25.87a1.81,1.81,0,0,1,1.81,1.8v20.3A1.81,1.81,0,0,1,514.67,233.46Zm-24.07-3.62h22.26V213.16H490.6Z"/><path class="cls-2" d="M524.75,225.29h-8.61a1.81,1.81,0,1,1,0-3.62h8.61a1.81,1.81,0,0,1,0,3.62Z"/><path class="cls-2" d="M524.75,248.29a1.81,1.81,0,0,1-1.81-1.81v-23a1.81,1.81,0,1,1,3.62,0v23A1.81,1.81,0,0,1,524.75,248.29Z"/><path class="cls-2" d="M485.14,245.63a3.17,3.17,0,1,1,3.17-3.17A3.17,3.17,0,0,1,485.14,245.63Zm0-3.7a.53.53,0,0,0-.53.53.54.54,0,0,0,1.07,0A.54.54,0,0,0,485.14,241.93Z"/><path class="cls-2" d="M495.34,245.63a3.17,3.17,0,1,1,3.16-3.17A3.17,3.17,0,0,1,495.34,245.63Zm0-3.7a.53.53,0,0,0-.53.53.53.53,0,0,0,1.06,0A.53.53,0,0,0,495.34,241.93Z"/><path class="cls-2" d="M505.54,245.63a3.17,3.17,0,1,1,3.16-3.17A3.17,3.17,0,0,1,505.54,245.63Zm0-3.7a.54.54,0,0,0-.54.53.54.54,0,1,0,.54-.53Z"/><path class="cls-2" d="M515.73,245.63a3.17,3.17,0,1,1,3.17-3.17A3.17,3.17,0,0,1,515.73,245.63Zm0-3.7a.53.53,0,0,0-.53.53.54.54,0,0,0,1.07,0A.54.54,0,0,0,515.73,241.93Z"/><path class="cls-2" d="M525.93,245.63a3.17,3.17,0,1,1,3.17-3.17A3.17,3.17,0,0,1,525.93,245.63Zm0-3.7a.53.53,0,0,0-.53.53.53.53,0,0,0,1.06,0A.53.53,0,0,0,525.93,241.93Z"/><path class="cls-2" d="M536.13,245.63a3.17,3.17,0,1,1,3.16-3.17A3.17,3.17,0,0,1,536.13,245.63Zm0-3.7a.53.53,0,0,0-.53.53.52.52,0,0,0,.53.53.53.53,0,0,0,.53-.53A.53.53,0,0,0,536.13,241.93Z"/><path class="cls-2" d="M546.32,245.63a3.17,3.17,0,1,1,3.17-3.17A3.17,3.17,0,0,1,546.32,245.63Zm0-3.7a.53.53,0,0,0-.53.53.54.54,0,0,0,1.07,0A.54.54,0,0,0,546.32,241.93Z"/><path class="cls-2" d="M490.41,255.82a3.17,3.17,0,1,1,3.16-3.16A3.17,3.17,0,0,1,490.41,255.82Zm0-3.69a.53.53,0,0,0-.54.53.54.54,0,0,0,1.07,0A.53.53,0,0,0,490.41,252.13Z"/><path class="cls-2" d="M500.6,255.82a3.17,3.17,0,1,1,3.17-3.16A3.17,3.17,0,0,1,500.6,255.82Zm0-3.69a.53.53,0,0,0-.53.53.54.54,0,1,0,.53-.53Z"/><path class="cls-2" d="M510.8,255.82a3.17,3.17,0,1,1,3.16-3.16A3.17,3.17,0,0,1,510.8,255.82Zm0-3.69a.53.53,0,0,0-.53.53.53.53,0,1,0,1.06,0A.53.53,0,0,0,510.8,252.13Z"/><path class="cls-2" d="M521,255.82a3.17,3.17,0,1,1,3.16-3.16A3.17,3.17,0,0,1,521,255.82Zm0-3.69a.53.53,0,0,0-.54.53.54.54,0,0,0,1.07,0A.53.53,0,0,0,521,252.13Z"/><path class="cls-2" d="M531.19,255.82a3.17,3.17,0,1,1,3.17-3.16A3.17,3.17,0,0,1,531.19,255.82Zm0-3.69a.53.53,0,0,0-.53.53.54.54,0,1,0,.53-.53Z"/><path class="cls-2" d="M541.39,255.82a3.17,3.17,0,1,1,3.16-3.16A3.17,3.17,0,0,1,541.39,255.82Zm0-3.69a.53.53,0,0,0-.53.53.53.53,0,0,0,1.06,0A.53.53,0,0,0,541.39,252.13Z"/></g></svg>