<svg xmlns="http://www.w3.org/2000/svg" width="24" height="24" viewBox="0 0 24 24">
  <path class="icon-path"
    d="M5.75,6h0a1,1,0,0,0,1-1V2h8.836L17.75,4.163V5h0a1,1,0,0,0,2,0V3.749h0a1,1,0,0,0-.293-.707L17,.587h0A2.01,2.01,0,0,0,15.586,0H6.75a2,2,0,0,0-2,2h0V5h0a1,1,0,0,0,1,1Z" />
  <path class="icon-path"
    d="M21.5,7H2.5A2.5,2.5,0,0,0,0,9.5H0V14H0a2.5,2.5,0,0,0,2.5,2.5H5v6.25H5A1.251,1.251,0,0,0,6.25,24h12a1.251,1.251,0,0,0,1.25-1.25V16.5h2A2.5,2.5,0,0,0,24,14h0V9.5h0A2.5,2.5,0,0,0,21.5,7Zm-18,4.5h0a1,1,0,1,1,1-1h0A1,1,0,0,1,3.5,11.5Zm14,10h0a.5.5,0,0,1-.5.5H7.5a.5.5,0,0,1-.5-.5H7V12.457H7a.5.5,0,0,1,.5-.5H17a.5.5,0,0,1,.5.5Z" />
  <path class="icon-path" d="M15,14.749H9.5a.75.75,0,0,0,0,1.5H15a.75.75,0,0,0,0-1.5Z" />
  <path class="icon-path" d="M13.25,18.249H9.5a.75.75,0,0,0,0,1.5h3.75a.75.75,0,0,0,0-1.5Z" />
</svg>
