<?xml version="1.0" encoding="utf-8"?>
<!-- Generator: Adobe Illustrator 28.0.0, SVG Export Plug-In . SVG Version: 6.00 Build 0)  -->
<svg version="1.1" id="Layer_1" xmlns="http://www.w3.org/2000/svg" xmlns:xlink="http://www.w3.org/1999/xlink" x="0px" y="0px"
	 viewBox="0 0 72.5 81.2" style="enable-background:new 0 0 72.5 81.2;" xml:space="preserve">
<style type="text/css">
	.st0{fill:#D94D15;}
	.st1{fill:#FFFFFF;}
</style>
<g id="Gruppe_6859" transform="translate(-295.968 -16.247)">
	<path id="Pfad_8" class="st0" d="M343.4,66.4c13.9,0,25.1-11.2,25.1-25.1s-11.3-25.1-25.1-25.1c-13.9,0-25.1,11.2-25.1,25.1
		S329.5,66.4,343.4,66.4L343.4,66.4z"/>
	<path id="Pfad_9" class="st0" d="M323.3,97.4c15.1,0,27.3-12.2,27.3-27.3s-12.2-27.4-27.3-27.4S296,54.9,296,70l0,0
		C295.9,85.2,308.2,97.4,323.3,97.4L323.3,97.4z"/>
	<path id="Pfad_10" class="st1" d="M312,77.9l8.5-11.3c1.5-2,2.5-3.3,2.5-4.4c0-0.9-0.4-2.6-3.2-2.6h-11.4c-1.8,0-2.8,1-2.8,2.4
		s1,2.4,2.8,2.4h7.8l-10,13.3c-0.6,0.6-0.9,1.5-1,2.3c0,1.7,0.9,2.9,3.7,2.9h11.7c1.8,0,2.8-1,2.8-2.4s-1-2.4-2.8-2.4L312,77.9z
		 M330.3,80.1c-0.1,1.5,1,2.7,2.5,2.8c1.5,0.1,2.7-1,2.8-2.5c0-0.1,0-0.2,0-0.3V64.4h3c1.8,0,2.7-1,2.7-2.4c0-1.5-1-2.4-2.7-2.4
		h-11.2c-1.8,0-2.7,0.9-2.7,2.4s1,2.4,2.7,2.4h3L330.3,80.1L330.3,80.1z"/>
	<path id="Pfad_12" class="st1" d="M345.1,27.9h-3.3c-0.2,0-0.4,0.1-0.5,0.2l-0.9,0.9l-0.8,0.4h0.9l0.5,0.5c0.1,0.1,0.2,0.2,0.4,0.2
		h0.7l-1.3,4.8c0,0-0.2,0.4,0.2,0.4h4.7c0.2,0,0.3-0.4,0.3-0.4L345.1,27.9L345.1,27.9z"/>
	<path id="Pfad_13" class="st1" d="M328.1,29.6l0.6,1.3c0.1,0.1,0.2,0.2,0.3,0.2h6v-1.7h-6.8C328,29.4,328.1,29.6,328.1,29.6
		L328.1,29.6z"/>
	<path id="Pfad_14" class="st1" d="M327.1,32.2c0.1,0.2,0.7,1,0.9,1.2c0.1,0.1,0.2,0.2,0.4,0.2h6.7V32h-7.8
		C327.2,32.1,327,32.1,327.1,32.2L327.1,32.2z"/>
	<path id="Pfad_15" class="st1" d="M325.8,34.8c0.2,0.2,1.8,1.6,2.1,1.8c0.1,0.1,0.3,0.2,0.5,0.1l6.7-1.3v-0.9h-9
		C326,34.6,325.6,34.6,325.8,34.8L325.8,34.8z"/>
	<path id="Pfad_16" class="st1" d="M336,36.5l0.4,0.5l-8.8,3.9c-0.2,0.1-0.4,0-0.5-0.1c-0.2-0.2-1.2-1.4-1.6-1.9
		c-0.1-0.1,0.1-0.3,0.1-0.3L336,36.5L336,36.5z"/>
	<path id="Pfad_17" class="st1" d="M337.3,37.2l-11.5,5.9c0,0-0.4,0.2-0.1,0.3s1.6,1.2,1.8,1.4c0.2,0.1,0.4,0.1,0.6,0l10.6-7.6
		L337.3,37.2z"/>
	<path id="Pfad_18" class="st1" d="M327.4,48c0.4,0.1,2.8,0.5,2.8,0.5s0.2,0.1,0.6-0.2s8.9-9.5,8.9-9.5v-1l-12.3,9.8
		C327.4,47.6,327,47.9,327.4,48L327.4,48z"/>
	<path id="Pfad_19" class="st1" d="M347.2,41.3l9.4,10.1c0,0,0.2,0.3,0,0.3h-3.3c-0.3,0-0.5-0.1-0.6-0.3l-2-3l-2-0.2l-2.6-2.7
		l-0.5,0.2l3.1,9.4c0,0,0.3,0.9-0.3,0.9h-10c-0.7,0-0.4-0.7-0.4-0.7l3.1-9.6l-0.5-0.2l-2.6,2.7l-2,0.2l-2.1,3.1
		c-0.1,0.2-0.3,0.3-0.5,0.3H330c-0.3,0,0-0.4,0-0.4l9.4-10l0,0c0.1,1.6,1.2,3,2.7,3.5l-1.2,4.8h1.1l0.5-4.7c0.2,0,0.5,0.1,0.7,0.1
		s0.5,0,0.7-0.1l0.5,4.7h1.1l-1.2-4.8C346,44.3,347.1,42.9,347.2,41.3L347.2,41.3z"/>
	<path id="Pfad_20" class="st1" d="M346.4,41v-4.7c0-0.2-0.1-0.4-0.3-0.4h-5.3c0,0-0.3,0-0.3,0.3V41l0,0c0.1,1.6,1.4,2.9,3.1,2.9
		C345.1,43.8,346.3,42.6,346.4,41L346.4,41z"/>
	<path id="Pfad_21" class="st1" d="M336.6,29.4h-0.5v4.8l0,0l0,0c0,1.3,1,2.4,2.3,2.4l0,0h1.4c0,0,0-0.3,0-0.5s-0.2-0.2-0.2-0.2
		h-1.2l0,0c-0.9,0-1.7-0.8-1.7-1.7l0,0l0,0v-4.5C336.7,29.6,336.7,29.5,336.6,29.4z"/>
	<path id="Pfad_22" class="st1" d="M358.7,29.6l-0.6,1.3c-0.1,0.1-0.2,0.2-0.3,0.2h-6v-1.7h6.8C358.7,29.4,358.7,29.6,358.7,29.6
		L358.7,29.6z"/>
	<path id="Pfad_23" class="st1" d="M359.6,32.2c-0.1,0.2-0.7,1-0.9,1.2c-0.1,0.1-0.2,0.2-0.4,0.2h-6.7V32h7.8
		C359.5,32.1,359.8,32.1,359.6,32.2L359.6,32.2z"/>
	<path id="Pfad_24" class="st1" d="M360.9,34.8c-0.2,0.2-1.8,1.6-2.1,1.8c-0.1,0.1-0.3,0.2-0.5,0.1l-6.7-1.3v-0.9h9
		C360.7,34.6,361.1,34.6,360.9,34.8L360.9,34.8z"/>
	<path id="Pfad_25" class="st1" d="M350.8,36.5l-0.4,0.5l8.8,3.9c0.2,0.1,0.4,0,0.5-0.1c0.2-0.2,1.2-1.4,1.6-1.9
		c0.1-0.1-0.1-0.3-0.1-0.3L350.8,36.5L350.8,36.5z"/>
	<path id="Pfad_26" class="st1" d="M349.4,37.2l11.5,5.9c0,0,0.4,0.2,0.1,0.3s-1.6,1.2-1.8,1.4c-0.2,0.1-0.4,0.1-0.6,0L348,37.2
		L349.4,37.2z"/>
	<path id="Pfad_27" class="st1" d="M359.4,48c-0.4,0.1-2.8,0.5-2.8,0.5s-0.2,0.1-0.6-0.2s-8.9-9.5-8.9-9.5v-1l12.3,9.9
		C359.4,47.6,359.7,47.9,359.4,48L359.4,48z"/>
	<path id="Pfad_28" class="st1" d="M350.2,29.4h0.5v4.8l0,0l0,0c0,1.3-1,2.4-2.3,2.4l0,0H347c0,0,0-0.3,0-0.5s0.2-0.2,0.2-0.2h1.2
		l0,0c0.9,0,1.7-0.8,1.7-1.7l0,0l0,0v-4.5C350,29.6,350.1,29.5,350.2,29.4L350.2,29.4z"/>
	<path id="Pfad_29" class="st1" d="M342.1,27.3h1.4v-0.6l-0.4,0.3h-0.7l-0.3-0.3V27.3L342.1,27.3z"/>
	<path id="Pfad_30" class="st1" d="M344.9,27.3h-1.4v-0.6l0.4,0.3h0.7l0.3-0.3V27.3L344.9,27.3z"/>
	<path id="Pfad_31" class="st1" d="M333.9,48.8h0.9v0.8h-1L333.9,48.8z"/>
	<path id="Pfad_32" class="st1" d="M351.6,48.4h1.1l-0.1,1h-0.9v-1H351.6z"/>
</g>
</svg>
