<svg xmlns="http://www.w3.org/2000/svg" width="24" height="23.425" viewBox="0 0 24 24">
  <g transform="translate(0 -0.287)">
    <path class="icon-path"
      d="M8.616,1.741h0A1.455,1.455,0,0,1,10.07.287h3.392a1.455,1.455,0,0,1,1.453,1.454V9.969h0a.25.25,0,0,0,.25.25h2.9a1.138,1.138,0,0,1,.827,2l-6.1,6.1h0a1.489,1.489,0,0,1-2.056,0l-6.1-6.1h0a1.137,1.137,0,0,1,.827-2h2.9a.249.249,0,0,0,.25-.248s0,0,0,0Z" />
    <path class="icon-path"
      d="M0,19.677H0a4.039,4.039,0,0,0,4.035,4.035h15.93A4.039,4.039,0,0,0,24,19.677V17.8h0a1.225,1.225,0,0,0-2.449,0v1.874h0a1.588,1.588,0,0,1-1.586,1.586H4.035a1.588,1.588,0,0,1-1.586-1.586V17.8h0A1.225,1.225,0,0,0,0,17.8Z" />
  </g>
</svg>
