<svg xmlns="http://www.w3.org/2000/svg" width="24" height="24" viewBox="0 0 24 24">
  <path class="icon-path"
    d="M23.707,11.293,20.573,8.159h0a.249.249,0,0,1-.073-.177V2h0a1,1,0,0,0-1-1h-3a1,1,0,0,0-1,1h0v.482h0a.25.25,0,0,1-.427.177L12.707.293h0a1,1,0,0,0-1.414,0l-11,11h0A1,1,0,0,0,1,13H2.25a.25.25,0,0,1,.25.25V23h0a1,1,0,0,0,1,1H9.25a.25.25,0,0,0,.25-.25V19h0a2.5,2.5,0,0,1,5,0h0v4.75h0a.25.25,0,0,0,.25.25H20.5a1,1,0,0,0,1-1V13.25h0a.25.25,0,0,1,.25-.25H23a1,1,0,0,0,.707-1.707Z"
    transform="translate(0 0)" />
</svg>
