<?xml version="1.0" standalone="no"?> <!DOCTYPE svg PUBLIC "-//W3C//DTD SVG 1.0//EN" "http://www.w3.org/TR/2001/REC-SVG-20010904/DTD/svg10.dtd" > <svg xmlns="http://www.w3.org/2000/svg" width="100%" height="100%">
<defs >
<font horiz-adv-x="1294" ><font-face
    font-family="Aoki Regular"
    units-per-em="2048"
    panose-1="2 0 5 0 0 0 0 0 0 0"
    ascent="2209"
    descent="-301"
    alphabetic="0" />
<missing-glyph horiz-adv-x="1197" d="M289 837T324 872Q359 907 359 957Q359 1056 429 1126Q500 1196 598 1196Q697 1196 768 1126Q838 1056 838 957Q838 858 768 788Q697 718 598 718Q549 718 514 683Q479 648 479 598V419Q479 369 514 334Q549 299 598 299Q648
299 683 334Q718 369 718 419V494Q874 534 975 662Q1077 792 1077 957Q1077 1155 937 1295Q796 1435 598 1435Q401 1435 260 1295Q120 1155 120 957Q120 907 155 872Q190 837 240 837Q289 837 324 872ZM549 239T514 204Q479 169 479 120Q479 70 514 35Q549 0 598
0Q648 0 683 35Q718 70 718 120Q718 169 683 204Q648 239 598 239Q549 239 514 204Z" />
<glyph unicode=" " glyph-name="space" horiz-adv-x="508" />
<glyph unicode="!" glyph-name="exclam" horiz-adv-x="479" d="M289 0T324 35Q359 70 359 120Q359 169 324 204Q289 239 240 239Q190 239 155 204Q120 169 120 120Q120 70 155 35Q190 0 240 0Q289 0 324 35ZM289 299T324 334Q359 369 359 419V1316Q359 1365 324
1400Q289 1435 240 1435Q190 1435 155 1400Q120 1365 120 1316V419Q120 369 155 334Q190 299 240 299Q289 299 324 334Z" />
<glyph unicode="&quot;" glyph-name="quotedbl" horiz-adv-x="645" d="M247 1015T273 1041Q299 1068 299 1105V1344Q299 1381 273 1407Q247 1434 210 1434Q173 1434 146 1407Q120 1381 120 1344V1105Q120 1068 146 1041Q173 1015 210 1015Q247 1015 273 1041ZM472
1015T498 1041Q525 1068 525 1105V1344Q525 1381 498 1407Q472 1434 435 1434Q398 1434 371 1407Q345 1381 345 1344V1105Q345 1068 371 1041Q398 1015 435 1015Q472 1015 498 1041Z" />
<glyph unicode="#" glyph-name="numbersign" horiz-adv-x="1496" d="M686 778H851L810 658H644L686 778ZM307 419L216 159Q200 112 222 68Q243 23 290 7Q309 0 329 0Q414 0 442 80L561 419H726L635 159Q619 112 640 68Q662 23 708 7Q728 0 748 0Q833 0 861 80L979
419H1197Q1246 419 1281 454Q1316 489 1316 538Q1316 588 1281 623Q1246 658 1197 658H1063L1105 778H1256Q1306 778 1341 813Q1376 848 1376 897Q1376 947 1341 982Q1306 1017 1256 1017H1189L1280 1276Q1296 1323 1274 1368Q1253 1412 1206 1429Q1159 1445 1115
1424Q1070 1402 1054 1355L935 1017H770L861 1276Q877 1323 856 1368Q834 1412 787 1429Q741 1445 696 1424Q651 1402 635 1355L517 1017H299Q250 1017 215 982Q180 947 180 897Q180 848 215 813Q250 778 299 778H433L391 658H240Q190 658 155 623Q120 588 120
538Q120 489 155 454Q190 419 240 419H307Z" />
<glyph unicode="$" glyph-name="dollar" horiz-adv-x="1210" d="M696 390T553 404Q410 418 334 494Q299 529 250 529Q200 529 165 494Q130 459 130 409Q130 360 165 325Q285 205 478 172V120Q478 70 513 35Q548 0 598 0Q647 0 682 35Q717 70 717 120V171Q827 189
917 238Q967 265 1003 309Q1090 416 1064 546Q1037 682 909 751Q836 791 694 819L683 821Q582 841 485 870Q479 871 469 874Q379 901 372 925Q363 953 383 975Q447 1045 631 1033Q784 1024 866 941Q901 906 950 906Q1000 906 1035 941Q1070 976 1070 1026Q1070
1076 1035 1111Q913 1232 717 1264V1316Q717 1365 682 1400Q647 1435 598 1435Q548 1435 513 1400Q478 1365 478 1316V1265Q301 1239 207 1138Q156 1082 138 1005Q120 928 143 855Q172 759 257 704Q305 673 402 645L416 641Q525 608 637 586L648 584Q754 564 795
541Q824 525 829 499Q833 479 817 460Q811 452 804 448Q696 390 553 404Z" />
<glyph unicode="%" glyph-name="percent" horiz-adv-x="1137" d="M289 777T324 813Q359 848 359 897Q359 947 324 982Q289 1017 240 1017Q190 1017 155 982Q120 947 120 897Q120 848 155 813Q190 777 240 777Q289 777 324 813ZM778 489T813 454Q848 419 897 419Q947
419 982 454Q1017 489 1017 538Q1017 588 982 623Q947 658 897 658Q848 658 813 623Q778 588 778 538Q778 489 813 454ZM339 0T359 0Q444 0 472 80L891 1276Q907 1323 886 1368Q864 1412 817 1429Q771 1445 726 1424Q681 1402 665 1355L246 159Q230 112 251 68Q273
23 320 7Q339 0 359 0Z" />
<glyph unicode="&amp;" glyph-name="ampersand" horiz-adv-x="1496" d="M830 0T978 139Q1124 278 1136 478H1256Q1306 478 1341 513Q1376 549 1376 598Q1376 648 1341 683Q1306 718 1256 718H778Q728 718 693 683Q658 648 658 598Q658 549 693 513Q728 478 778
478H896Q885 377 808 308Q732 239 628 239Q517 239 438 318Q359 397 359 508Q359 620 438 699Q517 777 628 777Q678 777 713 813Q748 848 748 897Q748 947 713 982Q678 1017 628 1017Q591 1017 565 1043Q539 1069 539 1106Q539 1144 565 1170Q591 1196 628 1196H897Q947
1196 982 1231Q1017 1266 1017 1316Q1017 1365 982 1400Q947 1435 897 1435H628Q492 1435 396 1339Q299 1242 299 1106Q299 1013 349 933Q244 863 183 753Q120 639 120 508Q120 298 269 149Q418 0 628 0Q830 0 978 139Z" />
<glyph unicode="&apos;" glyph-name="quotesingle" horiz-adv-x="420" d="M247 1015T273 1041Q300 1068 300 1105V1344Q300 1381 273 1407Q247 1434 210 1434Q173 1434 146 1407Q120 1381 120 1344V1105Q120 1068 146 1041Q173 1015 210 1015Q247 1015 273 1041Z" />
<glyph unicode="(" glyph-name="parenleft" horiz-adv-x="826" d="M636 -234T671 -199Q706 -164 706 -114Q706 -65 671 -30Q360 281 360 723Q360 1164 671 1476Q706 1511 706 1560Q706 1610 671 1645Q636 1680 586 1680Q537 1680 502 1645Q120 1263 120 723Q120
183 502 -199Q537 -234 586 -234Q636 -234 671 -199Z" />
<glyph unicode=")" glyph-name="parenright" horiz-adv-x="826" d="M190 -232T240 -232Q289 -232 324 -197Q706 185 706 725Q706 1265 324 1647Q289 1682 240 1682Q190 1682 155 1647Q120 1612 120 1562Q120 1513 155 1478Q466 1166 466 725Q466 283 155 -28Q120
-63 120 -112Q120 -162 155 -197Q190 -232 240 -232Z" />
<glyph unicode="*" glyph-name="asterisk" horiz-adv-x="685" d="M148 1051T184 1051Q199 1051 212 1058L282 1096V1016Q282 991 300 974Q318 956 342 956Q367 956 385 974Q402 991 402 1016V1096L472 1058Q486 1051 501 1051Q536 1051 553 1083Q565 1105 558
1128Q551 1152 529 1164L469 1195L529 1227Q551 1239 558 1262Q565 1286 553 1308Q542 1330 518 1337Q494 1344 472 1332L402 1295V1375Q402 1399 385 1417Q367 1434 342 1434Q318 1434 300 1417Q282 1399 282 1375V1295L212 1332Q190 1344 167 1337Q143 1330 131
1308Q120 1286 127 1262Q134 1239 156 1227L215 1195L156 1164Q134 1152 127 1128Q120 1105 131 1083Q148 1051 184 1051Z" />
<glyph unicode="+" glyph-name="plus" horiz-adv-x="1137" d="M449 596V387Q449 337 484 302Q519 267 569 267Q618 267 653 302Q688 337 688 387V596H897Q947 596 982 631Q1017 666 1017 716Q1017 765 982 800Q947 835 897 835H688V1044Q688 1094 653 1129Q618
1164 569 1164Q519 1164 484 1129Q449 1094 449 1044V835H240Q190 835 155 800Q120 765 120 716Q120 666 155 631Q190 596 240 596H449Z" />
<glyph unicode="," glyph-name="comma" horiz-adv-x="778" d="M413 -301T535 -178Q658 -55 658 118Q658 167 623 202Q588 237 539 237Q489 237 454 202Q419 167 419 118Q419 43 366 -9Q314 -62 240 -62Q190 -62 155 -97Q120 -132 120 -181Q120 -231 155 -266Q190
-301 240 -301Q413 -301 535 -178Z" />
<glyph unicode="-" glyph-name="hyphen" horiz-adv-x="1137" d="M897 595Q947 595 982 630Q1017 665 1017 715Q1017 764 982 799Q947 834 897 834H240Q190 834 155 799Q120 764 120 715Q120 665 155 630Q190 595 240 595H897Z" />
<glyph unicode="." glyph-name="period" horiz-adv-x="479" d="M289 0T324 35Q359 70 359 120Q359 169 324 204Q289 239 240 239Q190 239 155 204Q120 169 120 120Q120 70 155 35Q190 0 240 0Q289 0 324 35Z" />
<glyph unicode="/" glyph-name="slash" horiz-adv-x="917" d="M229 0T249 0Q334 0 362 80L781 1276Q797 1323 775 1368Q754 1412 707 1429Q660 1445 616 1424Q571 1402 555 1355L136 159Q120 112 141 68Q163 23 209 7Q229 0 249 0Z" />
<glyph unicode="0" glyph-name="zero" horiz-adv-x="1376" d="M359 867Q359 1003 456 1100Q552 1196 688 1196Q824 1196 921 1100Q1017 1003 1017 867V568Q1017 432 921 336Q824 239 688 239Q552 239 456 336Q359 432 359 568V867ZM923 0T1090 167Q1256 333 1256
568V867Q1256 1102 1090 1269Q923 1435 688 1435Q453 1435 287 1269Q120 1102 120 867V568Q120 333 287 167Q453 0 688 0Q923 0 1090 167Z" />
<glyph unicode="1" glyph-name="one" horiz-adv-x="964" d="M605 1077V120Q605 70 640 35Q675 0 724 0Q774 0 809 35Q844 70 844 120V1316Q844 1390 778 1423Q712 1456 652 1411L174 1053Q134 1023 127 974Q120 925 150 885Q180 845 229 838Q278 831 318 861L605 1077Z" />
<glyph unicode="2" glyph-name="two" horiz-adv-x="1355" d="M478 1192T670 1196Q761 1198 849 1169Q945 1138 978 1089Q984 1079 983 1073Q981 1060 955 1032Q774 844 418 463Q269 303 191 220L174 201Q120 144 151 72Q182 0 261 0H1098Q1148 0 1183 35Q1218
70 1218 120Q1218 169 1183 204Q1148 239 1098 239H536Q555 259 593 300Q947 680 1127 866Q1206 948 1220 1035Q1235 1134 1177 1221Q1100 1338 929 1395Q799 1438 666 1435Q377 1430 172 1225Q137 1190 137 1141Q137 1091 172 1056Q207 1021 257 1021Q306 1021
341 1056Q478 1192 670 1196Z" />
<glyph unicode="3" glyph-name="three" horiz-adv-x="1317" d="M240 239Q190 239 155 204Q120 169 120 120Q120 70 155 35Q190 0 240 0H778Q951 0 1074 123Q1197 246 1197 419Q1197 594 1070 718Q1197 841 1197 1017Q1197 1190 1074 1313Q951 1435 778 1435H240Q190
1435 155 1400Q120 1365 120 1316Q120 1266 155 1231Q190 1196 240 1196H778Q852 1196 905 1144Q957 1091 957 1017Q957 943 905 890Q852 837 778 837H479Q429 837 394 802Q359 767 359 718Q359 668 394 633Q429 598 479 598H778Q852 598 905 545Q957 493 957 419Q957
344 905 292Q852 239 778 239H240Z" />
<glyph unicode="4" glyph-name="four" horiz-adv-x="1511" d="M852 419V120Q852 70 888 35Q923 0 972 0Q1022 0 1057 35Q1092 70 1092 120V419H1271Q1321 419 1356 454Q1391 489 1391 538Q1391 588 1356 623Q1321 658 1271 658H1092V837Q1092 887 1057 922Q1022
957 972 957Q923 957 888 922Q852 887 852 837V658H429L665 1273Q683 1319 663 1364Q643 1410 596 1427Q550 1445 505 1425Q460 1405 442 1359L143 581Q120 522 156 471Q191 419 254 419H852Z" />
<glyph unicode="5" glyph-name="five" horiz-adv-x="1317" d="M240 239Q190 239 155 204Q120 169 120 120Q120 70 155 35Q190 0 240 0H778Q951 0 1074 123Q1197 246 1197 419Q1197 592 1074 715Q951 837 778 837H359V1196H1077Q1126 1196 1161 1231Q1197 1266
1197 1316Q1197 1365 1161 1400Q1126 1435 1077 1435H240Q190 1435 155 1400Q120 1365 120 1316V718Q120 668 155 633Q190 598 240 598H778Q852 598 905 545Q957 493 957 419Q957 344 905 292Q852 239 778 239H240Z" />
<glyph unicode="6" glyph-name="six" horiz-adv-x="1317" d="M778 598Q852 598 905 545Q957 493 957 419Q957 344 905 292Q852 239 778 239H539Q464 239 412 292Q359 344 359 419Q359 493 412 545Q464 598 539 598H778ZM778 0Q951 0 1074 123Q1197 246 1197 419Q1197
592 1074 715Q951 837 778 837H539Q444 837 359 797V1017Q359 1091 412 1144Q464 1196 539 1196H1077Q1126 1196 1161 1231Q1197 1266 1197 1316Q1197 1365 1161 1400Q1126 1435 1077 1435H539Q366 1435 243 1313Q120 1190 120 1017V419Q120 246 243 123Q366 0
539 0H778Z" />
<glyph unicode="7" glyph-name="seven" horiz-adv-x="1392" d="M952 1196L489 169Q469 124 487 77Q504 31 549 11Q573 0 598 0Q676 0 708 71L1246 1267Q1272 1326 1237 1381Q1202 1435 1137 1435H240Q190 1435 155 1400Q120 1365 120 1316Q120 1266 155 1231Q190
1196 240 1196H952Z" />
<glyph unicode="8" glyph-name="eight" horiz-adv-x="1317" d="M778 598Q852 598 905 545Q957 493 957 419Q957 344 905 292Q852 239 778 239H539Q464 239 412 292Q359 344 359 419Q359 493 412 545Q464 598 539 598H778ZM359 1091T412 1144Q464 1196 539 1196H778Q852
1196 905 1144Q957 1091 957 1017Q957 943 905 890Q852 837 778 837H539Q464 837 412 890Q359 943 359 1017Q359 1091 412 1144ZM120 246T243 123Q366 0 539 0H778Q951 0 1074 123Q1197 246 1197 419Q1197 594 1070 718Q1197 841 1197 1017Q1197 1190 1074 1313Q951
1435 778 1435H539Q366 1435 243 1313Q120 1190 120 1017Q120 841 246 718Q120 594 120 419Q120 246 243 123Z" />
<glyph unicode="9" glyph-name="nine" horiz-adv-x="1317" d="M778 1196Q852 1196 905 1144Q957 1091 957 1017Q957 943 905 890Q852 837 778 837H539Q464 837 412 890Q359 943 359 1017Q359 1091 412 1144Q464 1196 539 1196H778ZM778 598Q872 598 957 639V120Q957
70 992 35Q1027 0 1077 0Q1126 0 1161 35Q1197 70 1197 120V1017Q1197 1190 1074 1313Q951 1435 778 1435H539Q366 1435 243 1313Q120 1190 120 1017Q120 844 243 721Q366 598 539 598H778Z" />
<glyph unicode=":" glyph-name="colon" horiz-adv-x="479" d="M289 0T324 35Q359 70 359 120Q359 169 324 204Q289 239 240 239Q190 239 155 204Q120 169 120 120Q120 70 155 35Q190 0 240 0Q289 0 324 35ZM289 359T324 394Q359 429 359 478Q359 528 324 563Q289
598 240 598Q190 598 155 563Q120 528 120 478Q120 429 155 394Q190 359 240 359Q289 359 324 394Z" />
<glyph unicode=";" glyph-name="semicolon" horiz-adv-x="778" d="M588 357T623 392Q658 427 658 476Q658 526 623 561Q588 596 539 596Q489 596 454 561Q419 526 419 476Q419 427 454 392Q489 357 539 357Q588 357 623 392ZM413 -301T535 -178Q658 -55 658 118Q658
167 623 202Q588 237 539 237Q489 237 454 202Q419 167 419 118Q419 43 366 -9Q314 -62 240 -62Q190 -62 155 -97Q120 -132 120 -181Q120 -231 155 -266Q190 -301 240 -301Q413 -301 535 -178Z" />
<glyph unicode="&lt;" glyph-name="less" horiz-adv-x="898" d="M574 212Q609 177 658 177Q708 177 743 212Q778 247 778 297Q778 346 743 381L409 715L743 1049Q778 1084 778 1134Q778 1183 743 1218Q708 1254 658 1254Q609 1254 574 1218L155 800Q120 765 120
715Q120 666 155 631L574 212Z" />
<glyph unicode="=" glyph-name="equal" horiz-adv-x="1137" d="M897 420Q947 420 982 455Q1017 490 1017 540Q1017 589 982 624Q947 659 897 659H240Q190 659 155 624Q120 589 120 540Q120 490 155 455Q190 420 240 420H897ZM897 779Q947 779 982 814Q1017 849
1017 898Q1017 948 982 983Q947 1018 897 1018H240Q190 1018 155 983Q120 948 120 898Q120 849 155 814Q190 779 240 779H897Z" />
<glyph unicode="&gt;" glyph-name="greater" horiz-adv-x="898" d="M190 177T240 177Q289 177 324 212L743 631Q778 666 778 715Q778 765 743 800L324 1218Q289 1254 240 1254Q190 1254 155 1218Q120 1183 120 1134Q120 1084 155 1049L489 715L155 381Q120 346
120 297Q120 247 155 212Q190 177 240 177Z" />
<glyph unicode="?" glyph-name="question" horiz-adv-x="1197" d="M289 837T324 872Q359 907 359 957Q359 1056 429 1126Q500 1196 598 1196Q697 1196 768 1126Q838 1056 838 957Q838 858 768 788Q697 718 598 718Q549 718 514 683Q479 648 479 598V419Q479 369
514 334Q549 299 598 299Q648 299 683 334Q718 369 718 419V494Q874 534 975 662Q1077 792 1077 957Q1077 1155 937 1295Q796 1435 598 1435Q401 1435 260 1295Q120 1155 120 957Q120 907 155 872Q190 837 240 837Q289 837 324 872ZM549 239T514 204Q479 169 479
120Q479 70 514 35Q549 0 598 0Q648 0 683 35Q718 70 718 120Q718 169 683 204Q648 239 598 239Q549 239 514 204Z" />
<glyph unicode="@" glyph-name="at" horiz-adv-x="1696" d="M798 582T763 617Q727 652 727 702Q727 751 763 786Q798 821 847 821Q897 821 932 786Q967 751 967 702Q967 652 932 617Q897 582 847 582Q798 582 763 617ZM201 1044T161 911Q120 777 132 640Q132 641
132 633Q133 625 133 624Q151 464 236 325Q393 72 682 3Q696 0 710 0Q751 0 783 25Q816 51 826 92Q837 140 811 182Q785 225 737 236Q544 282 440 450Q424 476 411 506Q406 516 402 525Q402 527 402 527Q349 662 380 804Q410 943 511 1043V1043Q518 1049 527 1057Q529
1059 531 1061Q537 1066 543 1071Q547 1074 551 1078Q556 1081 561 1085Q566 1089 572 1093Q575 1095 579 1098Q585 1102 592 1106Q596 1109 600 1111Q605 1114 611 1118Q617 1121 622 1124Q626 1126 631 1128Q639 1133 646 1136Q649 1137 651 1138Q661 1143 670
1146Q669 1146 672 1147Q790 1193 914 1175Q1036 1158 1134 1084Q1135 1084 1139 1080Q1146 1075 1151 1071Q1156 1067 1162 1062Q1166 1058 1167 1057Q1291 946 1319 782Q1318 786 1319 778Q1321 767 1322 759Q1322 758 1323 748Q1324 739 1324 737Q1325 729 1325
719Q1325 718 1325 716V714Q1330 527 1206 385V702Q1206 850 1101 955Q995 1060 847 1060Q699 1060 593 955Q488 850 488 702Q488 553 593 448Q699 343 847 343Q909 343 967 363V163Q967 99 1020 64Q1053 38 1095 38Q1121 38 1144 48Q1415 171 1519 450Q1576 603
1562 764Q1562 764 1562 770Q1561 778 1561 779Q1546 916 1481 1039Q1415 1162 1309 1251Q1308 1252 1304 1256Q1298 1261 1297 1261Q1189 1348 1056 1388Q923 1429 785 1417Q785 1417 778 1416Q770 1416 769 1415Q632 1401 510 1335Q386 1270 298 1164Q297 1163
293 1158Q288 1152 287 1151Q201 1044 161 911Z" />
<glyph unicode="A" glyph-name="A" horiz-adv-x="1575" d="M787 1025L1006 539H569L787 1025ZM245 -9T291 8Q338 26 358 71L461 299H1114L1216 71Q1248 0 1326 0Q1351 0 1375 11Q1420 31 1437 78Q1455 124 1435 169L896 1365Q865 1436 787 1436Q710 1436 678 1365L140
169Q120 124 137 78Q155 31 200 11Q245 -9 291 8Z" />
<glyph unicode="B" glyph-name="B" horiz-adv-x="1436" d="M359 598H897Q972 598 1024 545Q1077 493 1077 419Q1077 344 1024 292Q972 239 897 239H359V598ZM359 1196H778Q852 1196 905 1144Q957 1091 957 1017Q957 943 905 890Q852 837 778 837H359V1196ZM897
0Q1071 0 1193 123Q1316 246 1316 419Q1316 651 1119 774Q1197 883 1197 1017Q1197 1190 1074 1313Q951 1435 778 1435H240Q190 1435 155 1400Q120 1365 120 1316V120Q120 70 155 35Q190 0 240 0H897Z" />
<glyph unicode="C" glyph-name="C" horiz-adv-x="1500" d="M1135 0T1345 210Q1380 245 1380 295Q1380 344 1345 379Q1310 414 1261 414Q1211 414 1176 379Q1036 239 838 239Q639 239 499 379Q359 519 359 718Q359 916 499 1056Q639 1196 838 1196Q1036 1196 1176
1056Q1211 1021 1261 1021Q1310 1021 1345 1056Q1380 1091 1380 1141Q1380 1190 1345 1225Q1135 1435 838 1435Q540 1435 330 1225Q120 1015 120 718Q120 420 330 210Q540 0 838 0Q1135 0 1345 210Z" />
<glyph unicode="D" glyph-name="D" horiz-adv-x="1436" d="M359 1196H598Q796 1196 937 1056Q1077 916 1077 718Q1077 520 937 380Q796 239 598 239H359V1196ZM598 0Q895 0 1106 210Q1316 421 1316 718Q1316 1014 1106 1225Q895 1435 598 1435H240Q190 1435 155
1400Q120 1365 120 1316V120Q120 70 155 35Q190 0 240 0H598Z" />
<glyph unicode="E" glyph-name="E" horiz-adv-x="1436" d="M1197 0Q1246 0 1281 35Q1316 70 1316 120Q1316 169 1281 204Q1246 239 1197 239H359V598H957Q1007 598 1042 633Q1077 668 1077 718Q1077 767 1042 802Q1007 837 957 837H359V1196H1197Q1246 1196 1281
1231Q1316 1266 1316 1316Q1316 1365 1281 1400Q1246 1435 1197 1435H240Q190 1435 155 1400Q120 1365 120 1316V120Q120 70 155 35Q190 0 240 0H1197Z" />
<glyph unicode="F" glyph-name="F" horiz-adv-x="1436" d="M289 0T324 35Q359 70 359 120V598H957Q1007 598 1042 633Q1077 668 1077 718Q1077 767 1042 802Q1007 837 957 837H359V1196H1197Q1246 1196 1281 1231Q1316 1266 1316 1316Q1316 1365 1281 1400Q1246
1435 1197 1435H240Q190 1435 155 1400Q120 1365 120 1316V120Q120 70 155 35Q190 0 240 0Q289 0 324 35Z" />
<glyph unicode="G" glyph-name="G" horiz-adv-x="1500" d="M540 0T838 0Q1135 0 1345 210Q1380 245 1380 295V718Q1380 767 1345 802Q1310 837 1261 837H778Q728 837 693 802Q658 767 658 718Q658 668 693 633Q728 598 778 598H1141V348Q1009 239 838 239Q639
239 499 379Q359 519 359 718Q359 916 499 1056Q639 1196 838 1196Q1036 1196 1176 1056Q1211 1021 1261 1021Q1310 1021 1345 1056Q1380 1091 1380 1141Q1380 1190 1345 1225Q1135 1435 838 1435Q540 1435 330 1225Q120 1015 120 718Q120 420 330 210Q540 0 838
0Z" />
<glyph unicode="H" glyph-name="H" horiz-adv-x="1436" d="M289 0T324 35Q359 70 359 120V598H1077V120Q1077 70 1112 35Q1147 0 1197 0Q1246 0 1281 35Q1316 70 1316 120V1316Q1316 1365 1281 1400Q1246 1435 1197 1435Q1147 1435 1112 1400Q1077 1365 1077 1316V837H359V1316Q359
1365 324 1400Q289 1435 240 1435Q190 1435 155 1400Q120 1365 120 1316V120Q120 70 155 35Q190 0 240 0Q289 0 324 35Z" />
<glyph unicode="I" glyph-name="I" horiz-adv-x="479" d="M289 0T324 35Q359 70 359 120V1316Q359 1365 324 1400Q289 1435 240 1435Q190 1435 155 1400Q120 1365 120 1316V120Q120 70 155 35Q190 0 240 0Q289 0 324 35Z" />
<glyph unicode="J" glyph-name="J" horiz-adv-x="1077" d="M536 0T747 210Q957 421 957 718V1316Q957 1365 922 1400Q887 1435 838 1435Q788 1435 753 1400Q718 1365 718 1316V718Q718 520 578 380Q437 239 240 239Q190 239 155 204Q120 169 120 120Q120 70 155
35Q190 0 240 0Q536 0 747 210Z" />
<glyph unicode="K" glyph-name="K" horiz-adv-x="1441" d="M289 0T324 35Q359 70 359 120V495Q368 499 374 505L492 599L1116 31Q1150 0 1196 0Q1249 0 1285 39Q1318 76 1316 125Q1314 175 1277 208L681 750L1271 1222Q1310 1253 1315 1303Q1321 1352 1290 1390Q1259
1429 1210 1435Q1160 1440 1122 1409L359 799V1316Q359 1365 324 1400Q289 1435 240 1435Q190 1435 155 1400Q120 1365 120 1316V120Q120 70 155 35Q190 0 240 0Q289 0 324 35Z" />
<glyph unicode="L" glyph-name="L" horiz-adv-x="1436" d="M359 239V1316Q359 1365 324 1400Q289 1435 240 1435Q190 1435 155 1400Q120 1365 120 1316V120Q120 70 155 35Q190 0 240 0H1197Q1246 0 1281 35Q1316 70 1316 120Q1316 169 1281 204Q1246 239 1197 239H359Z" />
<glyph unicode="M" glyph-name="M" horiz-adv-x="1795" d="M289 0T324 35Q359 70 359 120V970L803 405Q839 359 897 359Q956 359 992 405L1436 970V120Q1436 70 1471 35Q1506 0 1555 0Q1605 0 1640 35Q1675 70 1675 120V1316Q1675 1401 1594 1429Q1514 1457 1461
1390L897 672L334 1390Q281 1457 201 1429Q120 1401 120 1316V120Q120 70 155 35Q190 0 240 0Q289 0 324 35Z" />
<glyph unicode="N" glyph-name="N" horiz-adv-x="1496" d="M289 0T324 35Q359 70 359 120V990L1165 42Q1201 0 1256 0Q1278 0 1298 7Q1376 36 1376 120V1316Q1376 1365 1341 1400Q1306 1435 1256 1435Q1207 1435 1172 1400Q1137 1365 1137 1316V445L331 1393Q277
1457 198 1428Q120 1399 120 1316V120Q120 70 155 35Q190 0 240 0Q289 0 324 35Z" />
<glyph unicode="O" glyph-name="O" horiz-adv-x="1675" d="M1036 1196T1176 1056Q1316 916 1316 718Q1316 520 1176 380Q1036 239 838 239Q640 239 500 380Q359 520 359 718Q359 916 500 1056Q640 1196 838 1196Q1036 1196 1176 1056ZM1134 0T1345 210Q1555 421
1555 718Q1555 1014 1345 1225Q1134 1435 838 1435Q541 1435 330 1225Q120 1014 120 718Q120 421 330 210Q541 0 838 0Q1134 0 1345 210Z" />
<glyph unicode="P" glyph-name="P" horiz-adv-x="1436" d="M359 1196H838Q937 1196 1007 1126Q1077 1056 1077 957Q1077 858 1007 788Q937 718 838 718H359V1196ZM289 0T324 35Q359 70 359 120V478H838Q1036 478 1176 619Q1316 759 1316 957Q1316 1155 1176 1295Q1036
1435 838 1435H240Q190 1435 155 1400Q120 1365 120 1316V120Q120 70 155 35Q190 0 240 0Q289 0 324 35Z" />
<glyph unicode="Q" glyph-name="Q" horiz-adv-x="1675" d="M1036 1200T1176 1059Q1316 919 1316 721Q1316 523 1176 383Q1036 243 838 243Q640 243 500 383Q359 523 359 721Q359 919 500 1059Q640 1200 838 1200Q1036 1200 1176 1059ZM963 3T1080 45L1178 -118Q1213
-176 1280 -176Q1313 -176 1342 -159Q1384 -133 1396 -85Q1408 -37 1383 5L1288 163Q1555 379 1555 721Q1555 1018 1345 1228Q1134 1439 838 1439Q541 1439 330 1228Q120 1018 120 721Q120 424 330 214Q541 3 838 3Q963 3 1080 45Z" />
<glyph unicode="R" glyph-name="R" horiz-adv-x="1444" d="M359 1196H838Q937 1196 1007 1126Q1077 1056 1077 957Q1077 858 1007 788Q937 718 838 718H359V1196ZM289 0T324 35Q359 70 359 120V478H831L1095 56Q1130 0 1197 0Q1231 0 1260 18Q1302 44 1313 93Q1324
141 1298 183L1074 541Q1184 604 1249 713Q1316 826 1316 957Q1316 1155 1176 1295Q1036 1435 838 1435H240Q190 1435 155 1400Q120 1365 120 1316V120Q120 70 155 35Q190 0 240 0Q289 0 324 35Z" />
<glyph unicode="S" glyph-name="S" horiz-adv-x="1476" d="M870 222T661 243Q452 264 336 380Q301 415 252 415Q202 415 167 380Q132 345 132 295Q132 246 167 211Q378 0 734 0Q962 0 1146 99Q1207 132 1251 186Q1356 316 1325 474Q1292 640 1135 725Q1040 777
852 813L837 816Q698 843 561 884Q554 886 540 890Q455 915 425 932Q387 953 376 989Q357 1053 402 1101Q504 1212 777 1195Q1003 1181 1128 1056Q1163 1021 1213 1021Q1262 1021 1297 1056Q1332 1091 1332 1141Q1332 1190 1297 1225Q1109 1414 792 1434Q406 1458
226 1264Q163 1196 142 1102Q120 1008 147 920Q183 802 288 736Q348 698 473 661Q485 657 492 655Q640 611 791 581L807 578Q959 549 1021 515Q1079 483 1090 427Q1099 380 1064 336Q1051 320 1033 310Q870 222 661 243Z" />
<glyph unicode="T" glyph-name="T" horiz-adv-x="1436" d="M598 1196V120Q598 70 633 35Q669 0 718 0Q768 0 803 35Q838 70 838 120V1196H1197Q1246 1196 1281 1231Q1316 1266 1316 1316Q1316 1365 1281 1400Q1246 1435 1197 1435H240Q190 1435 155 1400Q120 1365
120 1316Q120 1266 155 1231Q190 1196 240 1196H598Z" />
<glyph unicode="U" glyph-name="U" horiz-adv-x="1496" d="M1008 0T1192 184Q1376 368 1376 628V1316Q1376 1365 1341 1400Q1306 1435 1256 1435Q1207 1435 1172 1400Q1137 1365 1137 1316V628Q1137 467 1023 353Q909 239 748 239Q587 239 473 353Q359 467 359
628V1316Q359 1365 324 1400Q289 1435 240 1435Q190 1435 155 1400Q120 1365 120 1316V628Q120 368 304 184Q488 0 748 0Q1008 0 1192 184Z" />
<glyph unicode="V" glyph-name="V" horiz-adv-x="1575" d="M678 71Q710 0 787 0Q865 0 896 71L1435 1267Q1455 1312 1437 1358Q1420 1404 1375 1425Q1329 1445 1283 1428Q1237 1410 1216 1365L787 411L358 1365Q338 1410 291 1428Q245 1445 200 1425Q155 1404
137 1358Q120 1312 140 1267L678 71Z" />
<glyph unicode="W" glyph-name="W" horiz-adv-x="2293" d="M678 71Q709 3 783 0Q857 -3 892 62L1146 528L1400 62Q1434 0 1505 0H1509Q1584 3 1614 71L2152 1267Q2173 1312 2155 1358Q2137 1405 2092 1425Q2047 1445 2001 1428Q1954 1410 1934 1365L1495 388L1251
835Q1217 897 1146 897Q1075 897 1041 835L798 388L358 1365Q338 1410 291 1428Q245 1445 200 1425Q155 1405 137 1358Q120 1312 140 1267L678 71Z" />
<glyph unicode="X" glyph-name="X" horiz-adv-x="1446" d="M203 0T245 0Q302 0 338 45L723 526L1108 45Q1144 0 1202 0Q1244 0 1276 26Q1315 57 1320 106Q1326 156 1295 194L876 718L1295 1241Q1326 1280 1320 1329Q1315 1378 1276 1409Q1238 1440 1188 1435Q1139
1429 1108 1390L723 909L338 1390Q307 1429 258 1435Q209 1440 170 1409Q131 1378 126 1329Q120 1280 151 1241L570 718L151 194Q120 156 126 106Q131 57 170 26Q203 0 245 0Z" />
<glyph unicode="Y" glyph-name="Y" horiz-adv-x="1451" d="M606 562V120Q606 70 641 35Q676 0 725 0Q775 0 810 35Q845 70 845 120V562L1303 1249Q1331 1291 1321 1339Q1311 1388 1270 1415Q1229 1443 1180 1433Q1132 1423 1104 1382L725 814L346 1382Q319 1423
270 1433Q222 1443 180 1415Q139 1388 130 1339Q120 1291 147 1249L606 562Z" />
<glyph unicode="Z" glyph-name="Z" horiz-adv-x="1477" d="M968 1196L167 194Q120 136 152 68Q185 0 260 0H1217Q1267 0 1302 35Q1337 70 1337 120Q1337 169 1302 204Q1267 239 1217 239H509L1310 1241Q1357 1300 1325 1368Q1292 1435 1217 1435H260Q211 1435
176 1400Q141 1365 141 1316Q141 1266 176 1231Q211 1196 260 1196H968Z" />
<glyph unicode="^" glyph-name="asciicircum" horiz-adv-x="787" d="M190 1706T227 1711Q263 1716 286 1746L393 1890L501 1746Q528 1710 573 1710Q603 1710 626 1728Q656 1750 661 1787Q667 1824 644 1854L465 2093Q438 2129 393 2129Q348 2129 321 2093L142
1854Q120 1824 125 1787Q130 1750 160 1728Q190 1706 227 1711Z" />
<glyph unicode="_" glyph-name="underscore" horiz-adv-x="1137" d="M897 0Q947 0 982 35Q1017 70 1017 120Q1017 169 982 204Q947 239 897 239H240Q190 239 155 204Q120 169 120 120Q120 70 155 35Q190 0 240 0H897Z" />
<glyph unicode="`" glyph-name="grave" horiz-adv-x="549" d="M254 1756Q280 1710 333 1710Q356 1710 376 1721Q409 1739 419 1775Q429 1811 411 1843L295 2052Q277 2084 242 2094Q206 2105 173 2086Q141 2068 131 2033Q120 1997 139 1964L254 1756Z" />
<glyph unicode="a" glyph-name="a" horiz-adv-x="1575" d="M787 1025L1006 539H569L787 1025ZM245 -9T291 8Q338 26 358 71L461 299H1114L1216 71Q1248 0 1326 0Q1351 0 1375 11Q1420 31 1437 78Q1455 124 1435 169L896 1365Q865 1436 787 1436Q710 1436 678 1365L140
169Q120 124 137 78Q155 31 200 11Q245 -9 291 8Z" />
<glyph unicode="b" glyph-name="b" horiz-adv-x="1436" d="M359 598H897Q972 598 1024 545Q1077 493 1077 419Q1077 344 1024 292Q972 239 897 239H359V598ZM359 1196H778Q852 1196 905 1144Q957 1091 957 1017Q957 943 905 890Q852 837 778 837H359V1196ZM897
0Q1071 0 1193 123Q1316 246 1316 419Q1316 651 1119 774Q1197 883 1197 1017Q1197 1190 1074 1313Q951 1435 778 1435H240Q190 1435 155 1400Q120 1365 120 1316V120Q120 70 155 35Q190 0 240 0H897Z" />
<glyph unicode="c" glyph-name="c" horiz-adv-x="1500" d="M1135 0T1345 210Q1380 245 1380 295Q1380 344 1345 379Q1310 414 1261 414Q1211 414 1176 379Q1036 239 838 239Q639 239 499 379Q359 519 359 718Q359 916 499 1056Q639 1196 838 1196Q1036 1196 1176
1056Q1211 1021 1261 1021Q1310 1021 1345 1056Q1380 1091 1380 1141Q1380 1190 1345 1225Q1135 1435 838 1435Q540 1435 330 1225Q120 1015 120 718Q120 420 330 210Q540 0 838 0Q1135 0 1345 210Z" />
<glyph unicode="d" glyph-name="d" horiz-adv-x="1436" d="M359 1196H598Q796 1196 937 1056Q1077 916 1077 718Q1077 520 937 380Q796 239 598 239H359V1196ZM598 0Q895 0 1106 210Q1316 421 1316 718Q1316 1014 1106 1225Q895 1435 598 1435H240Q190 1435 155
1400Q120 1365 120 1316V120Q120 70 155 35Q190 0 240 0H598Z" />
<glyph unicode="e" glyph-name="e" horiz-adv-x="1436" d="M1197 0Q1246 0 1281 35Q1316 70 1316 120Q1316 169 1281 204Q1246 239 1197 239H359V598H957Q1007 598 1042 633Q1077 668 1077 718Q1077 767 1042 802Q1007 837 957 837H359V1196H1197Q1246 1196 1281
1231Q1316 1266 1316 1316Q1316 1365 1281 1400Q1246 1435 1197 1435H240Q190 1435 155 1400Q120 1365 120 1316V120Q120 70 155 35Q190 0 240 0H1197Z" />
<glyph unicode="f" glyph-name="f" horiz-adv-x="1436" d="M289 0T324 35Q359 70 359 120V598H957Q1007 598 1042 633Q1077 668 1077 718Q1077 767 1042 802Q1007 837 957 837H359V1196H1197Q1246 1196 1281 1231Q1316 1266 1316 1316Q1316 1365 1281 1400Q1246
1435 1197 1435H240Q190 1435 155 1400Q120 1365 120 1316V120Q120 70 155 35Q190 0 240 0Q289 0 324 35Z" />
<glyph unicode="g" glyph-name="g" horiz-adv-x="1500" d="M540 0T838 0Q1135 0 1345 210Q1380 245 1380 295V718Q1380 767 1345 802Q1310 837 1261 837H778Q728 837 693 802Q658 767 658 718Q658 668 693 633Q728 598 778 598H1141V348Q1009 239 838 239Q639
239 499 379Q359 519 359 718Q359 916 499 1056Q639 1196 838 1196Q1036 1196 1176 1056Q1211 1021 1261 1021Q1310 1021 1345 1056Q1380 1091 1380 1141Q1380 1190 1345 1225Q1135 1435 838 1435Q540 1435 330 1225Q120 1015 120 718Q120 420 330 210Q540 0 838
0Z" />
<glyph unicode="h" glyph-name="h" horiz-adv-x="1436" d="M289 0T324 35Q359 70 359 120V598H1077V120Q1077 70 1112 35Q1147 0 1197 0Q1246 0 1281 35Q1316 70 1316 120V1316Q1316 1365 1281 1400Q1246 1435 1197 1435Q1147 1435 1112 1400Q1077 1365 1077 1316V837H359V1316Q359
1365 324 1400Q289 1435 240 1435Q190 1435 155 1400Q120 1365 120 1316V120Q120 70 155 35Q190 0 240 0Q289 0 324 35Z" />
<glyph unicode="i" glyph-name="i" horiz-adv-x="479" d="M289 0T324 35Q359 70 359 120V1316Q359 1365 324 1400Q289 1435 240 1435Q190 1435 155 1400Q120 1365 120 1316V120Q120 70 155 35Q190 0 240 0Q289 0 324 35Z" />
<glyph unicode="j" glyph-name="j" horiz-adv-x="1077" d="M536 0T747 210Q957 421 957 718V1316Q957 1365 922 1400Q887 1435 838 1435Q788 1435 753 1400Q718 1365 718 1316V718Q718 520 578 380Q437 239 240 239Q190 239 155 204Q120 169 120 120Q120 70 155
35Q190 0 240 0Q536 0 747 210Z" />
<glyph unicode="k" glyph-name="k" horiz-adv-x="1441" d="M289 0T324 35Q359 70 359 120V495Q368 499 374 505L492 599L1116 31Q1150 0 1196 0Q1249 0 1285 39Q1318 76 1316 125Q1314 175 1277 208L681 750L1271 1222Q1310 1253 1315 1303Q1321 1352 1290 1390Q1259
1429 1210 1435Q1160 1440 1122 1409L359 799V1316Q359 1365 324 1400Q289 1435 240 1435Q190 1435 155 1400Q120 1365 120 1316V120Q120 70 155 35Q190 0 240 0Q289 0 324 35Z" />
<glyph unicode="l" glyph-name="l" horiz-adv-x="1436" d="M359 239V1316Q359 1365 324 1400Q289 1435 240 1435Q190 1435 155 1400Q120 1365 120 1316V120Q120 70 155 35Q190 0 240 0H1197Q1246 0 1281 35Q1316 70 1316 120Q1316 169 1281 204Q1246 239 1197 239H359Z" />
<glyph unicode="m" glyph-name="m" horiz-adv-x="1795" d="M289 0T324 35Q359 70 359 120V970L803 405Q839 359 897 359Q956 359 992 405L1436 970V120Q1436 70 1471 35Q1506 0 1555 0Q1605 0 1640 35Q1675 70 1675 120V1316Q1675 1401 1594 1429Q1514 1457 1461
1390L897 672L334 1390Q281 1457 201 1429Q120 1401 120 1316V120Q120 70 155 35Q190 0 240 0Q289 0 324 35Z" />
<glyph unicode="n" glyph-name="n" horiz-adv-x="1496" d="M289 0T324 35Q359 70 359 120V990L1165 42Q1201 0 1256 0Q1278 0 1298 7Q1376 36 1376 120V1316Q1376 1365 1341 1400Q1306 1435 1256 1435Q1207 1435 1172 1400Q1137 1365 1137 1316V445L331 1393Q277
1457 198 1428Q120 1399 120 1316V120Q120 70 155 35Q190 0 240 0Q289 0 324 35Z" />
<glyph unicode="o" glyph-name="o" horiz-adv-x="1675" d="M1036 1196T1176 1056Q1316 916 1316 718Q1316 520 1176 380Q1036 239 838 239Q640 239 500 380Q359 520 359 718Q359 916 500 1056Q640 1196 838 1196Q1036 1196 1176 1056ZM1134 0T1345 210Q1555 421
1555 718Q1555 1014 1345 1225Q1134 1435 838 1435Q541 1435 330 1225Q120 1014 120 718Q120 421 330 210Q541 0 838 0Q1134 0 1345 210Z" />
<glyph unicode="p" glyph-name="p" horiz-adv-x="1436" d="M359 1196H838Q937 1196 1007 1126Q1077 1056 1077 957Q1077 858 1007 788Q937 718 838 718H359V1196ZM289 0T324 35Q359 70 359 120V478H838Q1036 478 1176 619Q1316 759 1316 957Q1316 1155 1176 1295Q1036
1435 838 1435H240Q190 1435 155 1400Q120 1365 120 1316V120Q120 70 155 35Q190 0 240 0Q289 0 324 35Z" />
<glyph unicode="q" glyph-name="q" horiz-adv-x="1675" d="M1036 1200T1176 1059Q1316 919 1316 721Q1316 523 1176 383Q1036 243 838 243Q640 243 500 383Q359 523 359 721Q359 919 500 1059Q640 1200 838 1200Q1036 1200 1176 1059ZM963 3T1080 45L1178 -118Q1213
-176 1280 -176Q1313 -176 1342 -159Q1384 -133 1396 -85Q1408 -37 1383 5L1288 163Q1555 379 1555 721Q1555 1018 1345 1228Q1134 1439 838 1439Q541 1439 330 1228Q120 1018 120 721Q120 424 330 214Q541 3 838 3Q963 3 1080 45Z" />
<glyph unicode="r" glyph-name="r" horiz-adv-x="1444" d="M359 1196H838Q937 1196 1007 1126Q1077 1056 1077 957Q1077 858 1007 788Q937 718 838 718H359V1196ZM289 0T324 35Q359 70 359 120V478H831L1095 56Q1130 0 1197 0Q1231 0 1260 18Q1302 44 1313 93Q1324
141 1298 183L1074 541Q1184 604 1249 713Q1316 826 1316 957Q1316 1155 1176 1295Q1036 1435 838 1435H240Q190 1435 155 1400Q120 1365 120 1316V120Q120 70 155 35Q190 0 240 0Q289 0 324 35Z" />
<glyph unicode="s" glyph-name="s" horiz-adv-x="1476" d="M870 222T661 243Q452 264 336 380Q301 415 252 415Q202 415 167 380Q132 345 132 295Q132 246 167 211Q378 0 734 0Q962 0 1146 99Q1207 132 1251 186Q1356 316 1325 474Q1292 640 1135 725Q1040 777
852 813L837 816Q698 843 561 884Q554 886 540 890Q455 915 425 932Q387 953 376 989Q357 1053 402 1101Q504 1212 777 1195Q1003 1181 1128 1056Q1163 1021 1213 1021Q1262 1021 1297 1056Q1332 1091 1332 1141Q1332 1190 1297 1225Q1109 1414 792 1434Q406 1458
226 1264Q163 1196 142 1102Q120 1008 147 920Q183 802 288 736Q348 698 473 661Q485 657 492 655Q640 611 791 581L807 578Q959 549 1021 515Q1079 483 1090 427Q1099 380 1064 336Q1051 320 1033 310Q870 222 661 243Z" />
<glyph unicode="t" glyph-name="t" horiz-adv-x="1436" d="M598 1196V120Q598 70 633 35Q669 0 718 0Q768 0 803 35Q838 70 838 120V1196H1197Q1246 1196 1281 1231Q1316 1266 1316 1316Q1316 1365 1281 1400Q1246 1435 1197 1435H240Q190 1435 155 1400Q120 1365
120 1316Q120 1266 155 1231Q190 1196 240 1196H598Z" />
<glyph unicode="u" glyph-name="u" horiz-adv-x="1496" d="M1008 0T1192 184Q1376 368 1376 628V1316Q1376 1365 1341 1400Q1306 1435 1256 1435Q1207 1435 1172 1400Q1137 1365 1137 1316V628Q1137 467 1023 353Q909 239 748 239Q587 239 473 353Q359 467 359
628V1316Q359 1365 324 1400Q289 1435 240 1435Q190 1435 155 1400Q120 1365 120 1316V628Q120 368 304 184Q488 0 748 0Q1008 0 1192 184Z" />
<glyph unicode="v" glyph-name="v" horiz-adv-x="1575" d="M678 71Q710 0 787 0Q865 0 896 71L1435 1267Q1455 1312 1437 1358Q1420 1404 1375 1425Q1329 1445 1283 1428Q1237 1410 1216 1365L787 411L358 1365Q338 1410 291 1428Q245 1445 200 1425Q155 1404
137 1358Q120 1312 140 1267L678 71Z" />
<glyph unicode="w" glyph-name="w" horiz-adv-x="2293" d="M678 71Q709 3 783 0Q857 -3 892 62L1146 528L1400 62Q1434 0 1505 0H1509Q1584 3 1614 71L2152 1267Q2173 1312 2155 1358Q2137 1405 2092 1425Q2047 1445 2001 1428Q1954 1410 1934 1365L1495 388L1251
835Q1217 897 1146 897Q1075 897 1041 835L798 388L358 1365Q338 1410 291 1428Q245 1445 200 1425Q155 1405 137 1358Q120 1312 140 1267L678 71Z" />
<glyph unicode="x" glyph-name="x" horiz-adv-x="1446" d="M203 0T245 0Q302 0 338 45L723 526L1108 45Q1144 0 1202 0Q1244 0 1276 26Q1315 57 1320 106Q1326 156 1295 194L876 718L1295 1241Q1326 1280 1320 1329Q1315 1378 1276 1409Q1238 1440 1188 1435Q1139
1429 1108 1390L723 909L338 1390Q307 1429 258 1435Q209 1440 170 1409Q131 1378 126 1329Q120 1280 151 1241L570 718L151 194Q120 156 126 106Q131 57 170 26Q203 0 245 0Z" />
<glyph unicode="y" glyph-name="y" horiz-adv-x="1451" d="M606 562V120Q606 70 641 35Q676 0 725 0Q775 0 810 35Q845 70 845 120V562L1303 1249Q1331 1291 1321 1339Q1311 1388 1270 1415Q1229 1443 1180 1433Q1132 1423 1104 1382L725 814L346 1382Q319 1423
270 1433Q222 1443 180 1415Q139 1388 130 1339Q120 1291 147 1249L606 562Z" />
<glyph unicode="z" glyph-name="z" horiz-adv-x="1477" d="M968 1196L167 194Q120 136 152 68Q185 0 260 0H1217Q1267 0 1302 35Q1337 70 1337 120Q1337 169 1302 204Q1267 239 1217 239H509L1310 1241Q1357 1300 1325 1368Q1292 1435 1217 1435H260Q211 1435
176 1400Q141 1365 141 1316Q141 1266 176 1231Q211 1196 260 1196H968Z" />
</font>
</defs>
</svg>
