<?xml version="1.0" standalone="no"?> <!DOCTYPE svg PUBLIC "-//W3C//DTD SVG 1.0//EN" "http://www.w3.org/TR/2001/REC-SVG-20010904/DTD/svg10.dtd" > <svg xmlns="http://www.w3.org/2000/svg" width="100%" height="100%">
<defs >
<font horiz-adv-x="1244" ><font-face
    font-family="Aoki Light"
    units-per-em="2048"
    panose-1="2 0 5 0 0 0 0 0 0 0"
    ascent="2151"
    descent="-332"
    alphabetic="0" />
<missing-glyph horiz-adv-x="1135" d="M120 957T135 943Q149 928 170 928Q190 928 205 943Q219 957 219 978Q219 1122 322 1224Q424 1326 568 1326Q712 1326 814 1224Q916 1122 916 978Q916 834 814 732Q712 630 568 630Q547 630 532 615Q518 601 518 580V315Q518
294 532 280Q547 265 568 265Q588 265 603 280Q617 294 617 315V533Q786 552 900 679Q1015 806 1015 978Q1015 1163 884 1294Q753 1426 568 1426Q382 1426 251 1294Q120 1163 120 978Q120 957 135 943ZM547 99T532 85Q518 70 518 50Q518 29 532 15Q547 0 568 0Q588
0 603 15Q617 29 617 50Q617 70 603 85Q588 99 568 99Q547 99 532 85Z" />
<glyph unicode=" " glyph-name="space" horiz-adv-x="508" />
<glyph unicode="!" glyph-name="exclam" horiz-adv-x="339" d="M149 0T170 0Q190 0 205 15Q219 29 219 50Q219 70 205 85Q190 99 170 99Q149 99 135 85Q120 70 120 50Q120 29 135 15Q149 0 170 0ZM219 1376Q219 1396 205 1411Q190 1426 170 1426Q149 1426 135
1411Q120 1396 120 1376V315Q120 294 135 280Q149 265 170 265Q190 265 205 280Q219 294 219 315V1376Z" />
<glyph unicode="&quot;" glyph-name="quotedbl" horiz-adv-x="491" d="M120 1116Q120 1095 135 1081Q149 1066 170 1066Q190 1066 205 1081Q219 1095 219 1116V1381Q219 1402 205 1416Q190 1431 170 1431Q149 1431 135 1416Q120 1402 120 1381V1116ZM300 1431T286
1416Q271 1402 271 1381V1116Q271 1095 286 1081Q300 1066 321 1066Q342 1066 356 1081Q371 1095 371 1116V1381Q371 1402 356 1416Q342 1431 321 1431Q300 1431 286 1416Z" />
<glyph unicode="#" glyph-name="numbersign" horiz-adv-x="1467" d="M606 862H965L860 564H502L606 862ZM186 891T201 877Q215 862 236 862H501L396 564H170Q149 564 135 549Q120 534 120 514Q120 493 135 479Q149 464 170 464H362L222 66Q215 47 224 28Q233 10
253 3Q261 0 269 0Q304 0 316 33L467 464H826L686 66Q680 47 689 28Q697 10 717 3Q725 0 733 0Q769 0 780 33L931 464H1231Q1251 464 1266 479Q1280 493 1280 514Q1280 534 1266 549Q1251 564 1231 564H966L1070 862H1297Q1318 862 1332 877Q1347 891 1347 912Q1347
932 1332 947Q1318 961 1297 961H1105L1244 1359Q1251 1379 1242 1397Q1233 1416 1214 1423Q1194 1430 1176 1421Q1157 1412 1151 1392L1000 961H641L780 1359Q787 1379 778 1397Q769 1416 750 1423Q730 1430 712 1421Q693 1412 686 1392L536 961H236Q215 961 201
947Q186 932 186 912Q186 891 201 877Z" />
<glyph unicode="$" glyph-name="dollar" horiz-adv-x="1162" d="M707 262T523 282Q340 301 234 406Q220 421 199 421Q179 421 164 406Q150 391 150 371Q150 350 164 336Q295 205 516 183Q525 182 536 181V50Q536 29 550 15Q565 0 585 0Q606 0 621 15Q635 29 635
50V181Q784 191 900 254Q941 276 970 312Q1042 400 1021 506Q998 619 891 677Q821 716 676 744L664 746Q549 768 436 802L420 807Q342 830 312 848Q269 873 255 918Q232 995 286 1055Q384 1160 627 1145Q828 1133 941 1019Q956 1005 976 1005Q997 1005 1012 1019Q1026
1034 1026 1055Q1026 1075 1012 1090Q872 1229 635 1244V1376Q635 1396 621 1411Q606 1426 585 1426Q565 1426 550 1411Q536 1396 536 1376V1245Q315 1232 213 1122Q120 1021 160 889Q184 810 257 765Q299 739 391 712L408 707Q525 672 645 648L657 646Q787 621
843 590Q910 554 923 487Q935 427 893 375Q876 354 853 341Q707 262 523 282Z" />
<glyph unicode="%" glyph-name="percent" horiz-adv-x="1069" d="M149 961T135 947Q120 932 120 912Q120 891 135 877Q149 862 170 862Q190 862 205 877Q219 891 219 912Q219 932 205 947Q190 961 170 961Q149 961 135 947ZM920 464T934 479Q949 493 949 514Q949
535 934 549Q920 564 899 564Q878 564 864 549Q849 535 849 514Q849 493 864 479Q878 464 899 464Q920 464 934 479ZM294 0T302 0Q338 0 349 33L813 1359Q820 1379 811 1397Q802 1416 783 1423Q763 1430 745 1421Q726 1412 720 1392L255 66Q249 47 258 28Q266 10
286 3Q294 0 302 0Z" />
<glyph unicode="&amp;" glyph-name="ampersand" horiz-adv-x="1467" d="M766 566Q746 566 731 551Q717 537 717 516Q717 496 731 481Q746 466 766 466H982Q976 313 865 207Q755 99 601 99Q443 99 331 211Q219 323 219 481Q219 638 331 750Q443 862 601 862Q621
862 636 877Q650 891 650 912Q650 932 636 947Q621 961 601 961Q525 961 472 1015Q418 1068 418 1144Q418 1219 472 1273Q525 1326 601 1326H899Q920 1326 934 1341Q949 1355 949 1376Q949 1396 934 1411Q920 1426 899 1426H601Q484 1426 402 1343Q319 1260 319
1144Q319 1011 421 927Q287 872 205 753Q120 630 120 481Q120 282 261 141Q402 0 601 0Q796 0 936 136Q1075 272 1081 466H1297Q1318 466 1332 481Q1347 496 1347 516Q1347 537 1332 551Q1318 566 1297 566H766Z" />
<glyph unicode="&apos;" glyph-name="quotesingle" horiz-adv-x="340" d="M149 1431T135 1416Q120 1402 120 1381V1116Q120 1095 135 1081Q149 1066 170 1066Q191 1066 205 1081Q220 1095 220 1116V1381Q220 1402 205 1416Q191 1431 170 1431Q149 1431 135 1416Z" />
<glyph unicode="(" glyph-name="parenleft" horiz-adv-x="723" d="M533 -252T554 -252Q574 -252 589 -237Q603 -223 603 -202Q603 -182 589 -167Q219 202 219 726Q219 1250 589 1619Q603 1634 603 1654Q603 1675 589 1689Q574 1704 554 1704Q533 1704 518 1689Q120
1291 120 726Q120 161 518 -237Q533 -252 554 -252Z" />
<glyph unicode=")" glyph-name="parenright" horiz-adv-x="723" d="M149 -249T170 -249Q190 -249 205 -234Q603 164 603 729Q603 1294 205 1692Q190 1707 170 1707Q149 1707 135 1692Q120 1678 120 1657Q120 1637 135 1622Q504 1253 504 729Q504 205 135 -164Q120
-179 120 -199Q120 -220 135 -234Q149 -249 170 -249Z" />
<glyph unicode="*" glyph-name="asterisk" horiz-adv-x="698" d="M559 1318T539 1324Q520 1330 501 1320L399 1266V1382Q399 1402 385 1417Q370 1431 349 1431Q329 1431 314 1417Q300 1402 300 1382V1266L197 1320Q179 1330 159 1324Q140 1318 130 1300Q120 1281
126 1262Q132 1242 150 1232L244 1183L150 1133Q132 1123 126 1104Q120 1084 130 1066Q144 1039 174 1039Q186 1039 197 1045L300 1100V984Q300 963 314 949Q329 934 349 934Q370 934 385 949Q399 963 399 984V1100L501 1045Q512 1039 525 1039Q555 1039 569 1066Q578
1084 572 1104Q566 1123 548 1133L455 1183L548 1232Q566 1242 572 1262Q578 1281 569 1300Q559 1318 539 1324Z" />
<glyph unicode="+" glyph-name="plus" horiz-adv-x="1069" d="M555 297T570 312Q584 326 584 347V662H899Q920 662 934 676Q949 691 949 711Q949 732 934 747Q920 761 899 761H584V1076Q584 1097 570 1111Q555 1126 534 1126Q514 1126 499 1111Q485 1097 485 1076V761H170Q149
761 135 747Q120 732 120 711Q120 691 135 676Q149 662 170 662H485V347Q485 326 499 312Q514 297 534 297Q555 297 570 312Z" />
<glyph unicode="," glyph-name="comma" horiz-adv-x="671" d="M120 -303T135 -317Q149 -332 170 -332Q327 -332 439 -220Q551 -108 551 49Q551 70 536 84Q522 99 501 99Q481 99 466 84Q452 70 452 49Q452 -67 369 -150Q286 -233 170 -233Q149 -233 135 -247Q120
-262 120 -282Q120 -303 135 -317Z" />
<glyph unicode="-" glyph-name="hyphen" horiz-adv-x="1069" d="M120 692T135 678Q149 663 170 663H899Q920 663 934 678Q949 692 949 713Q949 733 934 748Q920 762 899 762H170Q149 762 135 748Q120 733 120 713Q120 692 135 678Z" />
<glyph unicode="." glyph-name="period" horiz-adv-x="339" d="M149 99T135 85Q120 70 120 50Q120 29 135 15Q149 0 170 0Q190 0 205 15Q219 29 219 50Q219 70 205 85Q190 99 170 99Q149 99 135 85Z" />
<glyph unicode="/" glyph-name="slash" horiz-adv-x="812" d="M165 0T174 0Q209 0 221 33L685 1359Q692 1379 683 1397Q674 1416 654 1423Q635 1430 616 1421Q598 1412 591 1392L127 66Q120 47 129 28Q138 10 157 3Q165 0 174 0Z" />
<glyph unicode="0" glyph-name="zero" horiz-adv-x="1334" d="M1115 547Q1115 362 983 231Q852 99 667 99Q482 99 351 231Q219 362 219 547V879Q219 1064 351 1195Q482 1326 667 1326Q852 1326 983 1195Q1115 1064 1115 879V547ZM441 1426T280 1265Q120 1105 120
879V547Q120 321 280 160Q441 0 667 0Q893 0 1054 160Q1214 321 1214 547V879Q1214 1105 1054 1265Q893 1426 667 1426Q441 1426 280 1265Z" />
<glyph unicode="1" glyph-name="one" horiz-adv-x="872" d="M723 0T737 15Q752 29 752 50V1376Q752 1407 724 1420Q697 1434 672 1416L142 1018Q125 1005 123 985Q120 965 132 948Q144 932 165 929Q185 926 202 938L652 1276V50Q652 29 667 15Q682 0 702 0Q723 0 737 15Z" />
<glyph unicode="2" glyph-name="two" horiz-adv-x="1292" d="M342 1420T139 1217Q124 1202 124 1182Q124 1161 139 1146Q153 1132 174 1132Q194 1132 209 1146Q384 1321 631 1326Q751 1328 866 1289Q993 1245 1042 1170Q1067 1133 1061 1093Q1055 1053 1007 1004Q807
796 413 374Q246 194 162 105L142 84Q120 60 133 30Q146 0 178 0H1107Q1127 0 1142 15Q1156 29 1156 50Q1156 70 1142 85Q1127 99 1107 99H293Q359 170 486 306Q879 728 1079 935Q1148 1007 1159 1078Q1172 1155 1125 1225Q1060 1325 907 1380Q773 1428 629 1425Q342
1420 139 1217Z" />
<glyph unicode="3" glyph-name="three" horiz-adv-x="1268" d="M170 1426Q149 1426 135 1411Q120 1396 120 1376Q120 1355 135 1341Q149 1326 170 1326H766Q883 1326 966 1243Q1048 1161 1048 1044Q1048 928 966 845Q883 763 766 763H435Q414 763 400 748Q385
733 385 713Q385 692 400 678Q414 663 435 663H766Q883 663 966 580Q1048 498 1048 381Q1048 265 966 182Q883 99 766 99H170Q149 99 135 85Q120 70 120 50Q120 29 135 15Q149 0 170 0H766Q924 0 1036 112Q1148 224 1148 381Q1148 486 1094 576Q1042 663 954 713Q1042
763 1094 850Q1148 940 1148 1044Q1148 1202 1036 1314Q924 1426 766 1426H170Z" />
<glyph unicode="4" glyph-name="four" horiz-adv-x="1473" d="M1021 564V845Q1021 866 1007 881Q992 895 972 895Q951 895 937 881Q922 866 922 845V564H248L554 1358Q561 1377 553 1396Q545 1415 525 1422Q506 1430 487 1421Q469 1413 461 1394L130 532Q120 507
135 486Q150 464 176 464H922V50Q922 29 937 15Q951 0 972 0Q992 0 1007 15Q1021 29 1021 50V464H1303Q1324 464 1338 479Q1353 493 1353 514Q1353 534 1338 549Q1324 564 1303 564H1021Z" />
<glyph unicode="5" glyph-name="five" horiz-adv-x="1268" d="M1098 1326Q1119 1326 1133 1341Q1148 1355 1148 1376Q1148 1396 1133 1411Q1119 1426 1098 1426H170Q149 1426 135 1411Q120 1396 120 1376V713Q120 692 135 678Q149 663 170 663H766Q883 663 966
580Q1048 498 1048 381Q1048 265 966 182Q883 99 766 99H170Q149 99 135 85Q120 70 120 50Q120 29 135 15Q149 0 170 0H766Q924 0 1036 112Q1148 224 1148 381Q1148 539 1036 651Q924 763 766 763H219V1326H1098Z" />
<glyph unicode="6" glyph-name="six" horiz-adv-x="1268" d="M501 99Q385 99 302 182Q219 265 219 381Q219 498 302 580Q385 663 501 663H766Q883 663 966 580Q1048 498 1048 381Q1048 265 966 182Q883 99 766 99H501ZM1148 539T1036 651Q924 763 766 763H501Q333
763 219 638V1044Q219 1161 302 1243Q385 1326 501 1326H1098Q1119 1326 1133 1341Q1148 1355 1148 1376Q1148 1396 1133 1411Q1119 1426 1098 1426H501Q344 1426 232 1314Q120 1202 120 1044V381Q120 224 232 112Q344 0 501 0H766Q924 0 1036 112Q1148 224 1148
381Q1148 539 1036 651Z" />
<glyph unicode="7" glyph-name="seven" horiz-adv-x="1341" d="M1191 1426T1164 1426H170Q149 1426 135 1411Q120 1396 120 1376Q120 1355 135 1341Q149 1326 170 1326H1087L522 70Q514 51 521 32Q528 13 547 4Q557 0 568 0Q600 0 613 29L1210 1355Q1221 1380
1206 1403Q1191 1426 1164 1426Z" />
<glyph unicode="8" glyph-name="eight" horiz-adv-x="1268" d="M501 99Q385 99 302 182Q219 265 219 381Q219 498 302 580Q385 663 501 663H766Q883 663 966 580Q1048 498 1048 381Q1048 265 966 182Q883 99 766 99H501ZM219 1161T302 1243Q385 1326 501 1326H766Q883
1326 966 1243Q1048 1161 1048 1044Q1048 928 966 845Q883 763 766 763H501Q385 763 302 845Q219 928 219 1044Q219 1161 302 1243ZM1148 486T1094 576Q1042 663 954 713Q1042 763 1094 850Q1148 940 1148 1044Q1148 1202 1036 1314Q924 1426 766 1426H501Q344
1426 232 1314Q120 1202 120 1044Q120 940 173 850Q225 763 313 713Q225 663 173 576Q120 486 120 381Q120 224 232 112Q344 0 501 0H766Q924 0 1036 112Q1148 224 1148 381Q1148 486 1094 576Z" />
<glyph unicode="9" glyph-name="nine" horiz-adv-x="1268" d="M501 763Q385 763 302 845Q219 928 219 1044Q219 1161 302 1243Q385 1326 501 1326H766Q883 1326 966 1243Q1048 1161 1048 1044Q1048 928 966 845Q883 763 766 763H501ZM1048 50Q1048 29 1063 15Q1077
0 1098 0Q1119 0 1133 15Q1148 29 1148 50V1044Q1148 1202 1036 1314Q924 1426 766 1426H501Q344 1426 232 1314Q120 1202 120 1044Q120 887 232 775Q344 663 501 663H766Q935 663 1048 788V50Z" />
<glyph unicode=":" glyph-name="colon" horiz-adv-x="339" d="M149 99T135 85Q120 70 120 50Q120 29 135 15Q149 0 170 0Q190 0 205 15Q219 29 219 50Q219 70 205 85Q190 99 170 99Q149 99 135 85ZM190 497T170 497Q149 497 135 483Q120 468 120 448Q120 427 135
412Q149 398 170 398Q190 398 205 412Q219 427 219 448Q219 468 205 483Q190 497 170 497Z" />
<glyph unicode=";" glyph-name="semicolon" horiz-adv-x="671" d="M452 468T452 447Q452 426 466 412Q481 397 501 397Q522 397 536 412Q551 426 551 447Q551 468 536 482Q522 497 501 497Q481 497 466 482Q452 468 452 447ZM120 -303T135 -317Q149 -332 170 -332Q327
-332 439 -220Q551 -108 551 49Q551 70 536 84Q522 99 501 99Q481 99 466 84Q452 70 452 49Q452 -67 369 -150Q286 -233 170 -233Q149 -233 135 -247Q120 -262 120 -282Q120 -303 135 -317Z" />
<glyph unicode="&lt;" glyph-name="less" horiz-adv-x="804" d="M654 1219T634 1219Q613 1219 599 1204L135 740Q120 725 120 705Q120 684 135 670L599 206Q613 191 634 191Q654 191 669 206Q684 220 684 241Q684 261 669 276L240 705L669 1134Q684 1148 684 1169Q684
1190 669 1204Q654 1219 634 1219Z" />
<glyph unicode="=" glyph-name="equal" horiz-adv-x="1069" d="M899 464Q920 464 934 479Q949 493 949 514Q949 534 934 549Q920 563 899 563H170Q149 563 135 549Q120 534 120 514Q120 493 135 479Q149 464 170 464H899ZM899 862Q920 862 934 876Q949 891 949
912Q949 932 934 947Q920 961 899 961H170Q149 961 135 947Q120 932 120 912Q120 891 135 876Q149 862 170 862H899Z" />
<glyph unicode="&gt;" glyph-name="greater" horiz-adv-x="804" d="M149 201T170 201Q190 201 205 216L669 680Q684 694 684 715Q684 735 669 750L205 1214Q190 1229 170 1229Q149 1229 135 1214Q120 1200 120 1179Q120 1158 135 1144L564 715L135 286Q120 271
120 251Q120 230 135 216Q149 201 170 201Z" />
<glyph unicode="?" glyph-name="question" horiz-adv-x="1135" d="M120 957T135 943Q149 928 170 928Q190 928 205 943Q219 957 219 978Q219 1122 322 1224Q424 1326 568 1326Q712 1326 814 1224Q916 1122 916 978Q916 834 814 732Q712 630 568 630Q547 630 532
615Q518 601 518 580V315Q518 294 532 280Q547 265 568 265Q588 265 603 280Q617 294 617 315V533Q786 552 900 679Q1015 806 1015 978Q1015 1163 884 1294Q753 1426 568 1426Q382 1426 251 1294Q120 1163 120 978Q120 957 135 943ZM547 99T532 85Q518 70 518 50Q518
29 532 15Q547 0 568 0Q588 0 603 15Q617 29 617 50Q617 70 603 85Q588 99 568 99Q547 99 532 85Z" />
<glyph unicode="@" glyph-name="at" horiz-adv-x="1678" d="M750 480T687 543Q623 606 623 695Q623 784 687 847Q750 910 839 910Q928 910 991 847Q1054 784 1054 695Q1054 606 991 543Q928 480 839 480Q750 480 687 543ZM1094 42T1113 42Q1124 42 1134 46Q1448
189 1531 526Q1532 528 1533 531Q1558 639 1550 748Q1550 747 1549 753Q1549 761 1548 764Q1548 768 1547 776Q1546 781 1547 780Q1534 889 1488 990Q1383 1219 1160 1332L1154 1334Q1157 1333 1152 1335Q1105 1358 1055 1374Q794 1458 544 1344Q399 1278 296 1157Q296
1157 296 1157Q295 1156 295 1156Q292 1152 288 1148Q285 1143 282 1139Q281 1139 280 1138Q182 1014 145 859Q120 751 128 642V637Q129 629 129 626Q130 622 131 614Q131 609 131 610Q144 501 190 400Q191 397 193 395Q339 81 675 1Q681 0 686 0Q726 0 735 38Q739
58 729 76Q718 93 698 98Q508 143 379 290Q253 433 230 622Q230 622 229 626Q229 631 228 635Q228 639 228 645Q227 649 227 649Q210 887 358 1075Q359 1077 360 1078Q361 1080 365 1084Q469 1211 624 1269Q782 1329 948 1299Q948 1298 953 1298Q964 1296 975 1293Q984
1291 990 1289Q995 1288 1000 1287Q1015 1283 1025 1279V1279Q1040 1275 1054 1269Q1083 1259 1110 1245V1245Q1120 1240 1133 1233Q1138 1231 1142 1228Q1147 1225 1155 1221Q1412 1066 1448 768Q1448 768 1448 764Q1449 759 1449 755Q1450 751 1450 745V741Q1463
569 1384 415Q1304 258 1154 169V695Q1154 825 1061 918Q969 1010 839 1010Q709 1010 616 918Q524 825 524 695Q524 565 616 472Q709 380 839 380Q963 380 1054 466V98Q1054 69 1080 55Q1094 42 1113 42Z" />
<glyph unicode="A" glyph-name="A" horiz-adv-x="1541" d="M400 431L771 1255L1141 431H400ZM1378 0T1388 5Q1407 13 1414 32Q1421 52 1413 70L816 1396Q803 1426 771 1426Q738 1426 725 1396L129 70Q120 52 127 32Q135 13 153 5Q172 -4 192 3Q211 11 219 29L356
334Q364 332 373 332H1168Q1177 332 1185 334L1322 29Q1335 0 1367 0Q1378 0 1388 5Z" />
<glyph unicode="B" glyph-name="B" horiz-adv-x="1400" d="M219 99V666Q227 663 236 663H899Q1016 663 1098 580Q1181 498 1181 381Q1181 265 1098 182Q1016 99 899 99H219ZM219 1326H766Q883 1326 966 1243Q1048 1161 1048 1044Q1048 928 966 845Q883 763 766
763H236Q227 763 219 760V1326ZM1280 510T1202 612Q1126 712 1005 747Q1148 862 1148 1044Q1148 1202 1036 1314Q924 1426 766 1426H170Q149 1426 135 1411Q120 1396 120 1376V50Q120 29 135 15Q149 0 170 0H899Q1057 0 1169 112Q1280 224 1280 381Q1280 510 1202
612Z" />
<glyph unicode="C" glyph-name="C" horiz-adv-x="1471" d="M1322 293T1301 293Q1281 293 1266 279Q1087 99 832 99Q578 99 399 279Q219 458 219 712Q219 967 399 1146Q578 1325 832 1325Q1087 1325 1266 1146Q1281 1132 1301 1132Q1322 1132 1336 1146Q1351 1161
1351 1181Q1351 1202 1336 1216Q1128 1425 832 1425Q537 1425 328 1216Q120 1008 120 712Q120 417 328 208Q537 0 832 0Q1128 0 1336 208Q1351 223 1351 244Q1351 264 1336 279Q1322 293 1301 293Z" />
<glyph unicode="D" glyph-name="D" horiz-adv-x="1400" d="M219 1326H568Q821 1326 1001 1146Q1181 966 1181 713Q1181 459 1001 279Q821 99 568 99H219V1326ZM120 50Q120 29 135 15Q149 0 170 0H568Q862 0 1071 209Q1280 418 1280 713Q1280 1008 1071 1217Q862
1426 568 1426H170Q149 1426 135 1411Q120 1396 120 1376V50Z" />
<glyph unicode="E" glyph-name="E" horiz-adv-x="1400" d="M1280 70T1266 85Q1251 99 1231 99H219V666Q228 663 236 663H965Q986 663 1001 678Q1015 692 1015 713Q1015 733 1001 748Q986 763 965 763H236Q228 763 219 760V1326H1231Q1251 1326 1266 1341Q1280
1355 1280 1376Q1280 1396 1266 1411Q1251 1426 1231 1426H170Q149 1426 135 1411Q120 1396 120 1376V50Q120 29 135 15Q149 0 170 0H1231Q1251 0 1266 15Q1280 29 1280 50Q1280 70 1266 85Z" />
<glyph unicode="F" glyph-name="F" horiz-adv-x="1400" d="M190 0T205 15Q219 29 219 50V666Q228 663 236 663H965Q986 663 1001 678Q1015 692 1015 713Q1015 733 1001 748Q986 763 965 763H236Q228 763 219 760V1326H1231Q1251 1326 1266 1341Q1280 1355 1280
1376Q1280 1396 1266 1411Q1251 1426 1231 1426H170Q149 1426 135 1411Q120 1396 120 1376V50Q120 29 135 15Q149 0 170 0Q190 0 205 15Z" />
<glyph unicode="G" glyph-name="G" horiz-adv-x="1471" d="M537 0T832 0Q1128 0 1336 208Q1351 223 1351 244V712Q1351 733 1336 748Q1322 762 1301 762H766Q746 762 731 748Q716 733 716 712Q716 692 731 677Q746 663 766 663H1252V265Q1071 96 823 99Q574 103
399 279Q219 458 219 712Q219 967 399 1146Q578 1325 832 1325Q1087 1325 1266 1146Q1281 1132 1301 1132Q1322 1132 1336 1146Q1351 1161 1351 1181Q1351 1202 1336 1216Q1128 1425 832 1425Q537 1425 328 1216Q120 1008 120 712Q120 417 328 208Q537 0 832 0Z"
/>
<glyph unicode="H" glyph-name="H" horiz-adv-x="1400" d="M190 0T205 15Q219 29 219 50V666Q228 663 236 663H1181V50Q1181 29 1195 15Q1210 0 1231 0Q1251 0 1266 15Q1280 29 1280 50V1376Q1280 1396 1266 1411Q1251 1426 1231 1426Q1210 1426 1195 1411Q1181
1396 1181 1376V763H236Q228 763 219 760V1376Q219 1396 205 1411Q190 1426 170 1426Q149 1426 135 1411Q120 1396 120 1376V50Q120 29 135 15Q149 0 170 0Q190 0 205 15Z" />
<glyph unicode="I" glyph-name="I" horiz-adv-x="339" d="M190 0T205 15Q219 29 219 50V1376Q219 1396 205 1411Q190 1426 170 1426Q149 1426 135 1411Q120 1396 120 1376V50Q120 29 135 15Q149 0 170 0Q190 0 205 15Z" />
<glyph unicode="J" glyph-name="J" horiz-adv-x="1003" d="M883 1376Q883 1396 868 1411Q853 1426 833 1426Q812 1426 798 1411Q783 1396 783 1376V713Q783 459 603 279Q423 99 170 99Q149 99 135 85Q120 70 120 50Q120 29 135 15Q149 0 170 0Q465 0 674 209Q883
418 883 713V1376Z" />
<glyph unicode="K" glyph-name="K" horiz-adv-x="1402" d="M535 750Q533 751 531 753L1262 1337Q1278 1350 1280 1370Q1282 1391 1269 1407Q1257 1423 1236 1425Q1216 1428 1200 1415L219 631V1376Q219 1396 205 1411Q190 1426 170 1426Q149 1426 135 1411Q120
1396 120 1376V50Q120 29 135 15Q149 0 170 0Q190 0 205 15Q219 29 219 50V503L311 577L452 689L519 630L1197 13Q1211 0 1231 0Q1253 0 1267 16Q1281 32 1280 52Q1279 73 1264 87L535 750Z" />
<glyph unicode="L" glyph-name="L" horiz-adv-x="1400" d="M1231 0Q1251 0 1266 15Q1280 29 1280 50Q1280 70 1266 85Q1251 99 1231 99H219V1376Q219 1396 205 1411Q190 1426 170 1426Q149 1426 135 1411Q120 1396 120 1376V50Q120 29 135 15Q149 0 170 0H1231Z" />
<glyph unicode="M" glyph-name="M" horiz-adv-x="1798" d="M1649 0T1664 15Q1678 29 1678 50V1376Q1678 1411 1645 1423Q1611 1434 1589 1407L899 528L209 1407Q187 1434 153 1423Q120 1411 120 1376V50Q120 29 135 15Q149 0 170 0Q190 0 205 15Q219 29 219 50V1232L860
417Q875 398 899 398Q923 398 938 417L1579 1232V50Q1579 29 1593 15Q1608 0 1628 0Q1649 0 1664 15Z" />
<glyph unicode="N" glyph-name="N" horiz-adv-x="1467" d="M1306 0T1314 3Q1347 15 1347 50V1376Q1347 1396 1332 1411Q1318 1426 1297 1426Q1276 1426 1262 1411Q1247 1396 1247 1376V185L208 1408Q185 1434 153 1423Q120 1411 120 1376V50Q120 29 135 15Q149
0 170 0Q190 0 205 15Q219 29 219 50V1241L1259 18Q1274 0 1297 0Q1306 0 1314 3Z" />
<glyph unicode="O" glyph-name="O" horiz-adv-x="1666" d="M1086 1326T1266 1146Q1446 966 1446 713Q1446 459 1266 279Q1086 99 833 99Q579 99 399 279Q219 459 219 713Q219 966 399 1146Q579 1326 833 1326Q1086 1326 1266 1146ZM120 418T329 209Q538 0 833
0Q1128 0 1337 209Q1546 418 1546 713Q1546 1008 1337 1217Q1128 1426 833 1426Q538 1426 329 1217Q120 1008 120 713Q120 418 329 209Z" />
<glyph unicode="P" glyph-name="P" horiz-adv-x="1400" d="M219 1326H833Q977 1326 1079 1224Q1181 1122 1181 978Q1181 834 1079 732Q977 630 833 630H236Q227 630 219 627V1326ZM1280 1163T1149 1294Q1018 1426 833 1426H170Q149 1426 135 1411Q120 1396 120
1376V50Q120 29 135 15Q149 0 170 0Q190 0 205 15Q219 29 219 50V533Q227 530 236 530H833Q1018 530 1149 662Q1280 793 1280 978Q1280 1163 1149 1294Z" />
<glyph unicode="Q" glyph-name="Q" horiz-adv-x="1666" d="M219 966T399 1146Q579 1326 833 1326Q1086 1326 1266 1146Q1446 966 1446 712Q1446 459 1266 279Q1086 99 833 99Q579 99 399 279Q219 459 219 712Q219 966 399 1146ZM1237 -102Q1251 -126 1279 -126Q1293
-126 1305 -119Q1323 -108 1328 -88Q1333 -68 1322 -51L1222 116Q1371 213 1457 368Q1546 528 1546 712Q1546 1007 1337 1216Q1128 1425 833 1425Q538 1425 329 1216Q120 1007 120 712Q120 417 329 208Q538 -1 833 -1Q992 -1 1135 67L1237 -102Z" />
<glyph unicode="R" glyph-name="R" horiz-adv-x="1404" d="M219 630V1326H833Q977 1326 1079 1224Q1181 1122 1181 978Q1181 834 1079 732Q977 630 833 630H219ZM974 554Q1109 599 1194 714Q1280 832 1280 978Q1280 1163 1149 1294Q1018 1426 833 1426H170Q149
1426 135 1411Q120 1396 120 1376V50Q120 29 135 15Q149 0 170 0Q190 0 205 15Q219 29 219 50V530H833Q850 530 870 532L1188 23Q1203 0 1231 0Q1245 0 1257 8Q1274 18 1279 39Q1284 59 1273 76L974 554Z" />
<glyph unicode="S" glyph-name="S" horiz-adv-x="1435" d="M1050 1307T1210 1146Q1225 1132 1245 1132Q1266 1132 1280 1146Q1295 1161 1295 1182Q1295 1202 1280 1217Q1093 1404 774 1424Q642 1432 519 1409Q315 1373 213 1262Q158 1202 139 1120Q120 1038 143
960Q175 857 268 800Q324 766 448 729Q460 725 470 722Q630 674 794 643L811 639Q992 604 1072 561Q1170 507 1190 407Q1208 316 1145 238Q1120 206 1085 187Q880 76 621 104Q363 131 215 279Q200 294 180 294Q159 294 145 279Q130 264 130 244Q130 223 145 209Q319
34 616 5Q663 0 711 0Q948 0 1132 100Q1185 128 1223 175Q1315 289 1288 426Q1259 572 1119 648Q1026 699 830 737L813 740Q654 771 499 818Q491 820 476 824Q370 856 328 880Q260 919 239 989Q203 1105 286 1194Q426 1346 767 1324Q1050 1307 1210 1146Z" />
<glyph unicode="T" glyph-name="T" horiz-adv-x="1400" d="M721 0T735 15Q750 29 750 50V1326H1231Q1251 1326 1266 1341Q1280 1355 1280 1376Q1280 1396 1266 1411Q1251 1426 1231 1426H170Q149 1426 135 1411Q120 1396 120 1376Q120 1355 135 1341Q149 1326
170 1326H650V50Q650 29 665 15Q680 0 700 0Q721 0 735 15Z" />
<glyph unicode="U" glyph-name="U" horiz-adv-x="1467" d="M149 1426T135 1411Q120 1396 120 1376V613Q120 360 300 180Q480 0 733 0Q987 0 1167 180Q1347 360 1347 613V1376Q1347 1396 1332 1411Q1318 1426 1297 1426Q1276 1426 1262 1411Q1247 1396 1247 1376V613Q1247
401 1097 250Q946 99 733 99Q521 99 370 250Q219 401 219 613V1376Q219 1396 205 1411Q190 1426 170 1426Q149 1426 135 1411Z" />
<glyph unicode="V" glyph-name="V" horiz-adv-x="1541" d="M725 29Q738 0 771 0Q803 0 816 29L1413 1355Q1421 1374 1414 1393Q1407 1413 1388 1421Q1369 1430 1350 1422Q1330 1415 1322 1396L771 171L219 1396Q211 1415 192 1422Q172 1430 153 1421Q135 1413
127 1393Q120 1374 129 1355L725 29Z" />
<glyph unicode="W" glyph-name="W" horiz-adv-x="2337" d="M775 161L219 1396Q211 1415 192 1422Q172 1430 153 1421Q135 1413 127 1393Q120 1374 129 1355L725 29Q738 1 769 0Q800 -1 814 26L1168 675L1523 26Q1537 0 1566 0H1568Q1599 1 1612 29L2208 1355Q2217
1374 2210 1393Q2202 1413 2183 1421Q2165 1430 2145 1422Q2126 1415 2118 1396L1562 161L1212 803Q1198 829 1168 829Q1139 829 1125 803L775 161Z" />
<glyph unicode="X" glyph-name="X" horiz-adv-x="1404" d="M125 1402T122 1381Q120 1361 133 1345L639 713L133 81Q120 65 122 44Q125 24 141 11Q154 0 172 0Q196 0 211 19L702 633L1194 19Q1209 0 1233 0Q1250 0 1264 11Q1280 24 1282 44Q1284 65 1271 81L766
713L1271 1345Q1284 1361 1282 1381Q1280 1402 1264 1415Q1248 1428 1227 1425Q1207 1423 1194 1407L702 792L211 1407Q198 1423 177 1425Q157 1428 141 1415Q125 1402 122 1381Z" />
<glyph unicode="Y" glyph-name="Y" horiz-adv-x="1407" d="M128 1406T124 1386Q120 1365 131 1348L654 565V50Q654 29 668 15Q683 0 703 0Q724 0 738 15Q753 29 753 50V565L1275 1348Q1287 1365 1282 1386Q1278 1406 1261 1417Q1244 1429 1224 1425Q1204 1421
1192 1403L703 670L214 1403Q203 1421 183 1425Q162 1429 145 1417Q128 1406 124 1386Z" />
<glyph unicode="Z" glyph-name="Z" horiz-adv-x="1418" d="M129 1355T143 1341Q158 1326 178 1326H1136L140 81Q120 56 134 28Q147 0 178 0H1239Q1260 0 1274 15Q1289 29 1289 50Q1289 70 1274 85Q1260 99 1239 99H282L1278 1345Q1298 1369 1284 1397Q1271 1426
1239 1426H178Q158 1426 143 1411Q129 1396 129 1376Q129 1355 143 1341Z" />
<glyph unicode="^" glyph-name="asciicircum" horiz-adv-x="693" d="M346 1954L490 1763Q503 1745 526 1745Q541 1745 553 1754Q568 1765 570 1784Q573 1802 562 1817L382 2056Q369 2074 346 2074Q324 2074 310 2056L131 1817Q120 1802 123 1784Q125 1765 140
1754Q155 1743 173 1746Q192 1748 203 1763L346 1954Z" />
<glyph unicode="_" glyph-name="underscore" horiz-adv-x="1069" d="M120 29T135 15Q149 0 170 0H899Q920 0 934 15Q949 29 949 50Q949 70 934 85Q920 99 899 99H170Q149 99 135 85Q120 70 120 50Q120 29 135 15Z" />
<glyph unicode="`" glyph-name="grave" horiz-adv-x="452" d="M295 1731T305 1737Q322 1746 327 1764Q332 1781 323 1798L207 2006Q198 2022 180 2027Q162 2032 146 2023Q130 2014 125 1997Q120 1979 129 1962L245 1754Q257 1731 284 1731Q295 1731 305 1737Z" />
<glyph unicode="a" glyph-name="a" horiz-adv-x="1541" d="M400 431L771 1255L1141 431H400ZM1378 0T1388 5Q1407 13 1414 32Q1421 52 1413 70L816 1396Q803 1426 771 1426Q738 1426 725 1396L129 70Q120 52 127 32Q135 13 153 5Q172 -4 192 3Q211 11 219 29L356
334Q364 332 373 332H1168Q1177 332 1185 334L1322 29Q1335 0 1367 0Q1378 0 1388 5Z" />
<glyph unicode="b" glyph-name="b" horiz-adv-x="1400" d="M219 99V666Q227 663 236 663H899Q1016 663 1098 580Q1181 498 1181 381Q1181 265 1098 182Q1016 99 899 99H219ZM219 1326H766Q883 1326 966 1243Q1048 1161 1048 1044Q1048 928 966 845Q883 763 766
763H236Q227 763 219 760V1326ZM1280 510T1202 612Q1126 712 1005 747Q1148 862 1148 1044Q1148 1202 1036 1314Q924 1426 766 1426H170Q149 1426 135 1411Q120 1396 120 1376V50Q120 29 135 15Q149 0 170 0H899Q1057 0 1169 112Q1280 224 1280 381Q1280 510 1202
612Z" />
<glyph unicode="c" glyph-name="c" horiz-adv-x="1471" d="M1322 293T1301 293Q1281 293 1266 279Q1087 99 832 99Q578 99 399 279Q219 458 219 712Q219 967 399 1146Q578 1325 832 1325Q1087 1325 1266 1146Q1281 1132 1301 1132Q1322 1132 1336 1146Q1351 1161
1351 1181Q1351 1202 1336 1216Q1128 1425 832 1425Q537 1425 328 1216Q120 1008 120 712Q120 417 328 208Q537 0 832 0Q1128 0 1336 208Q1351 223 1351 244Q1351 264 1336 279Q1322 293 1301 293Z" />
<glyph unicode="d" glyph-name="d" horiz-adv-x="1400" d="M219 1326H568Q821 1326 1001 1146Q1181 966 1181 713Q1181 459 1001 279Q821 99 568 99H219V1326ZM120 50Q120 29 135 15Q149 0 170 0H568Q862 0 1071 209Q1280 418 1280 713Q1280 1008 1071 1217Q862
1426 568 1426H170Q149 1426 135 1411Q120 1396 120 1376V50Z" />
<glyph unicode="e" glyph-name="e" horiz-adv-x="1400" d="M1280 70T1266 85Q1251 99 1231 99H219V666Q228 663 236 663H965Q986 663 1001 678Q1015 692 1015 713Q1015 733 1001 748Q986 763 965 763H236Q228 763 219 760V1326H1231Q1251 1326 1266 1341Q1280
1355 1280 1376Q1280 1396 1266 1411Q1251 1426 1231 1426H170Q149 1426 135 1411Q120 1396 120 1376V50Q120 29 135 15Q149 0 170 0H1231Q1251 0 1266 15Q1280 29 1280 50Q1280 70 1266 85Z" />
<glyph unicode="f" glyph-name="f" horiz-adv-x="1400" d="M190 0T205 15Q219 29 219 50V666Q228 663 236 663H965Q986 663 1001 678Q1015 692 1015 713Q1015 733 1001 748Q986 763 965 763H236Q228 763 219 760V1326H1231Q1251 1326 1266 1341Q1280 1355 1280
1376Q1280 1396 1266 1411Q1251 1426 1231 1426H170Q149 1426 135 1411Q120 1396 120 1376V50Q120 29 135 15Q149 0 170 0Q190 0 205 15Z" />
<glyph unicode="g" glyph-name="g" horiz-adv-x="1471" d="M537 0T832 0Q1128 0 1336 208Q1351 223 1351 244V712Q1351 733 1336 748Q1322 762 1301 762H766Q746 762 731 748Q716 733 716 712Q716 692 731 677Q746 663 766 663H1252V265Q1071 96 823 99Q574 103
399 279Q219 458 219 712Q219 967 399 1146Q578 1325 832 1325Q1087 1325 1266 1146Q1281 1132 1301 1132Q1322 1132 1336 1146Q1351 1161 1351 1181Q1351 1202 1336 1216Q1128 1425 832 1425Q537 1425 328 1216Q120 1008 120 712Q120 417 328 208Q537 0 832 0Z"
/>
<glyph unicode="h" glyph-name="h" horiz-adv-x="1400" d="M190 0T205 15Q219 29 219 50V666Q228 663 236 663H1181V50Q1181 29 1195 15Q1210 0 1231 0Q1251 0 1266 15Q1280 29 1280 50V1376Q1280 1396 1266 1411Q1251 1426 1231 1426Q1210 1426 1195 1411Q1181
1396 1181 1376V763H236Q228 763 219 760V1376Q219 1396 205 1411Q190 1426 170 1426Q149 1426 135 1411Q120 1396 120 1376V50Q120 29 135 15Q149 0 170 0Q190 0 205 15Z" />
<glyph unicode="i" glyph-name="i" horiz-adv-x="339" d="M190 0T205 15Q219 29 219 50V1376Q219 1396 205 1411Q190 1426 170 1426Q149 1426 135 1411Q120 1396 120 1376V50Q120 29 135 15Q149 0 170 0Q190 0 205 15Z" />
<glyph unicode="j" glyph-name="j" horiz-adv-x="1003" d="M883 1376Q883 1396 868 1411Q853 1426 833 1426Q812 1426 798 1411Q783 1396 783 1376V713Q783 459 603 279Q423 99 170 99Q149 99 135 85Q120 70 120 50Q120 29 135 15Q149 0 170 0Q465 0 674 209Q883
418 883 713V1376Z" />
<glyph unicode="k" glyph-name="k" horiz-adv-x="1402" d="M535 750Q533 751 531 753L1262 1337Q1278 1350 1280 1370Q1282 1391 1269 1407Q1257 1423 1236 1425Q1216 1428 1200 1415L219 631V1376Q219 1396 205 1411Q190 1426 170 1426Q149 1426 135 1411Q120
1396 120 1376V50Q120 29 135 15Q149 0 170 0Q190 0 205 15Q219 29 219 50V503L311 577L452 689L519 630L1197 13Q1211 0 1231 0Q1253 0 1267 16Q1281 32 1280 52Q1279 73 1264 87L535 750Z" />
<glyph unicode="l" glyph-name="l" horiz-adv-x="1400" d="M1231 0Q1251 0 1266 15Q1280 29 1280 50Q1280 70 1266 85Q1251 99 1231 99H219V1376Q219 1396 205 1411Q190 1426 170 1426Q149 1426 135 1411Q120 1396 120 1376V50Q120 29 135 15Q149 0 170 0H1231Z" />
<glyph unicode="m" glyph-name="m" horiz-adv-x="1798" d="M1649 0T1664 15Q1678 29 1678 50V1376Q1678 1411 1645 1423Q1611 1434 1589 1407L899 528L209 1407Q187 1434 153 1423Q120 1411 120 1376V50Q120 29 135 15Q149 0 170 0Q190 0 205 15Q219 29 219 50V1232L860
417Q875 398 899 398Q923 398 938 417L1579 1232V50Q1579 29 1593 15Q1608 0 1628 0Q1649 0 1664 15Z" />
<glyph unicode="n" glyph-name="n" horiz-adv-x="1467" d="M1306 0T1314 3Q1347 15 1347 50V1376Q1347 1396 1332 1411Q1318 1426 1297 1426Q1276 1426 1262 1411Q1247 1396 1247 1376V185L208 1408Q185 1434 153 1423Q120 1411 120 1376V50Q120 29 135 15Q149
0 170 0Q190 0 205 15Q219 29 219 50V1241L1259 18Q1274 0 1297 0Q1306 0 1314 3Z" />
<glyph unicode="o" glyph-name="o" horiz-adv-x="1666" d="M1086 1326T1266 1146Q1446 966 1446 713Q1446 459 1266 279Q1086 99 833 99Q579 99 399 279Q219 459 219 713Q219 966 399 1146Q579 1326 833 1326Q1086 1326 1266 1146ZM120 418T329 209Q538 0 833
0Q1128 0 1337 209Q1546 418 1546 713Q1546 1008 1337 1217Q1128 1426 833 1426Q538 1426 329 1217Q120 1008 120 713Q120 418 329 209Z" />
<glyph unicode="p" glyph-name="p" horiz-adv-x="1400" d="M219 1326H833Q977 1326 1079 1224Q1181 1122 1181 978Q1181 834 1079 732Q977 630 833 630H236Q227 630 219 627V1326ZM1280 1163T1149 1294Q1018 1426 833 1426H170Q149 1426 135 1411Q120 1396 120
1376V50Q120 29 135 15Q149 0 170 0Q190 0 205 15Q219 29 219 50V533Q227 530 236 530H833Q1018 530 1149 662Q1280 793 1280 978Q1280 1163 1149 1294Z" />
<glyph unicode="q" glyph-name="q" horiz-adv-x="1666" d="M219 966T399 1146Q579 1326 833 1326Q1086 1326 1266 1146Q1446 966 1446 712Q1446 459 1266 279Q1086 99 833 99Q579 99 399 279Q219 459 219 712Q219 966 399 1146ZM1237 -102Q1251 -126 1279 -126Q1293
-126 1305 -119Q1323 -108 1328 -88Q1333 -68 1322 -51L1222 116Q1371 213 1457 368Q1546 528 1546 712Q1546 1007 1337 1216Q1128 1425 833 1425Q538 1425 329 1216Q120 1007 120 712Q120 417 329 208Q538 -1 833 -1Q992 -1 1135 67L1237 -102Z" />
<glyph unicode="r" glyph-name="r" horiz-adv-x="1404" d="M219 630V1326H833Q977 1326 1079 1224Q1181 1122 1181 978Q1181 834 1079 732Q977 630 833 630H219ZM974 554Q1109 599 1194 714Q1280 832 1280 978Q1280 1163 1149 1294Q1018 1426 833 1426H170Q149
1426 135 1411Q120 1396 120 1376V50Q120 29 135 15Q149 0 170 0Q190 0 205 15Q219 29 219 50V530H833Q850 530 870 532L1188 23Q1203 0 1231 0Q1245 0 1257 8Q1274 18 1279 39Q1284 59 1273 76L974 554Z" />
<glyph unicode="s" glyph-name="s" horiz-adv-x="1435" d="M1050 1307T1210 1146Q1225 1132 1245 1132Q1266 1132 1280 1146Q1295 1161 1295 1182Q1295 1202 1280 1217Q1093 1404 774 1424Q642 1432 519 1409Q315 1373 213 1262Q158 1202 139 1120Q120 1038 143
960Q175 857 268 800Q324 766 448 729Q460 725 470 722Q630 674 794 643L811 639Q992 604 1072 561Q1170 507 1190 407Q1208 316 1145 238Q1120 206 1085 187Q880 76 621 104Q363 131 215 279Q200 294 180 294Q159 294 145 279Q130 264 130 244Q130 223 145 209Q319
34 616 5Q663 0 711 0Q948 0 1132 100Q1185 128 1223 175Q1315 289 1288 426Q1259 572 1119 648Q1026 699 830 737L813 740Q654 771 499 818Q491 820 476 824Q370 856 328 880Q260 919 239 989Q203 1105 286 1194Q426 1346 767 1324Q1050 1307 1210 1146Z" />
<glyph unicode="t" glyph-name="t" horiz-adv-x="1400" d="M721 0T735 15Q750 29 750 50V1326H1231Q1251 1326 1266 1341Q1280 1355 1280 1376Q1280 1396 1266 1411Q1251 1426 1231 1426H170Q149 1426 135 1411Q120 1396 120 1376Q120 1355 135 1341Q149 1326
170 1326H650V50Q650 29 665 15Q680 0 700 0Q721 0 735 15Z" />
<glyph unicode="u" glyph-name="u" horiz-adv-x="1467" d="M149 1426T135 1411Q120 1396 120 1376V613Q120 360 300 180Q480 0 733 0Q987 0 1167 180Q1347 360 1347 613V1376Q1347 1396 1332 1411Q1318 1426 1297 1426Q1276 1426 1262 1411Q1247 1396 1247 1376V613Q1247
401 1097 250Q946 99 733 99Q521 99 370 250Q219 401 219 613V1376Q219 1396 205 1411Q190 1426 170 1426Q149 1426 135 1411Z" />
<glyph unicode="v" glyph-name="v" horiz-adv-x="1541" d="M725 29Q738 0 771 0Q803 0 816 29L1413 1355Q1421 1374 1414 1393Q1407 1413 1388 1421Q1369 1430 1350 1422Q1330 1415 1322 1396L771 171L219 1396Q211 1415 192 1422Q172 1430 153 1421Q135 1413
127 1393Q120 1374 129 1355L725 29Z" />
<glyph unicode="w" glyph-name="w" horiz-adv-x="2337" d="M775 161L219 1396Q211 1415 192 1422Q172 1430 153 1421Q135 1413 127 1393Q120 1374 129 1355L725 29Q738 1 769 0Q800 -1 814 26L1168 675L1523 26Q1537 0 1566 0H1568Q1599 1 1612 29L2208 1355Q2217
1374 2210 1393Q2202 1413 2183 1421Q2165 1430 2145 1422Q2126 1415 2118 1396L1562 161L1212 803Q1198 829 1168 829Q1139 829 1125 803L775 161Z" />
<glyph unicode="x" glyph-name="x" horiz-adv-x="1404" d="M125 1402T122 1381Q120 1361 133 1345L639 713L133 81Q120 65 122 44Q125 24 141 11Q154 0 172 0Q196 0 211 19L702 633L1194 19Q1209 0 1233 0Q1250 0 1264 11Q1280 24 1282 44Q1284 65 1271 81L766
713L1271 1345Q1284 1361 1282 1381Q1280 1402 1264 1415Q1248 1428 1227 1425Q1207 1423 1194 1407L702 792L211 1407Q198 1423 177 1425Q157 1428 141 1415Q125 1402 122 1381Z" />
<glyph unicode="y" glyph-name="y" horiz-adv-x="1407" d="M128 1406T124 1386Q120 1365 131 1348L654 565V50Q654 29 668 15Q683 0 703 0Q724 0 738 15Q753 29 753 50V565L1275 1348Q1287 1365 1282 1386Q1278 1406 1261 1417Q1244 1429 1224 1425Q1204 1421
1192 1403L703 670L214 1403Q203 1421 183 1425Q162 1429 145 1417Q128 1406 124 1386Z" />
<glyph unicode="z" glyph-name="z" horiz-adv-x="1418" d="M129 1355T143 1341Q158 1326 178 1326H1136L140 81Q120 56 134 28Q147 0 178 0H1239Q1260 0 1274 15Q1289 29 1289 50Q1289 70 1274 85Q1260 99 1239 99H282L1278 1345Q1298 1369 1284 1397Q1271 1426
1239 1426H178Q158 1426 143 1411Q129 1396 129 1376Q129 1355 143 1341Z" />
</font>
</defs>
</svg>
